{
.appVersion = "3091";
.formatVersion = 3;
DisplayStrings = (
y,
j,
"{",
f,
"ə"
);
customParameters = (
{
name = vendorID;
value = CF;
},
{
name = panose;
value = (
2,
11,
5,
9,
4,
2,
1,
4,
1,
3
);
},
{
name = unicodeRanges;
value = (
0,
1,
2
);
},
{
name = codePageRanges;
value = (
"1252",
"1250",
"1254",
"1257",
"bit 29"
);
},
{
name = fsType;
value = (
);
},
{
name = glyphOrder;
value = (
.notdef,
A,
Aacute,
Abreve,
Acircumflex,
Adieresis,
Agrave,
Amacron,
Aogonek,
Aring,
Atilde,
AE,
AEacute,
B,
C,
Cacute,
Ccaron,
Ccedilla,
Cdotaccent,
D,
Eth,
Dcaron,
Dcroat,
E,
Eacute,
Ebreve,
Ecaron,
Ecircumflex,
Edieresis,
Edotaccent,
Egrave,
Emacron,
Eogonek,
uni1EBC,
F,
G,
Gbreve,
uni0122,
Gdotaccent,
H,
I,
Iacute,
Ibreve,
Icircumflex,
Idieresis,
Idotaccent,
Igrave,
Imacron,
Iogonek,
Itilde,
J,
K,
uni0136,
L,
Lacute,
Lcaron,
uni013B,
Ldot,
Lslash,
M,
N,
Nacute,
Ncaron,
uni0145,
Ntilde,
O,
Oacute,
Obreve,
Ocircumflex,
Odieresis,
Ograve,
Ohungarumlaut,
Omacron,
Oslash,
Otilde,
OE,
P,
Thorn,
Q,
R,
Racute,
Rcaron,
uni0156,
S,
Sacute,
Scaron,
Scedilla,
uni0218,
uni018F,
T,
Tcaron,
uni0162,
uni021A,
U,
Uacute,
Ubreve,
Ucircumflex,
Udieresis,
Ugrave,
Uhungarumlaut,
Umacron,
Uogonek,
Uring,
Utilde,
V,
W,
Wacute,
Wcircumflex,
Wdieresis,
Wgrave,
X,
Y,
Yacute,
Ycircumflex,
Ydieresis,
Ygrave,
uni1EF8,
Z,
Zacute,
Zcaron,
Zdotaccent,
a,
aacute,
abreve,
acircumflex,
adieresis,
agrave,
amacron,
aogonek,
aring,
atilde,
ae,
aeacute,
b,
c,
cacute,
ccaron,
ccedilla,
cdotaccent,
d,
eth,
dcaron,
dcroat,
e,
eacute,
ebreve,
ecaron,
ecircumflex,
edieresis,
edotaccent,
egrave,
emacron,
eogonek,
uni1EBD,
uni0259,
f,
g,
gbreve,
uni0123,
gdotaccent,
h,
i,
dotlessi,
iacute,
ibreve,
icircumflex,
idieresis,
igrave,
imacron,
iogonek,
itilde,
j,
k,
uni0137,
l,
lacute,
lcaron,
uni013C,
ldot,
lslash,
m,
n,
nacute,
ncaron,
uni0146,
ntilde,
o,
oacute,
obreve,
ocircumflex,
odieresis,
ograve,
ohungarumlaut,
omacron,
oslash,
otilde,
oe,
p,
thorn,
q,
r,
racute,
rcaron,
uni0157,
s,
sacute,
scaron,
scedilla,

glyphs = (
{
glyphname = .notdef;
layers = (
{
layerId = m01;
shapes = (
{
closed = 1;
nodes = (
(512,700,l),
(88,700,l),
(88,0,l),
(512,0,l)
);
},
{
closed = 1;
nodes = (
(442,636,l),
(442,64,l),
(158,64,l),
(158,636,l)
);
}
);
userData = {
assembly = "NPUSHB[ ]	/* 39 values pushed */
0 0 0 3 2 0 3 103 0 2 1 1 2 87 0 2 2 1 95 4 1 1 2 1 79 0 0 7 6 5 4 0 3 0 3 17 5 6 23 
CALL[ ]	/* CallFunction */";
};
width = 600;
}
);
note = .notdef;
},
{
glyphname = A;
layers = (
{
layerId = m01;
shapes = (
{
closed = 1;
nodes = (
(176,174,l),
(424,174,l),
(475,0,l),
(567,0,l),
(349,700,l),
(252,700,l),
(33,0,l),
(125,0,l)
);
},
{
closed = 1;
nodes = (
(403,244,l),
(197,244,l),
(298,582,l),
(302,582,l)
);
}
);
userData = {
assembly = "NPUSHB[ ]	/* 35 values pushed */
0 4 0 2 1 4 2 104 0 0 0 28 77 5 3 2 1 1 29 1 78 0 0 10 9 0 7 0 7 17 17 17 6 8 25 
CALL[ ]	/* CallFunction */";
};
width = 600;
}
);
note = A;
unicode = 65;
},
{
glyphname = AE;
layers = (
{
layerId = m01;
shapes = (
{
closed = 1;
nodes = (
(149,174,l),
(302,174,l),
(302,0,l),
(590,0,l),
(590,76,l),
(386,76,l),
(386,315,l),
(560,315,l),
(560,391,l),
(386,391,l),
(386,624,l),
(590,624,l),
(590,700,l),
(233,700,l),
(2,0,l),
(94,0,l)
);
},
{
closed = 1;
nodes = (
(302,244,l),
(171,244,l),
(289,624,l),
(302,624,l)
);
}
);
userData = {
assembly = "NPUSHB[ ]	/* 65 values pushed */
0 2 0 3 8 2 3 103 0 8 0 6 4 8 6 103 11 9 2 1 1 0 95 0 0 0 28 77 0 4 4 5 95 10 7 2 5 5 29 5 78 16 16 0 0 16 19 16 19 18 17 0 15 0 15 17 17 17 17 17 17 17 12 8 29 
CALL[ ]	/* CallFunction */";
};
width = 600;
}
);
note = AE;
unicode = 198;
},
{
glyphname = B;
layers = (
{
layerId = m01;
shapes = (
{
closed = 1;
nodes = (
(380,0,o),
(481,52,o),
(534,139,o),
(534,193,qs),
(534,259,o),
(460,343,o),
(411,359,q),
(411,366,l),
(452,382,o),
(518,461,o),
(518,522,qs),
(518,600,o),
(408,700,o),
(299,700,qs),
(66,700,l),
(66,0,l),
(307,0,ls)
);
},
{
closed = 1;
nodes = (
(290,624,ls),
(361,624,o),
(431,566,o),
(431,513,qs),
(431,457,o),
(360,398,o),
(293,398,qs),
(150,398,l),
(150,624,l)
);
},
{
closed = 1;
nodes = (
(296,325,ls),
(366,325,o),
(448,260,o),
(448,201,qs),
(448,142,o),
(370,77,o),
(298,77,qs),
(150,77,l),
(150,325,l)
);
}
);
userData = {
assembly = "NPUSHB[ ]	/* 54 values pushed */
8 1 5 2 1 76 0 2 0 5 4 2 5 103 0 3 3 0 95 0 0 0 28 77 0 4 4 1 95 6 1 1 1 29 1 78 0 0 34 32 28 26 25 23 19 17 0 16 0 15 33 7 8 23 
CALL[ ]	/* CallFunction */";
};
width = 600;
}
);
note = B;
unicode = 66;
},
{
glyphname = C;
layers = (
{
layerId = m01;
shapes = (
{
closed = 1;
nodes = (
(540,103,o),
(556,203,q),
(463,203,l),
(453,143,o),
(376,67,o),
(305,67,qs),
(218,67,o),
(118,217,o),
(118,350,qs),
(118,482,o),
(218,633,o),
(305,633,qs),
(373,633,o),
(453,553,o),
(463,494,q),
(556,494,l),
(545,593,o),
(413,712,o),
(305,712,qs),
(220,712,o),
(97,622,o),
(32,459,o),
(32,350,qs),
(32,240,o),
(97,78,o),
(220,-12,o),
(305,-12,qs),
(413,-12,o)
);
}
);
userData = {
assembly = "NPUSHB[ ]	/* 56 values pushed */
0 2 3 5 3 2 5 128 0 5 4 3 5 4 126 0 3 3 1 97 0 1 1 34 77 0 4 4 0 97 6 1 0 0 35 0 78 1 0 25 24 22 20 16 14 12 11 9 7 0 27 1 27 7 8 22 
CALL[ ]	/* CallFunction */";
};
width = 600;
}
);
note = C;
unicode = 67;
},
{
glyphname = D;
layers = (
{
layerId = m01;
shapes = (
{
closed = 1;
nodes = (
(385,0,o),
(550,188,o),
(550,350,qs),
(550,512,o),
(385,700,o),
(213,700,qs),
(66,700,l),
(66,0,l),
(213,0,ls)
);
},
{
closed = 1;
nodes = (
(211,623,ls),
(303,623,o),
(414,555,o),
(464,433,o),
(464,350,qs),
(464,267,o),
(414,145,o),
(303,77,o),
(211,77,qs),
(150,77,l),
(150,623,l)
);
}
);
userData = {
assembly = "NPUSHB[ ]	/* 36 values pushed */
0 3 3 0 95 0 0 0 28 77 0 2 2 1 95 4 1 1 1 29 1 78 0 0 19 17 11 9 0 8 0 7 33 5 8 23 
CALL[ ]	/* CallFunction */";
};
width = 600;
}
);
note = D;
unicode = 68;
},
{
glyphname = Eth;
layers = (
{
layerId = m01;
shapes = (
{
closed = 1;
nodes = (
(385,0,o),
(550,188,o),
(550,350,qs),
(550,512,o),
(385,700,o),
(213,700,qs),
(86,700,l),
(86,386,l),
(7,386,l),
(7,314,l),
(86,314,l),
(86,0,l),
(213,0,ls)
);
},
{
closed = 1;
nodes = (
(313,314,l),
(313,386,l),
(170,386,l),
(170,623,l),
(211,623,ls),
(303,623,o),
(414,555,o),
(464,433,o),
(464,350,qs),
(464,267,o),
(414,145,o),
(303,77,o),
(211,77,qs),
(170,77,l),
(170,314,l)
);
}
);
userData = {
assembly = "NPUSHB[ ]	/* 52 values pushed */
6 1 1 7 1 0 4 1 0 103 0 5 5 2 95 0 2 2 28 77 0 4 4 3 95 8 1 3 3 29 3 78 0 0 27 26 25 24 23 21 15 13 0 12 0 11 33 17 17 9 8 25 
CALL[ ]	/* CallFunction */";
};
width = 600;
}
);
note = Eth;
unicode = 208;
},
{
glyphname = E;
layers = (
{
layerId = m01;
shapes = (
{
closed = 1;
nodes = (
(523,76,l),
(170,76,l),
(170,315,l),
(493,315,l),
(493,391,l),
(170,391,l),
(170,624,l),
(523,624,l),
(523,700,l),
(86,700,l),
(86,0,l),
(523,0,l)
);
}
);
userData = {
assembly = "NPUSHB[ ]	/* 44 values pushed */
0 2 0 3 4 2 3 103 0 1 1 0 95 0 0 0 28 77 0 4 4 5 95 6 1 5 5 29 5 78 0 0 0 11 0 11 17 17 17 17 17 7 8 27 
CALL[ ]	/* CallFunction */";
};
width = 600;
}
);
note = E;
unicode = 69;
},
{
glyphname = F;
layers = (
{
layerId = m01;
shapes = (
{
closed = 1;
nodes = (
(175,303,l),
(477,303,l),
(477,378,l),
(175,378,l),
(175,622,l),
(528,622,l),
(528,700,l),
(91,700,l),
(91,0,l),
(175,0,l)
);
}
);
userData = {
assembly = "NPUSHB[ ]	/* 38 values pushed */
0 2 0 3 4 2 3 103 0 1 1 0 95 0 0 0 28 77 5 1 4 4 29 4 78 0 0 0 9 0 9 17 17 17 17 6 8 26 
CALL[ ]	/* CallFunction */";
};
width = 600;
}
);
note = F;
unicode = 70;
},
{
glyphname = G;
layers = (
{
layerId = m01;
shapes = (
{
closed = 1;
nodes = (
(444,52,o),
(465,106,q),
(469,106,l),
(476,0,l),
(553,0,l),
(553,367,l),
(311,367,l),
(311,295,l),
(467,295,l),
(465,239,o),
(428,134,o),
(356,67,o),
(300,67,qs),
(222,67,o),
(124,215,o),
(124,350,qs),
(124,483,o),
(222,633,o),
(308,633,qs),
(368,633,o),
(441,558,o),
(451,498,q),
(544,498,l),
(532,596,o),
(407,712,o),
(308,712,qs),
(225,712,o),
(104,624,o),
(38,462,o),
(38,350,qs),
(38,237,o),
(103,75,o),
(219,-12,o),
(293,-12,qs),
(363,-12,o)
);
}
);
userData = {
assembly = "PUSHB[ ]	/* 6 values pushed */
31 1 4 5 1 76 
MPPEM[ ]	/* MeasurePixelPerEm */
PUSHB[ ]	/* 1 value pushed */
21 
LT[ ]	/* LessThan */
IF[ ]	/* If */
NPUSHB[ ]	/* 39 values pushed */
0 2 3 6 3 2 6 128 0 6 0 5 4 6 5 103 0 3 3 1 97 0 1 1 34 77 0 4 4 0 97 7 8 2 0 0 35 0 78 
ELSE[ ]	/* Else */
NPUSHB[ ]	/* 43 values pushed */
0 2 3 6 3 2 6 128 0 6 0 5 4 6 5 103 0 3 3 1 97 0 1 1 34 77 0 7 7 29 77 0 4 4 0 97 8 1 0 0 35 0 78 
EIF[ ]	/* EndIf */
NPUSHB[ ]	/* 23 values pushed */
1 0 30 29 28 27 26 25 22 20 16 14 12 11 9 7 0 34 1 34 9 8 22 
CALL[ ]	/* CallFunction */";
};
width = 600;
}
);
note = G;
unicode = 71;
},
{
glyphname = H;
layers = (
{
layerId = m01;
shapes = (
{
closed = 1;
nodes = (
(131,322,l),
(470,322,l),
(470,0,l),
(554,0,l),
(554,700,l),
(470,700,l),
(470,398,l),
(131,398,l),
(131,700,l),
(47,700,l),
(47,0,l),
(131,0,l)
);
}
);
userData = {
assembly = "NPUSHB[ ]	/* 36 values pushed */
0 1 0 4 3 1 4 103 2 1 0 0 28 77 6 5 2 3 3 29 3 78 0 0 0 11 0 11 17 17 17 17 17 7 8 27 
CALL[ ]	/* CallFunction */";
};
width = 600;
}
);
note = H;
unicode = 72;
},
{
glyphname = I;
layers = (
{
layerId = m01;
shapes = (
{
closed = 1;
nodes = (
(501,73,l),
(342,73,l),
(342,627,l),
(501,627,l),
(501,700,l),
(99,700,l),
(99,627,l),
(258,627,l),
(258,73,l),
(99,73,l),
(99,0,l),
(501,0,l)
);
}
);
userData = {
assembly = "NPUSHB[ ]	/* 38 values pushed */
3 1 1 1 2 95 0 2 2 28 77 4 1 0 0 5 95 6 1 5 5 29 5 78 0 0 0 11 0 11 17 17 17 17 17 7 8 27 
CALL[ ]	/* CallFunction */";
};
width = 600;
}
);
note = I;
unicode = 73;
},
{
glyphname = J;
layers = (
{
layerId = m01;
shapes = (
{
closed = 1;
nodes = (
(514,101,o),
(514,206,qs),
(514,700,l),
(430,700,l),
(430,206,ls),
(430,146,o),
(373,66,o),
(307,66,qs),
(241,66,o),
(181,149,o),
(180,208,q),
(95,208,l),
(95,105,o),
(205,-12,o),
(308,-12,qs),
(406,-12,o)
);
}
);
userData = {
assembly = "NPUSHB[ ]	/* 40 values pushed */
0 1 3 2 3 1 2 128 0 3 3 28 77 0 2 2 0 97 4 1 0 0 35 0 78 1 0 12 11 8 6 4 3 0 15 1 15 5 8 22 
CALL[ ]	/* CallFunction */";
};
width = 600;
}
);
note = J;
unicode = 74;
},
{
glyphname = K;
layers = (
{
layerId = m01;
shapes = (
{
closed = 1;
nodes = (
(166,321,l),
(442,0,l),
(551,0,l),
(252,348,l),
(252,352,l),
(547,700,l),
(440,700,l),
(166,374,l),
(166,700,l),
(82,700,l),
(82,0,l),
(166,0,l)
);
}
);
userData = {
assembly = "NPUSHB[ ]	/* 34 values pushed */
10 6 3 3 2 0 1 76 1 1 0 0 28 77 4 3 2 2 2 29 2 78 0 0 0 11 0 11 19 18 17 5 8 25 
CALL[ ]	/* CallFunction */";
};
width = 600;
}
);
note = K;
unicode = 75;
},
{
glyphname = L;
layers = (
{
layerId = m01;
shapes = (
{
closed = 1;
nodes = (
(526,76,l),
(171,76,l),
(171,700,l),
(87,700,l),
(87,0,l),
(526,0,l)
);
}
);
userData = {
assembly = "NPUSHB[ ]	/* 28 values pushed */
0 0 0 28 77 0 1 1 2 96 3 1 2 2 29 2 78 0 0 0 5 0 5 17 17 4 8 24 
CALL[ ]	/* CallFunction */";
};
width = 600;
}
);
note = L;
unicode = 76;
},
{
glyphname = Ldot;
layers = (
{
layerId = m01;
shapes = (
{
closed = 1;
nodes = (
(526,76,l),
(171,76,l),
(171,700,l),
(87,700,l),
(87,0,l),
(526,0,l)
);
},
{
closed = 1;
nodes = (
(510,320,o),
(510,349,qs),
(510,378,o),
(467,420,o),
(437,420,qs),
(407,420,o),
(365,378,o),
(365,349,qs),
(365,320,o),
(407,278,o),
(437,278,qs),
(467,278,o)
);
}
);
userData = {
assembly = "NPUSHB[ ]	/* 45 values pushed */
0 4 6 1 3 1 4 3 105 0 0 0 28 77 0 1 1 2 96 5 1 2 2 29 2 78 7 6 0 0 13 11 6 17 7 17 0 5 0 5 17 17 7 8 24 
CALL[ ]	/* CallFunction */";
};
width = 600;
}
);
note = Ldot;
unicode = 319;
},
{
glyphname = Lslash;
layers = (
{
layerId = m01;
shapes = (
{
closed = 1;
nodes = (
(552,76,l),
(197,76,l),
(197,277,l),
(328,330,l),
(328,404,l),
(197,351,l),
(197,700,l),
(113,700,l),
(113,318,l),
(20,281,l),
(20,207,l),
(113,244,l),
(113,0,l),
(552,0,l)
);
}
);
userData = {
assembly = "NPUSHB[ ]	/* 41 values pushed */
10 9 8 7 4 3 2 1 8 1 0 1 76 0 0 0 28 77 0 1 1 2 96 3 1 2 2 29 2 78 0 0 0 13 0 13 21 21 4 8 24 
CALL[ ]	/* CallFunction */";
};
width = 600;
}
);
note = Lslash;
unicode = 321;
},
{
glyphname = M;
layers = (
{
layerId = m01;
shapes = (
{
closed = 1;
nodes = (
(132,537,l),
(268,255,l),
(332,255,l),
(468,538,l),
(468,0,l),
(550,0,l),
(550,700,l),
(460,700,l),
(300,367,l),
(140,700,l),
(50,700,l),
(50,0,l),
(132,0,l)
);
}
);
userData = {
assembly = "NPUSHB[ ]	/* 43 values pushed */
11 8 3 3 3 0 1 76 0 3 0 2 0 3 2 128 1 1 0 0 28 77 5 4 2 2 2 29 2 78 0 0 0 12 0 12 18 17 18 17 6 8 26 
CALL[ ]	/* CallFunction */";
};
width = 600;
}
);
note = M;
unicode = 77;
},
{
glyphname = N;
layers = (
{
layerId = m01;
shapes = (
{
closed = 1;
nodes = (
(139,553,l),
(457,0,l),
(544,0,l),
(544,700,l),
(461,700,l),
(461,147,l),
(143,700,l),
(57,700,l),
(57,0,l),
(139,0,l)
);
}
);
userData = {
assembly = "NPUSHB[ ]	/* 33 values pushed */
8 3 2 2 0 1 76 1 1 0 0 28 77 4 3 2 2 2 29 2 78 0 0 0 9 0 9 17 18 17 5 8 25 
CALL[ ]	/* CallFunction */";
};
width = 600;
}
);
note = N;
unicode = 78;
},
{
glyphname = O;
layers = (
{
layerId = m01;
shapes = (
{
closed = 1;
nodes = (
(507,78,o),
(572,241,o),
(572,350,qs),
(572,459,o),
(507,622,o),
(385,712,o),
(300,712,qs),
(215,712,o),
(93,622,o),
(28,459,o),
(28,350,qs),
(28,241,o),
(93,78,o),
(215,-12,o),
(300,-12,qs),
(385,-12,o)
);
},
{
closed = 1;
nodes = (
(114,215,o),
(114,350,qs),
(114,485,o),
(216,633,o),
(300,633,qs),
(383,633,o),
(486,485,o),
(486,350,qs),
(486,215,o),
(383,67,o),
(300,67,qs),
(216,67,o)
);
}
);
userData = {
assembly = "NPUSHB[ ]	/* 42 values pushed */
0 3 3 1 97 0 1 1 34 77 5 1 2 2 0 97 4 1 0 0 35 0 78 17 16 1 0 23 21 16 27 17 27 9 7 0 15 1 15 6 8 22 
CALL[ ]	/* CallFunction */";
};
width = 600;
}
);
note = O;
unicode = 79;
},
{
glyphname = Oslash;
layers = (
{
layerId = m01;
shapes = (
{
closed = 1;
nodes = (
(148,38,l),
(212,-12,o),
(300,-12,qs),
(385,-12,o),
(507,78,o),
(572,241,o),
(572,350,qs),
(572,510,o),
(504,607,q),
(574,720,l),
(489,720,l),
(453,661,l),
(388,712,o),
(300,712,qs),
(215,712,o),
(93,622,o),
(28,459,o),
(28,350,qs),
(28,189,o),
(97,92,q),
(27,-20,l),
(112,-20,l)
);
},
{
closed = 1;
nodes = (
(216,633,o),
(300,633,qs),
(363,633,o),
(408,590,q),
(147,173,l),
(131,207,o),
(114,296,o),
(114,350,qs),
(114,485,o)
);
},
{
closed = 1;
nodes = (
(193,109,q),
(453,526,l),
(469,492,o),
(486,404,o),
(486,350,qs),
(486,215,o),
(383,67,o),
(300,67,qs),
(237,67,o)
);
}
);
userData = {
assembly = "NPUSHB[ ]	/* 19 values pushed */
9 1 4 0 38 37 26 25 12 1 6 5 4 20 1 2 5 3 76 
MPPEM[ ]	/* MeasurePixelPerEm */
PUSHB[ ]	/* 1 value pushed */
29 
LT[ ]	/* LessThan */
IF[ ]	/* If */
NPUSHB[ ]	/* 25 values pushed */
0 4 4 0 97 1 1 0 0 34 77 7 1 5 5 2 97 6 3 2 2 2 35 2 78 
ELSE[ ]	/* Else */
NPUSHB[ ]	/* 33 values pushed */
6 1 3 2 3 134 0 1 1 30 77 0 4 4 0 97 0 0 0 34 77 7 1 5 5 2 97 0 2 2 35 2 78 
EIF[ ]	/* EndIf */
NPUSHB[ ]	/* 20 values pushed */
32 31 0 0 31 39 32 39 29 27 0 21 0 21 38 18 38 8 8 25 
CALL[ ]	/* CallFunction */";
};
width = 600;
}
);
note = Oslash;
unicode = 216;
},
{
glyphname = OE;
layers = (
{
layerId = m01;
shapes = (
{
closed = 1;
nodes = (
(292,28,o),
(310,66,q),
(314,66,l),
(314,0,l),
(590,0,l),
(590,76,l),
(397,76,l),
(397,315,l),
(560,315,l),
(560,391,l),
(397,391,l),
(397,624,l),
(590,624,l),
(590,700,l),
(314,700,l),
(314,643,l),
(310,643,l),
(291,679,o),
(235,712,o),
(197,712,qs),
(145,712,o),
(65,639,o),
(21,479,o),
(21,350,qs),
(21,221,o),
(65,61,o),
(144,-12,o),
(197,-12,qs),
(241,-12,o)
);
},
{
closed = 1;
nodes = (
(104,194,o),
(104,350,qs),
(104,506,o),
(157,636,o),
(209,636,qs),
(260,636,o),
(319,506,o),
(319,350,qs),
(319,194,o),
(260,64,o),
(209,64,qs),
(157,64,o)
);
}
);
userData = {
assembly = "MPPEM[ ]	/* MeasurePixelPerEm */
PUSHB[ ]	/* 1 value pushed */
21 
LT[ ]	/* LessThan */
IF[ ]	/* If */
NPUSHB[ ]	/* 10 values pushed */
11 1 3 1 25 1 0 6 2 76 
ELSE[ ]	/* Else */
NPUSHB[ ]	/* 10 values pushed */
11 1 9 2 25 1 8 6 2 76 
EIF[ ]	/* EndIf */
MPPEM[ ]	/* MeasurePixelPerEm */
PUSHB[ ]	/* 1 value pushed */
21 
LT[ ]	/* LessThan */
IF[ ]	/* If */
NPUSHB[ ]	/* 35 values pushed */
0 4 0 5 6 4 5 103 9 1 3 3 1 97 2 1 1 1 34 77 11 8 2 6 6 0 97 7 10 2 0 0 35 0 78 
ELSE[ ]	/* Else */
NPUSHB[ ]	/* 51 values pushed */
0 4 0 5 6 4 5 103 0 9 9 1 97 0 1 1 34 77 0 3 3 2 95 0 2 2 28 77 0 6 6 7 95 0 7 7 29 77 11 1 8 8 0 97 10 1 0 0 35 0 78 
EIF[ ]	/* EndIf */
NPUSHB[ ]	/* 31 values pushed */
30 29 1 0 36 34 29 40 30 40 24 23 22 21 20 19 18 17 16 15 14 13 9 7 0 28 1 28 12 8 22 
CALL[ ]	/* CallFunction */";
};
width = 600;
}
);
note = OE;
unicode = 338;
},
{
glyphname = P;
layers = (
{
layerId = m01;
shapes = (
{
closed = 1;
nodes = (
(158,276,l),
(307,276,ls),
(387,276,o),
(489,334,o),
(537,430,o),
(537,488,qs),
(537,546,o),
(489,642,o),
(387,700,o),
(307,700,qs),
(74,700,l),
(74,0,l),
(158,0,l)
);
},
{
closed = 1;
nodes = (
(305,624,ls),
(379,624,o),
(451,548,o),
(451,488,qs),
(451,428,o),
(379,353,o),
(305,353,qs),
(158,353,l),
(158,624,l)
);
}
);
userData = {
assembly = "NPUSHB[ ]	/* 40 values pushed */
0 3 0 1 2 3 1 103 0 4 4 0 95 0 0 0 28 77 5 1 2 2 29 2 78 0 0 21 19 15 13 0 12 0 12 38 33 6 8 24 
CALL[ ]	/* CallFunction */";
};
width = 600;
}
);
note = P;
unicode = 80;
},
{
glyphname = Thorn;
layers = (
{
layerId = m01;
shapes = (
{
closed = 1;
nodes = (
(158,138,l),
(307,138,ls),
(387,138,o),
(489,196,o),
(537,292,o),
(537,350,qs),
(537,408,o),
(489,504,o),
(387,562,o),
(307,562,qs),
(158,562,l),
(158,700,l),
(74,700,l),
(74,0,l),
(158,0,l)
);
},
{
closed = 1;
nodes = (
(305,486,ls),
(379,486,o),
(451,410,o),
(451,350,qs),
(451,290,o),
(379,214,o),
(305,214,qs),
(158,214,l),
(158,486,l)
);
}
);
userData = {
assembly = "NPUSHB[ ]	/* 44 values pushed */
0 1 0 5 4 1 5 103 0 4 0 2 3 4 2 103 0 0 0 28 77 6 1 3 3 29 3 78 0 0 23 21 17 15 0 14 0 14 38 33 17 7 8 25 
CALL[ ]	/* CallFunction */";
};
width = 600;
}
);
note = Thorn;
unicode = 222;
},
{
glyphname = Q;
layers = (
{
layerId = m01;
shapes = (
{
closed = 1;
nodes = (
(321,-11,q),
(449,-149,l),
(559,-149,l),
(409,11,l),
(486,48,o),
(572,225,o),
(572,350,qs),
(572,459,o),
(507,622,o),
(385,712,o),
(300,712,qs),
(215,712,o),
(93,622,o),
(28,459,o),
(28,350,qs),
(28,241,o),
(93,78,o),
(215,-12,o),
(300,-12,qs),
(310,-12,o)
);
},
{
closed = 1;
nodes = (
(114,215,o),
(114,350,qs),
(114,485,o),
(216,633,o),
(300,633,qs),
(383,633,o),
(486,485,o),
(486,350,qs),
(486,215,o),
(383,67,o),
(300,67,qs),
(216,67,o)
);
}
);
userData = {
assembly = "NPUSHB[ ]	/* 55 values pushed */
15 1 0 3 1 76 0 2 0 2 134 0 4 4 1 97 0 1 1 34 77 6 1 3 3 0 97 5 1 0 0 35 0 78 21 20 1 0 27 25 20 31 21 31 17 16 9 7 0 19 1 19 7 8 22 
CALL[ ]	/* CallFunction */";
};
width = 600;
}
);
note = Q;
unicode = 81;
},
{
glyphname = R;
layers = (
{
layerId = m01;
shapes = (
{
closed = 1;
nodes = (
(166,287,l),
(297,287,l),
(302,287,l),
(443,0,l),
(543,0,l),
(391,299,l),
(464,320,o),
(535,425,o),
(535,494,qs),
(535,553,o),
(483,646,o),
(378,700,o),
(297,700,qs),
(82,700,l),
(82,0,l),
(166,0,l)
);
},
{
closed = 1;
nodes = (
(293,624,ls),
(376,624,o),
(449,554,o),
(449,494,qs),
(449,437,o),
(374,364,o),
(294,364,qs),
(166,364,l),
(166,624,l)
);
}
);
userData = {
assembly = "NPUSHB[ ]	/* 48 values pushed */
9 1 2 4 1 76 0 4 0 2 1 4 2 103 0 5 5 0 95 0 0 0 28 77 6 3 2 1 1 29 1 78 0 0 24 22 18 16 0 15 0 15 33 23 33 7 8 25 
CALL[ ]	/* CallFunction */";
};
width = 600;
}
);
note = R;
unicode = 82;
},
{
glyphname = S;
layers = (
{
layerId = m01;
shapes = (
{
closed = 1;
nodes = (
(480,39,o),
(538,127,o),
(538,184,qs),
(538,242,o),
(491,320,o),
(404,373,o),
(343,393,qs),
(278,415,o),
(202,454,o),
(169,502,o),
(169,537,qs),
(169,583,o),
(243,636,o),
(298,636,qs),
(344,636,o),
(404,600,o),
(434,546,o),
(434,518,q),
(522,518,l),
(522,575,o),
(467,663,o),
(368,712,o),
(302,712,qs),
(232,712,o),
(134,666,o),
(82,586,o),
(82,536,qs),
(82,462,o),
(170,362,o),
(266,333,qs),
(334,311,o),
(415,270,o),
(451,217,o),
(451,178,qs),
(451,131,o),
(376,64,o),
(307,64,qs),
(232,64,o),
(153,151,o),
(152,211,q),
(64,211,l),
(65,144,o),
(124,44,o),
(233,-12,o),
(307,-12,qs),
(376,-12,o)
);
}
);
userData = {
assembly = "NPUSHB[ ]	/* 56 values pushed */
0 4 5 1 5 4 1 128 0 1 2 5 1 2 126 0 5 5 3 97 0 3 3 34 77 0 2 2 0 97 6 1 0 0 35 0 78 1 0 32 30 27 26 23 21 9 7 5 4 0 45 1 45 7 8 22 
CALL[ ]	/* CallFunction */";
};
width = 600;
}
);
note = S;
unicode = 83;
},
{
glyphname = uni018F;
layers = (
{
layerId = m01;
shapes = (
{
closed = 1;
nodes = (
(500,77,o),
(570,242,o),
(570,355,qs),
(570,465,o),
(504,625,o),
(382,712,o),
(297,712,qs),
(226,712,o),
(124,655,o),
(62,563,o),
(50,508,q),
(137,508,l),
(151,565,o),
(236,633,o),
(297,633,qs),
(344,633,o),
(427,576,o),
(480,464,o),
(483,379,q),
(41,379,l),
(40,365,o),
(39,341,o),
(39,331,qs),
(39,262,o),
(67,139,o),
(127,43,o),
(221,-12,o),
(287,-12,qs),
(373,-12,o)
);
},
{
closed = 1;
nodes = (
(127,195,o),
(125,304,q),
(483,304,l),
(478,228,o),
(425,121,o),
(340,66,o),
(289,66,qs),
(206,66,o)
);
}
);
userData = {
assembly = "NPUSHB[ ]	/* 64 values pushed */
0 3 2 1 2 3 1 128 0 1 0 6 5 1 6 103 0 2 2 4 97 0 4 4 34 77 8 1 5 5 0 97 7 1 0 0 35 0 78 30 29 1 0 34 33 29 36 30 36 22 20 17 16 14 12 9 8 0 28 1 28 9 8 22 
CALL[ ]	/* CallFunction */";
};
width = 600;
}
);
note = uni018F;
unicode = 399;
},
{
glyphname = T;
layers = (
{
layerId = m01;
shapes = (
{
closed = 1;
nodes = (
(342,624,l),
(530,624,l),
(530,700,l),
(70,700,l),
(70,624,l),
(258,624,l),
(258,0,l),
(342,0,l)
);
}
);
userData = {
assembly = "NPUSHB[ ]	/* 30 values pushed */
2 1 0 0 1 95 0 1 1 28 77 4 1 3 3 29 3 78 0 0 0 7 0 7 17 17 17 5 8 25 
CALL[ ]	/* CallFunction */";
};
width = 600;
}
);
note = T;
unicode = 84;
},
{
glyphname = U;
layers = (
{
layerId = m01;
shapes = (
{
closed = 1;
nodes = (
(479,46,o),
(543,165,o),
(543,255,qs),
(543,700,l),
(459,700,l),
(459,252,ls),
(459,162,o),
(373,64,o),
(301,64,qs),
(229,64,o),
(141,162,o),
(141,252,qs),
(141,700,l),
(57,700,l),
(57,255,ls),
(57,165,o),
(120,46,o),
(229,-12,o),
(299,-12,qs),
(369,-12,o)
);
}
);
userData = {
assembly = "NPUSHB[ ]	/* 33 values pushed */
3 1 1 1 28 77 0 2 2 0 97 4 1 0 0 35 0 78 1 0 15 14 11 9 6 5 0 19 1 19 5 8 22 
CALL[ ]	/* CallFunction */";
};
width = 600;
}
);
note = U;
unicode = 85;
},
{
glyphname = V;
layers = (
{
layerId = m01;
shapes = (
{
closed = 1;
nodes = (
(574,700,l),
(483,700,l),
(300,109,l),
(117,700,l),
(27,700,l),
(250,0,l),
(350,0,l)
);
}
);
userData = {
assembly = "NPUSHB[ ]	/* 30 values pushed */
3 1 2 0 1 76 1 1 0 0 28 77 3 1 2 2 29 2 78 0 0 0 6 0 6 18 17 4 8 24 
CALL[ ]	/* CallFunction */";
};
width = 600;
}
);
note = V;
unicode = 86;
},
{
glyphname = W;
layers = (
{
layerId = m01;
shapes = (
{
closed = 1;
nodes = (
(300,538,l),
(395,0,l),
(491,0,l),
(598,700,l),
(513,700,l),
(442,160,l),
(343,700,l),
(257,700,l),
(158,160,l),
(87,700,l),
(2,700,l),
(109,0,l),
(205,0,l)
);
}
);
userData = {
assembly = "NPUSHB[ ]	/* 36 values pushed */
11 6 3 3 3 0 1 76 2 1 2 0 0 28 77 5 4 2 3 3 29 3 78 0 0 0 12 0 12 17 18 18 17 6 8 26 
CALL[ ]	/* CallFunction */";
};
width = 600;
}
);
note = W;
unicode = 87;
},
{
glyphname = X;
layers = (
{
layerId = m01;
shapes = (
{
closed = 1;
nodes = (
(297,275,l),
(463,0,l),
(559,0,l),
(347,351,l),
(559,700,l),
(463,700,l),
(302,426,l),
(137,700,l),
(41,700,l),
(252,350,l),
(41,0,l),
(137,0,l)
);
}
);
userData = {
assembly = "NPUSHB[ ]	/* 35 values pushed */
10 7 4 1 4 2 0 1 76 1 1 0 0 28 77 4 3 2 2 2 29 2 78 0 0 0 11 0 11 18 18 18 5 8 25 
CALL[ ]	/* CallFunction */";
};
width = 600;
}
);
note = X;
unicode = 88;
},
{
glyphname = Y;
layers = (
{
layerId = m01;
shapes = (
{
closed = 1;
nodes = (
(342,275,l),
(569,700,l),
(474,700,l),
(300,360,l),
(126,700,l),
(31,700,l),
(258,275,l),
(258,0,l),
(342,0,l)
);
}
);
userData = {
assembly = "NPUSHB[ ]	/* 32 values pushed */
7 4 1 3 2 0 1 76 1 1 0 0 28 77 3 1 2 2 29 2 78 0 0 0 8 0 8 18 18 4 8 24 
CALL[ ]	/* CallFunction */";
};
width = 600;
}
);
note = Y;
unicode = 89;
},
{
glyphname = Z;
layers = (
{
layerId = m01;
shapes = (
{
closed = 1;
nodes = (
(532,76,l),
(165,76,l),
(528,631,l),
(528,700,l),
(74,700,l),
(74,624,l),
(431,624,l),
(69,69,l),
(69,0,l),
(532,0,l)
);
}
);
userData = {
assembly = "NPUSHB[ ]	/* 44 values pushed */
6 1 0 1 1 1 3 2 2 76 0 0 0 1 95 0 1 1 28 77 0 2 2 3 95 4 1 3 3 29 3 78 0 0 0 9 0 9 18 17 18 5 8 25 
CALL[ ]	/* CallFunction */";
};
width = 600;
}
);
note = Z;
unicode = 90;
},
{
glyphname = a;
layers = (
{
layerId = m01;
shapes = (
{
closed = 1;
nodes = (
(399,41,o),
(421,77,q),
(428,77,l),
(435,0,l),
(507,0,l),
(507,305,ls),
(507,397,o),
(410,508,o),
(304,508,qs),
(248,508,o),
(158,470,o),
(101,398,o),
(96,348,q),
(182,348,l),
(191,393,o),
(256,435,o),
(304,435,qs),
(423,435,o),
(423,305,qs),
(423,295,l),
(287,295,ls),
(194,295,o),
(83,216,o),
(83,140,qs),
(83,99,o),
(121,30,o),
(199,-12,o),
(258,-12,qs),
(326,-12,o)
);
},
{
closed = 1;
nodes = (
(171,106,o),
(171,145,qs),
(171,183,o),
(226,229,o),
(294,229,qs),
(423,229,l),
(423,184,o),
(388,108,o),
(321,62,o),
(273,62,qs),
(223,62,o)
);
}
);
userData = {
assembly = "PUSHB[ ]	/* 6 values pushed */
25 1 6 7 1 76 
MPPEM[ ]	/* MeasurePixelPerEm */
PUSHB[ ]	/* 1 value pushed */
21 
LT[ ]	/* LessThan */
IF[ ]	/* If */
NPUSHB[ ]	/* 40 values pushed */
0 3 2 1 2 3 1 128 0 1 0 7 6 1 7 103 0 2 2 4 97 0 4 4 37 77 9 1 6 6 0 97 5 8 2 0 0 35 0 78 
ELSE[ ]	/* Else */
NPUSHB[ ]	/* 44 values pushed */
0 3 2 1 2 3 1 128 0 1 0 7 6 1 7 103 0 2 2 4 97 0 4 4 37 77 0 5 5 29 77 9 1 6 6 0 97 8 1 0 0 35 0 78 
EIF[ ]	/* EndIf */
NPUSHB[ ]	/* 27 values pushed */
30 29 1 0 35 33 29 39 30 39 24 23 20 18 15 14 12 10 8 6 0 28 1 28 10 8 22 
CALL[ ]	/* CallFunction */";
};
width = 600;
}
);
note = a;
unicode = 97;
},
{
glyphname = ae;
layers = (
{
layerId = m01;
shapes = (
{
closed = 1;
nodes = (
(277,36,o),
(294,81,q),
(297,81,l),
(310,44,o),
(376,-12,o),
(422,-12,qs),
(494,-12,o),
(568,83,o),
(576,152,q),
(497,152,l),
(480,65,o),
(426,65,qs),
(391,65,o),
(342,147,o),
(340,230,q),
(586,230,l),
(586,241,o),
(588,268,o),
(588,279,qs),
(588,389,o),
(509,508,o),
(429,508,qs),
(387,508,o),
(326,467,o),
(307,437,q),
(292,470,o),
(231,508,o),
(184,508,qs),
(123,508,o),
(38,427,o),
(34,358,q),
(116,358,l),
(118,396,o),
(156,435,o),
(186,435,qs),
(219,435,o),
(258,391,o),
(258,345,qs),
(258,299,l),
(203,299,ls),
(121,299,o),
(18,215,o),
(18,135,qs),
(18,95,o),
(51,29,o),
(112,-12,o),
(156,-12,qs),
(200,-12,o)
);
},
{
closed = 1;
nodes = (
(388,433,o),
(427,433,qs),
(465,433,o),
(504,363,o),
(507,299,q),
(342,299,l),
(345,362,o)
);
},
{
closed = 1;
nodes = (
(104,103,o),
(104,139,qs),
(104,181,o),
(156,230,o),
(210,230,qs),
(258,230,l),
(258,175,ls),
(258,120,o),
(207,62,o),
(171,62,qs),
(138,62,o)
);
}
);
userData = {
assembly = "NPUSHB[ ]	/* 102 values pushed */
22 1 2 4 44 1 7 8 2 76 0 3 2 1 2 3 1 128 0 8 6 7 6 8 7 128 10 1 1 13 1 6 8 1 6 105 11 1 2 2 4 97 5 1 4 4 37 77 15 12 2 7 7 0 97 9 14 2 0 0 35 0 78 56 55 1 0 61 59 55 65 56 65 53 51 49 48 42 40 38 37 36 34 32 31 26 24 20 18 16 15 13 11 8 6 0 47 1 47 16 8 22 
CALL[ ]	/* CallFunction */";
};
width = 600;
}
);
note = ae;
unicode = 230;
},
{
glyphname = b;
layers = (
{
layerId = m01;
shapes = (
{
closed = 1;
nodes = (
(479,48,o),
(535,165,o),
(535,249,qs),
(535,332,o),
(479,448,o),
(381,508,o),
(317,508,qs),
(262,508,o),
(181,458,o),
(162,425,q),
(162,720,l),
(78,720,l),
(78,0,l),
(147,0,l),
(156,76,l),
(162,76,l),
(181,35,o),
(260,-12,o),
(317,-12,qs),
(380,-12,o)
);
},
{
closed = 1;
nodes = (
(161,157,o),
(161,248,qs),
(161,339,o),
(243,428,o),
(306,428,qs),
(369,428,o),
(450,339,o),
(450,248,qs),
(450,157,o),
(369,68,o),
(306,68,qs),
(243,68,o)
);
}
);
userData = {
assembly = "PUSHB[ ]	/* 7 values pushed */
9 3 2 4 5 1 76 
MPPEM[ ]	/* MeasurePixelPerEm */
PUSHB[ ]	/* 1 value pushed */
21 
LT[ ]	/* LessThan */
IF[ ]	/* If */
NPUSHB[ ]	/* 29 values pushed */
0 2 2 30 77 0 5 5 3 97 0 3 3 37 77 7 1 4 4 0 97 1 6 2 0 0 35 0 78 
ELSE[ ]	/* Else */
NPUSHB[ ]	/* 33 values pushed */
0 2 2 30 77 0 5 5 3 97 0 3 3 37 77 0 1 1 29 77 7 1 4 4 0 97 6 1 0 0 35 0 78 
EIF[ ]	/* EndIf */
NPUSHB[ ]	/* 23 values pushed */
21 20 1 0 27 25 20 31 21 31 13 11 8 7 6 5 0 19 1 19 8 8 22 
CALL[ ]	/* CallFunction */";
};
width = 600;
}
);
note = b;
unicode = 98;
},
{
glyphname = c;
layers = (
{
layerId = m01;
shapes = (
{
closed = 1;
nodes = (
(506,78,o),
(525,157,q),
(439,157,l),
(427,116,o),
(362,66,o),
(307,66,qs),
(269,66,o),
(201,106,o),
(159,187,o),
(159,248,qs),
(159,309,o),
(201,389,o),
(269,429,o),
(307,429,qs),
(359,429,o),
(427,380,o),
(439,339,q),
(525,339,l),
(510,416,o),
(400,508,o),
(308,508,qs),
(243,508,o),
(136,446,o),
(74,329,o),
(74,248,qs),
(74,167,o),
(136,50,o),
(241,-12,o),
(308,-12,qs),
(395,-12,o)
);
}
);
userData = {
assembly = "NPUSHB[ ]	/* 56 values pushed */
0 2 3 5 3 2 5 128 0 5 4 3 5 4 126 0 3 3 1 97 0 1 1 37 77 0 4 4 0 97 6 1 0 0 35 0 78 1 0 27 26 24 22 16 14 12 11 9 7 0 29 1 29 7 8 22 
CALL[ ]	/* CallFunction */";
};
width = 600;
}
);
note = c;
unicode = 99;
},
{
glyphname = d;
layers = (
{
layerId = m01;
shapes = (
{
closed = 1;
nodes = (
(418,36,o),
(438,77,q),
(444,77,l),
(453,0,l),
(522,0,l),
(522,720,l),
(438,720,l),
(438,425,l),
(419,462,o),
(342,508,o),
(283,508,qs),
(220,508,o),
(121,448,o),
(65,332,o),
(65,249,qs),
(65,165,o),
(121,48,o),
(220,-12,o),
(283,-12,qs),
(340,-12,o)
);
},
{
closed = 1;
nodes = (
(150,157,o),
(150,248,qs),
(150,339,o),
(231,428,o),
(294,428,qs),
(357,428,o),
(439,339,o),
(439,248,qs),
(439,157,o),
(357,68,o),
(294,68,qs),
(231,68,o)
);
}
);
userData = {
assembly = "PUSHB[ ]	/* 7 values pushed */
16 11 2 4 5 1 76 
MPPEM[ ]	/* MeasurePixelPerEm */
PUSHB[ ]	/* 1 value pushed */
21 
LT[ ]	/* LessThan */
IF[ ]	/* If */
NPUSHB[ ]	/* 29 values pushed */
0 2 2 30 77 0 5 5 1 97 0 1 1 37 77 7 1 4 4 0 97 3 6 2 0 0 35 0 78 
ELSE[ ]	/* Else */
NPUSHB[ ]	/* 33 values pushed */
0 2 2 30 77 0 5 5 1 97 0 1 1 37 77 0 3 3 29 77 7 1 4 4 0 97 6 1 0 0 35 0 78 
EIF[ ]	/* EndIf */
NPUSHB[ ]	/* 23 values pushed */
21 20 1 0 27 25 20 31 21 31 15 14 13 12 9 7 0 19 1 19 8 8 22 
CALL[ ]	/* CallFunction */";
};
width = 600;
}
);
note = d;
unicode = 100;
},
{
glyphname = eth;
layers = (
{
layerId = m01;
shapes = (
{
closed = 1;
nodes = (
(495,59,o),
(556,186,o),
(556,271,qs),
(556,376,o),
(497,550,o),
(440,620,q),
(518,646,l),
(518,708,l),
(396,669,l),
(368,696,o),
(335,720,q),
(230,720,l),
(284,679,o),
(321,644,q),
(211,608,l),
(211,545,l),
(366,596,l),
(400,558,o),
(447,475,o),
(466,425,q),
(461,425,l),
(431,470,o),
(346,507,o),
(298,507,qs),
(230,507,o),
(122,440,o),
(59,322,o),
(59,247,qs),
(59,175,o),
(121,58,o),
(232,-12,o),
(305,-12,qs),
(382,-12,o)
);
},
{
closed = 1;
nodes = (
(190,110,o),
(144,192,o),
(144,248,qs),
(144,304,o),
(190,385,o),
(264,429,o),
(308,429,qs),
(351,429,o),
(425,385,o),
(471,304,o),
(471,248,qs),
(471,192,o),
(425,110,o),
(351,66,o),
(308,66,qs),
(264,66,o)
);
}
);
userData = {
assembly = "NPUSHB[ ]	/* 66 values pushed */
26 25 24 23 18 17 16 15 8 1 2 11 1 3 4 2 76 0 2 2 30 77 0 4 4 1 97 0 1 1 37 77 6 1 3 3 0 97 5 1 0 0 35 0 78 34 33 1 0 42 40 33 48 34 48 21 20 9 7 0 32 1 32 7 8 22 
CALL[ ]	/* CallFunction */";
};
width = 600;
}
);
note = eth;
unicode = 240;
},
{
glyphname = dcroat;
layers = (
{
layerId = m01;
shapes = (
{
closed = 1;
nodes = (
(418,36,o),
(438,77,q),
(444,77,l),
(453,0,l),
(522,0,l),
(522,587,l),
(585,587,l),
(585,656,l),
(522,656,l),
(522,720,l),
(438,720,l),
(438,656,l),
(269,656,l),
(269,587,l),
(438,587,l),
(438,425,l),
(419,462,o),
(342,508,o),
(283,508,qs),
(220,508,o),
(121,448,o),
(65,332,o),
(65,249,qs),
(65,165,o),
(121,48,o),
(220,-12,o),
(283,-12,qs),
(340,-12,o)
);
},
{
closed = 1;
nodes = (
(150,157,o),
(150,248,qs),
(150,339,o),
(231,428,o),
(294,428,qs),
(357,428,o),
(439,339,o),
(439,248,qs),
(439,157,o),
(357,68,o),
(294,68,qs),
(231,68,o)
);
}
);
userData = {
assembly = "PUSHB[ ]	/* 7 values pushed */
24 11 2 8 9 1 76 
MPPEM[ ]	/* MeasurePixelPerEm */
PUSHB[ ]	/* 1 value pushed */
21 
LT[ ]	/* LessThan */
IF[ ]	/* If */
NPUSHB[ ]	/* 39 values pushed */
5 1 3 6 1 2 1 3 2 103 0 4 4 30 77 0 9 9 1 97 0 1 1 37 77 11 1 8 8 0 97 7 10 2 0 0 35 0 78 
ELSE[ ]	/* Else */
NPUSHB[ ]	/* 43 values pushed */
5 1 3 6 1 2 1 3 2 103 0 4 4 30 77 0 9 9 1 97 0 1 1 37 77 0 7 7 29 77 11 1 8 8 0 97 10 1 0 0 35 0 78 
EIF[ ]	/* EndIf */
NPUSHB[ ]	/* 31 values pushed */
29 28 1 0 35 33 28 39 29 39 23 22 21 20 19 18 17 16 15 14 13 12 9 7 0 27 1 27 12 8 22 
CALL[ ]	/* CallFunction */";
};
width = 600;
}
);
note = dcroat;
unicode = 273;
},
{
glyphname = e;
layers = (
{
layerId = m01;
shapes = (
{
closed = 1;
nodes = (
(504,83,o),
(521,152,q),
(438,152,l),
(422,111,o),
(360,65,o),
(305,65,qs),
(266,65,o),
(197,101,o),
(152,174,o),
(149,229,q),
(534,229,l),
(534,243,o),
(535,265,o),
(535,276,qs),
(535,337,o),
(481,443,o),
(379,508,o),
(307,508,qs),
(235,508,o),
(127,443,o),
(66,326,o),
(66,248,qs),
(66,170,o),
(128,53,o),
(235,-12,o),
(305,-12,qs),
(396,-12,o)
);
},
{
closed = 1;
nodes = (
(448,362,o),
(452,300,q),
(150,300,l),
(160,363,o),
(247,433,o),
(305,433,qs),
(367,433,o)
);
}
);
userData = {
assembly = "NPUSHB[ ]	/* 64 values pushed */
0 4 2 3 2 4 3 128 0 6 0 2 4 6 2 103 8 1 5 5 1 97 0 1 1 37 77 0 3 3 0 97 7 1 0 0 35 0 78 28 27 1 0 31 30 27 33 28 33 24 23 21 19 16 15 9 7 0 26 1 26 9 8 22 
CALL[ ]	/* CallFunction */";
};
width = 600;
}
);
note = e;
unicode = 101;
},
{
glyphname = uni0259;
layers = (
{
layerId = m01;
shapes = (
{
closed = 1;
nodes = (
(473,53,o),
(534,170,o),
(534,248,qs),
(534,326,o),
(472,443,o),
(365,508,o),
(295,508,qs),
(204,508,o),
(96,413,o),
(79,344,q),
(162,344,l),
(178,385,o),
(240,431,o),
(295,431,qs),
(334,431,o),
(403,395,o),
(448,322,o),
(451,267,q),
(67,267,l),
(66,253,o),
(66,231,o),
(66,221,qs),
(66,159,o),
(119,53,o),
(221,-12,o),
(293,-12,qs),
(365,-12,o)
);
},
{
closed = 1;
nodes = (
(152,134,o),
(148,196,q),
(450,196,l),
(440,133,o),
(353,63,o),
(295,63,qs),
(233,63,o)
);
}
);
userData = {
assembly = "NPUSHB[ ]	/* 64 values pushed */
0 3 2 1 2 3 1 128 0 1 0 6 5 1 6 103 0 2 2 4 97 0 4 4 37 77 8 1 5 5 0 97 7 1 0 0 35 0 78 28 27 1 0 31 30 27 33 28 33 20 18 16 15 13 11 8 7 0 26 1 26 9 8 22 
CALL[ ]	/* CallFunction */";
};
width = 600;
}
);
note = uni0259;
unicode = 601;
},
{
glyphname = f;
lastChange = "2021-08-13 04:23:09 +0000";
layers = (
{
layerId = m01;
shapes = (
{
closed = 1;
nodes = (
(307,-12,l),
(307,424,l),
(491,424,l),
(491,496,l),
(307,496,l),
(307,575,ls),
(307,613,o),
(340,644,o),
(377,644,qs),
(491,644,l),
(491,720,l),
(372,720,ls),
(297,720,o),
(223,652,o),
(223,575,qs),
(223,496,l),
(100,496,l),
(100,424,l),
(223,424,l),
(223,-12,l)
);
}
);
userData = {
assembly = "NPUSHB[ ]	/* 50 values pushed */
0 4 4 3 95 0 3 3 30 77 6 1 1 1 2 95 5 1 2 2 31 77 0 0 0 7 97 8 1 7 7 33 7 78 0 0 0 27 0 26 17 19 33 35 17 19 33 9 8 29 
CALL[ ]	/* CallFunction */";
};
width = 600;
}
);
note = f;
unicode = 102;
},
{
glyphname = g;
layers = (
{
layerId = m01;
shapes = (
{
closed = 1;
nodes = (
(439,196,o),
(484,279,o),
(484,327,qs),
(484,380,o),
(458,423,q),
(458,430,l),
(551,433,l),
(551,496,l),
(365,496,l),
(331,508,o),
(291,508,qs),
(229,508,o),
(142,458,o),
(96,375,o),
(96,327,qs),
(96,254,o),
(144,204,q),
(99,148,ls),
(71,113,o),
(84,41,o),
(113,23,q),
(91,4,o),
(62,-45,o),
(62,-74,qs),
(62,-154,o),
(188,-232,o),
(292,-232,qs),
(372,-232,o),
(471,-185,o),
(517,-109,o),
(517,-64,qs),
(517,11,o),
(407,80,o),
(318,80,qs),
(187,80,ls),
(164,80,o),
(153,109,o),
(164,124,qs),
(198,165,l),
(239,146,o),
(291,146,qs),
(352,146,o)
);
},
{
closed = 1;
nodes = (
(177,276,o),
(177,327,qs),
(177,378,o),
(241,435,o),
(291,435,qs),
(340,435,o),
(403,378,o),
(403,327,qs),
(403,276,o),
(340,218,o),
(291,218,qs),
(241,218,o)
);
},
{
closed = 1;
nodes = (
(190,11,q),
(303,11,ls),
(378,11,o),
(434,-34,o),
(434,-67,qs),
(434,-109,o),
(355,-159,o),
(292,-159,qs),
(227,-159,o),
(145,-115,o),
(145,-71,qs),
(145,-22,o)
);
}
);
userData = {
assembly = "NPUSHB[ ]	/* 11 values pushed */
24 2 2 0 6 20 1 9 1 2 76 
MPPEM[ ]	/* MeasurePixelPerEm */
PUSHB[ ]	/* 1 value pushed */
21 
LT[ ]	/* LessThan */
IF[ ]	/* If */
NPUSHB[ ]	/* 43 values pushed */
11 1 6 10 1 0 1 6 0 105 7 1 5 5 3 97 4 1 3 3 37 77 0 1 1 9 95 0 9 9 29 77 0 8 8 2 97 0 2 2 39 2 78 
ELSE[ ]	/* Else */
MPPEM[ ]	/* MeasurePixelPerEm */
PUSHB[ ]	/* 1 value pushed */
45 
LT[ ]	/* LessThan */
IF[ ]	/* If */
NPUSHB[ ]	/* 53 values pushed */
11 1 6 10 1 0 1 6 0 105 7 1 5 5 3 97 0 3 3 37 77 7 1 5 5 4 95 0 4 4 31 77 0 1 1 9 95 0 9 9 29 77 0 8 8 2 97 0 2 2 39 2 78 
ELSE[ ]	/* Else */
NPUSHB[ ]	/* 51 values pushed */
11 1 6 10 1 0 1 6 0 105 0 1 0 9 8 1 9 103 7 1 5 5 3 97 0 3 3 37 77 7 1 5 5 4 95 0 4 4 31 77 0 8 8 2 97 0 2 2 39 2 78 
EIF[ ]	/* EndIf */
EIF[ ]	/* EndIf */
NPUSHB[ ]	/* 31 values pushed */
43 42 1 0 64 62 58 56 49 47 42 53 43 53 35 34 33 32 31 29 15 13 8 5 0 41 1 41 12 8 22 
CALL[ ]	/* CallFunction */";
};
width = 600;
}
);
note = g;
unicode = 103;
},
{
glyphname = h;
layers = (
{
layerId = m01;
shapes = (
{
closed = 1;
nodes = (
(167,272,ls),
(167,323,o),
(207,393,o),
(273,429,o),
(313,429,qs),
(371,429,o),
(436,355,o),
(436,288,qs),
(436,0,l),
(520,0,l),
(520,299,ls),
(520,398,o),
(425,508,o),
(334,508,qs),
(279,508,o),
(187,459,o),
(167,421,q),
(167,720,l),
(83,720,l),
(83,0,l),
(167,0,l)
);
}
);
userData = {
assembly = "NPUSHB[ ]	/* 42 values pushed */
3 1 2 3 1 76 0 0 0 30 77 0 3 3 1 97 0 1 1 37 77 5 4 2 2 2 29 2 78 0 0 0 20 0 20 35 19 35 17 6 8 26 
CALL[ ]	/* CallFunction */";
};
width = 600;
}
);
note = h;
unicode = 104;
},
{
glyphname = i;
layers = (
{
layerId = m01;
shapes = (
{
closed = 1;
nodes = (
(364,624,o),
(364,652,qs),
(364,681,o),
(323,720,o),
(294,720,qs),
(264,720,o),
(224,681,o),
(224,652,qs),
(224,624,o),
(264,584,o),
(294,584,qs),
(323,584,o)
);
},
{
closed = 1;
nodes = (
(500,72,l),
(342,72,l),
(342,407,ls),
(342,496,o),
(253,496,qs),
(117,496,l),
(117,424,l),
(233,424,ls),
(258,424,o),
(258,399,qs),
(258,72,l),
(100,72,l),
(100,0,l),
(500,0,l)
);
}
);
userData = {
assembly = "NPUSHB[ ]	/* 59 values pushed */
7 1 0 0 1 97 0 1 1 30 77 0 3 3 4 95 0 4 4 31 77 5 1 2 2 6 95 8 1 6 6 29 6 78 12 12 1 0 12 25 12 25 24 23 21 19 18 16 14 13 7 5 0 11 1 11 9 8 22 
CALL[ ]	/* CallFunction */";
};
width = 600;
}
);
note = i;
unicode = 105;
},
{
glyphname = dotlessi;
layers = (
{
layerId = m01;
shapes = (
{
closed = 1;
nodes = (
(500,72,l),
(342,72,l),
(342,407,ls),
(342,496,o),
(253,496,qs),
(117,496,l),
(117,424,l),
(233,424,ls),
(258,424,o),
(258,399,qs),
(258,72,l),
(100,72,l),
(100,0,l),
(500,0,l)
);
}
);
userData = {
assembly = "NPUSHB[ ]	/* 36 values pushed */
0 1 1 2 95 0 2 2 31 77 3 1 0 0 4 95 5 1 4 4 29 4 78 0 0 0 13 0 13 18 33 34 17 6 8 26 
CALL[ ]	/* CallFunction */";
};
width = 600;
}
);
note = dotlessi;
unicode = 305;
},
{
glyphname = j;
lastChange = "2021-08-13 03:56:21 +0000";
layers = (
{
layerId = m01;
shapes = (
{
closed = 1;
nodes = (
(390,624,o),
(390,652,qs),
(390,681,o),
(350,720,o),
(320,720,qs),
(291,720,o),
(250,681,o),
(250,652,qs),
(250,624,o),
(291,584,o),
(320,584,qs),
(350,584,o)
);
},
{
closed = 1;
nodes = (
(368,-220,o),
(368,-131,q),
(368,407,ls),
(368,496,o),
(279,496,qs),
(139,496,l),
(139,424,l),
(259,424,ls),
(284,424,o),
(284,399,qs),
(284,-122,ls),
(284,-148,o),
(259,-148,qs),
(61,-148,l),
(61,-220,l),
(279,-220,ls)
);
}
);
userData = {
assembly = "NPUSHB[ ]	/* 56 values pushed */
6 1 0 0 1 97 0 1 1 30 77 0 3 3 4 95 0 4 4 31 77 0 2 2 5 95 7 1 5 5 33 5 78 12 12 1 0 12 27 12 26 23 21 20 18 15 13 7 5 0 11 1 11 8 8 22 
CALL[ ]	/* CallFunction */";
};
width = 600;
}
);
note = j;
unicode = 106;
},
{
glyphname = k;
layers = (
{
layerId = m01;
shapes = (
{
closed = 1;
nodes = (
(195,258,l),
(432,0,l),
(536,0,l),
(288,269,l),
(288,275,l),
(509,496,l),
(402,496,l),
(195,286,l),
(195,720,l),
(111,720,l),
(111,0,l),
(195,0,l)
);
}
);
userData = {
assembly = "NPUSHB[ ]	/* 38 values pushed */
10 6 3 3 2 1 1 76 0 0 0 30 77 0 1 1 31 77 4 3 2 2 2 29 2 78 0 0 0 11 0 11 19 18 17 5 8 25 
CALL[ ]	/* CallFunction */";
};
width = 600;
}
);
note = k;
unicode = 107;
},
{
glyphname = l;
layers = (
{
layerId = m01;
shapes = (
{
closed = 1;
nodes = (
(497,72,l),
(328,72,l),
(328,631,ls),
(328,674,o),
(282,720,o),
(239,720,qs),
(93,720,l),
(93,648,l),
(219,648,ls),
(244,648,o),
(244,623,qs),
(244,72,l),
(75,72,l),
(75,0,l),
(497,0,l)
);
}
);
userData = {
assembly = "NPUSHB[ ]	/* 36 values pushed */
0 1 1 2 95 0 2 2 30 77 3 1 0 0 4 95 5 1 4 4 29 4 78 0 0 0 14 0 14 19 33 34 17 6 8 26 
CALL[ ]	/* CallFunction */";
};
width = 600;
}
);
note = l;
unicode = 108;
},
{
glyphname = lslash;
layers = (
{
layerId = m01;
shapes = (
{
closed = 1;
nodes = (
(497,72,l),
(328,72,l),
(328,351,l),
(433,397,l),
(433,470,l),
(328,425,l),
(328,631,ls),
(328,674,o),
(282,720,o),
(239,720,qs),
(93,720,l),
(93,648,l),
(219,648,ls),
(244,648,o),
(244,623,qs),
(244,389,l),
(138,343,l),
(138,269,l),
(244,315,l),
(244,72,l),
(75,72,l),
(75,0,l),
(497,0,l)
);
}
);
userData = {
assembly = "NPUSHB[ ]	/* 49 values pushed */
19 18 17 16 6 5 4 3 8 0 1 1 76 0 1 1 2 95 0 2 2 30 77 3 1 0 0 4 95 5 1 4 4 29 4 78 0 0 0 22 0 22 23 33 38 17 6 8 26 
CALL[ ]	/* CallFunction */";
};
width = 600;
}
);
note = lslash;
unicode = 322;
},
{
glyphname = m;
layers = (
{
layerId = m01;
shapes = (
{
closed = 1;
nodes = (
(120,336,ls),
(120,382,o),
(163,432,o),
(196,432,qs),
(228,432,o),
(256,390,o),
(256,354,qs),
(256,0,l),
(339,0,l),
(339,336,ls),
(339,382,o),
(381,432,o),
(414,432,qs),
(446,432,o),
(475,390,o),
(475,354,qs),
(475,0,l),
(557,0,l),
(557,367,ls),
(557,431,o),
(500,508,o),
(443,508,qs),
(402,508,o),
(344,468,o),
(331,438,q),
(327,438,l),
(315,471,o),
(262,508,o),
(224,508,qs),
(186,508,o),
(133,468,o),
(120,438,q),
(115,438,l),
(106,496,l),
(37,496,l),
(37,0,l),
(120,0,l)
);
}
);
userData = {
assembly = "PUSHB[ ]	/* 7 values pushed */
10 3 2 4 0 1 76 
MPPEM[ ]	/* MeasurePixelPerEm */
PUSHB[ ]	/* 1 value pushed */
21 
LT[ ]	/* LessThan */
IF[ ]	/* If */
NPUSHB[ ]	/* 22 values pushed */
6 1 4 4 0 97 2 1 2 0 0 31 77 8 7 5 3 3 3 29 3 78 
ELSE[ ]	/* Else */
NPUSHB[ ]	/* 26 values pushed */
0 0 0 31 77 6 1 4 4 1 97 2 1 1 1 37 77 8 7 5 3 3 3 29 3 78 
EIF[ ]	/* EndIf */
NPUSHB[ ]	/* 16 values pushed */
0 0 0 36 0 36 35 19 35 19 37 36 17 9 8 29 
CALL[ ]	/* CallFunction */";
};
width = 600;
}
);
note = m;
unicode = 109;
},
{
glyphname = n;
layers = (
{
layerId = m01;
shapes = (
{
closed = 1;
nodes = (
(172,272,ls),
(172,348,o),
(254,429,o),
(313,429,qs),
(374,429,o),
(432,354,o),
(432,288,qs),
(432,0,l),
(516,0,l),
(516,298,ls),
(516,400,o),
(425,508,o),
(334,508,qs),
(278,508,o),
(192,457,o),
(172,421,q),
(167,421,l),
(158,496,l),
(88,496,l),
(88,0,l),
(172,0,l)
);
}
);
userData = {
assembly = "PUSHB[ ]	/* 6 values pushed */
3 1 2 3 1 76 
MPPEM[ ]	/* MeasurePixelPerEm */
PUSHB[ ]	/* 1 value pushed */
21 
LT[ ]	/* LessThan */
IF[ ]	/* If */
NPUSHB[ ]	/* 19 values pushed */
0 3 3 0 97 1 1 0 0 31 77 5 4 2 2 2 29 2 78 
ELSE[ ]	/* Else */
NPUSHB[ ]	/* 23 values pushed */
0 0 0 31 77 0 3 3 1 97 0 1 1 37 77 5 4 2 2 2 29 2 78 
EIF[ ]	/* EndIf */
NPUSHB[ ]	/* 13 values pushed */
0 0 0 20 0 20 35 19 36 17 6 8 26 
CALL[ ]	/* CallFunction */";
};
width = 600;
}
);
note = n;
unicode = 110;
},
{
glyphname = o;
layers = (
{
layerId = m01;
shapes = (
{
closed = 1;
nodes = (
(478,52,o),
(540,169,o),
(540,248,qs),
(540,327,o),
(478,444,o),
(370,508,o),
(300,508,qs),
(230,508,o),
(122,444,o),
(60,327,o),
(60,248,qs),
(60,169,o),
(122,52,o),
(230,-12,o),
(300,-12,qs),
(370,-12,o)
);
},
{
closed = 1;
nodes = (
(146,155,o),
(146,248,qs),
(146,310,o),
(188,390,o),
(258,428,o),
(300,428,qs),
(343,428,o),
(413,390,o),
(454,310,o),
(454,248,qs),
(454,186,o),
(413,106,o),
(343,68,o),
(300,68,qs),
(236,68,o)
);
}
);
userData = {
assembly = "NPUSHB[ ]	/* 42 values pushed */
0 3 3 1 97 0 1 1 37 77 5 1 2 2 0 97 4 1 0 0 35 0 78 17 16 1 0 25 23 16 30 17 30 9 7 0 15 1 15 6 8 22 
CALL[ ]	/* CallFunction */";
};
width = 600;
}
);
note = o;
unicode = 111;
},
{
glyphname = oslash;
layers = (
{
layerId = m01;
shapes = (
{
closed = 1;
nodes = (
(166,26,l),
(224,-12,o),
(300,-12,qs),
(370,-12,o),
(478,52,o),
(540,169,o),
(540,248,qs),
(540,302,o),
(510,392,o),
(483,426,q),
(554,516,l),
(470,516,l),
(433,470,l),
(376,508,o),
(300,508,qs),
(230,508,o),
(122,444,o),
(60,327,o),
(60,248,qs),
(60,194,o),
(90,104,o),
(117,71,q),
(44,-20,l),
(130,-20,l)
);
},
{
closed = 1;
nodes = (
(188,390,o),
(258,428,o),
(300,428,qs),
(347,428,o),
(383,406,q),
(171,139,l),
(159,160,o),
(146,214,o),
(146,248,qs),
(146,310,o)
);
},
{
closed = 1;
nodes = (
(217,90,q),
(429,358,l),
(441,337,o),
(454,282,o),
(454,248,qs),
(454,186,o),
(413,106,o),
(343,68,o),
(300,68,qs),
(252,68,o)
);
}
);
userData = {
assembly = "NPUSHB[ ]	/* 19 values pushed */
10 1 4 0 42 41 28 27 13 1 6 5 4 22 1 2 5 3 76 
MPPEM[ ]	/* MeasurePixelPerEm */
PUSHB[ ]	/* 1 value pushed */
29 
LT[ ]	/* LessThan */
IF[ ]	/* If */
NPUSHB[ ]	/* 25 values pushed */
0 4 4 0 97 1 1 0 0 37 77 7 1 5 5 2 97 6 3 2 2 2 35 2 78 
ELSE[ ]	/* Else */
NPUSHB[ ]	/* 33 values pushed */
0 1 0 1 133 6 1 3 2 3 134 0 4 4 0 97 0 0 0 37 77 7 1 5 5 2 97 0 2 2 35 2 78 
EIF[ ]	/* EndIf */
NPUSHB[ ]	/* 20 values pushed */
35 34 0 0 34 43 35 43 31 29 0 23 0 23 39 18 39 8 8 25 
CALL[ ]	/* CallFunction */";
};
width = 600;
}
);
note = oslash;
unicode = 248;
},
{
glyphname = oe;
layers = (
{
layerId = m01;
shapes = (
{
closed = 1;
nodes = (
(281,34,o),
(301,75,q),
(340,-12,o),
(426,-12,qs),
(486,-12,o),
(559,82,o),
(568,152,q),
(489,152,l),
(482,111,o),
(451,65,o),
(426,65,qs),
(392,65,o),
(349,147,o),
(347,229,q),
(575,229,l),
(577,260,o),
(577,285,qs),
(577,387,o),
(505,508,o),
(432,508,qs),
(389,508,o),
(321,459,o),
(306,418,q),
(289,468,o),
(221,508,o),
(180,508,qs),
(108,508,o),
(23,367,o),
(23,248,qs),
(23,129,o),
(107,-12,o),
(180,-12,qs),
(221,-12,o)
);
},
{
closed = 1;
nodes = (
(496,364,o),
(497,300,q),
(348,300,l),
(353,363,o),
(397,433,o),
(427,433,qs),
(457,433,o)
);
},
{
closed = 1;
nodes = (
(106,154,o),
(106,248,qs),
(106,342,o),
(149,430,o),
(187,430,qs),
(225,430,o),
(268,342,o),
(268,248,qs),
(268,154,o),
(225,66,o),
(187,66,qs),
(149,66,o)
);
}
);
userData = {
assembly = "NPUSHB[ ]	/* 91 values pushed */
9 1 8 7 30 1 4 5 2 76 0 5 3 4 3 5 4 128 0 8 0 3 5 8 3 103 10 12 2 7 7 1 97 2 1 1 1 37 77 13 9 2 4 4 0 97 6 11 2 0 0 35 0 78 41 40 34 33 1 0 47 45 40 51 41 51 37 36 33 39 34 39 29 27 25 24 22 20 18 17 13 11 7 5 0 32 1 32 14 8 22 
CALL[ ]	/* CallFunction */";
};
width = 600;
}
);
note = oe;
unicode = 339;
},
{
glyphname = p;
layers = (
{
layerId = m01;
shapes = (
{
closed = 1;
nodes = (
(162,70,l),
(179,37,o),
(258,-12,o),
(315,-12,qs),
(379,-12,o),
(478,48,o),
(535,164,o),
(535,247,qs),
(535,331,o),
(479,448,o),
(382,508,o),
(322,508,qs),
(265,508,o),
(181,454,o),
(162,414,q),
(156,414,l),
(146,496,l),
(78,496,l),
(78,-220,l),
(162,-220,l)
);
},
{
closed = 1;
nodes = (
(160,157,o),
(160,248,qs),
(160,339,o),
(242,428,o),
(305,428,qs),
(368,428,o),
(450,339,o),
(450,248,qs),
(450,157,o),
(368,68,o),
(305,68,qs),
(242,68,o)
);
}
);
userData = {
assembly = "PUSHB[ ]	/* 7 values pushed */
18 3 2 4 5 1 76 
MPPEM[ ]	/* MeasurePixelPerEm */
PUSHB[ ]	/* 1 value pushed */
21 
LT[ ]	/* LessThan */
IF[ ]	/* If */
NPUSHB[ ]	/* 29 values pushed */
0 5 5 0 97 1 1 0 0 31 77 7 1 4 4 2 97 0 2 2 35 77 6 1 3 3 33 3 78 
ELSE[ ]	/* Else */
NPUSHB[ ]	/* 33 values pushed */
0 0 0 31 77 0 5 5 1 97 0 1 1 37 77 7 1 4 4 2 97 0 2 2 35 77 6 1 3 3 33 3 78 
EIF[ ]	/* EndIf */
NPUSHB[ ]	/* 20 values pushed */
21 20 0 0 27 25 20 31 21 31 0 19 0 19 38 36 17 8 8 25 
CALL[ ]	/* CallFunction */";
};
width = 600;
}
);
note = p;
unicode = 112;
},
{
glyphname = thorn;
layers = (
{
layerId = m01;
shapes = (
{
closed = 1;
nodes = (
(162,70,l),
(179,37,o),
(258,-12,o),
(315,-12,qs),
(379,-12,o),
(478,48,o),
(535,164,o),
(535,247,qs),
(535,331,o),
(479,448,o),
(382,508,o),
(322,508,qs),
(265,508,o),
(181,454,o),
(162,414,q),
(162,720,l),
(78,720,l),
(78,-220,l),
(162,-220,l)
);
},
{
closed = 1;
nodes = (
(160,157,o),
(160,248,qs),
(160,339,o),
(242,428,o),
(305,428,qs),
(368,428,o),
(450,339,o),
(450,248,qs),
(450,157,o),
(368,68,o),
(305,68,qs),
(242,68,o)
);
}
);
userData = {
assembly = "NPUSHB[ ]	/* 60 values pushed */
17 3 2 4 5 1 76 0 0 0 30 77 0 5 5 1 97 0 1 1 37 77 7 1 4 4 2 97 0 2 2 35 77 6 1 3 3 33 3 78 20 19 0 0 26 24 19 30 20 30 0 18 0 18 38 35 17 8 8 25 
CALL[ ]	/* CallFunction */";
};
width = 600;
}
);
note = thorn;
unicode = 254;
},
{
glyphname = q;
layers = (
{
layerId = m01;
shapes = (
{
closed = 1;
nodes = (
(525,496,l),
(457,496,l),
(447,420,l),
(441,420,l),
(421,458,o),
(341,508,o),
(282,508,qs),
(222,508,o),
(125,448,o),
(68,331,o),
(68,247,qs),
(68,164,o),
(125,48,o),
(224,-12,o),
(287,-12,qs),
(349,-12,o),
(422,38,o),
(441,74,q),
(441,-220,l),
(525,-220,l)
);
},
{
closed = 1;
nodes = (
(153,157,o),
(153,248,qs),
(153,339,o),
(235,428,o),
(298,428,qs),
(361,428,o),
(443,339,o),
(443,248,qs),
(443,157,o),
(361,68,o),
(298,68,qs),
(235,68,o)
);
}
);
userData = {
assembly = "PUSHB[ ]	/* 7 values pushed */
15 1 2 4 5 1 76 
MPPEM[ ]	/* MeasurePixelPerEm */
PUSHB[ ]	/* 1 value pushed */
21 
LT[ ]	/* LessThan */
IF[ ]	/* If */
NPUSHB[ ]	/* 29 values pushed */
0 5 5 1 97 2 1 1 1 37 77 7 1 4 4 0 97 0 0 0 35 77 6 1 3 3 33 3 78 
ELSE[ ]	/* Else */
NPUSHB[ ]	/* 33 values pushed */
0 2 2 31 77 0 5 5 1 97 0 1 1 37 77 7 1 4 4 0 97 0 0 0 35 77 6 1 3 3 33 3 78 
EIF[ ]	/* EndIf */
NPUSHB[ ]	/* 20 values pushed */
21 20 0 0 27 25 20 31 21 31 0 19 0 19 20 38 35 8 8 25 
CALL[ ]	/* CallFunction */";
};
width = 600;
}
);
note = q;
unicode = 113;
},
{
glyphname = r;
layers = (
{
layerId = m01;
shapes = (
{
closed = 1;
nodes = (
(451,72,l),
(295,72,l),
(295,275,ls),
(295,338,o),
(361,419,o),
(422,419,qs),
(525,419,l),
(525,508,l),
(434,508,ls),
(374,508,o),
(307,454,o),
(295,404,q),
(291,404,l),
(291,425,ls),
(291,460,o),
(251,496,o),
(218,496,qs),
(97,496,l),
(97,424,l),
(187,424,ls),
(211,424,o),
(211,399,qs),
(211,72,l),
(84,72,l),
(84,0,l),
(451,0,l)
);
}
);
userData = {
assembly = "MPPEM[ ]	/* MeasurePixelPerEm */
PUSHB[ ]	/* 1 value pushed */
46 
LT[ ]	/* LessThan */
IF[ ]	/* If */
PUSHB[ ]	/* 6 values pushed */
12 1 0 1 1 76 
ELSE[ ]	/* Else */
PUSHB[ ]	/* 6 values pushed */
12 1 0 4 1 76 
EIF[ ]	/* EndIf */
MPPEM[ ]	/* MeasurePixelPerEm */
PUSHB[ ]	/* 1 value pushed */
21 
LT[ ]	/* LessThan */
IF[ ]	/* If */
NPUSHB[ ]	/* 25 values pushed */
4 1 1 1 2 95 3 1 2 2 31 77 5 1 0 0 6 95 7 1 6 6 29 6 78 
ELSE[ ]	/* Else */
MPPEM[ ]	/* MeasurePixelPerEm */
PUSHB[ ]	/* 1 value pushed */
41 
LT[ ]	/* LessThan */
IF[ ]	/* If */
NPUSHB[ ]	/* 35 values pushed */
4 1 1 1 3 95 0 3 3 31 77 4 1 1 1 2 95 0 2 2 31 77 5 1 0 0 6 95 7 1 6 6 29 6 78 
ELSE[ ]	/* Else */
MPPEM[ ]	/* MeasurePixelPerEm */
PUSHB[ ]	/* 1 value pushed */
46 
LT[ ]	/* LessThan */
IF[ ]	/* If */
NPUSHB[ ]	/* 30 values pushed */
0 3 2 1 3 87 4 1 1 1 2 95 0 2 2 31 77 5 1 0 0 6 95 7 1 6 6 29 6 78 
ELSE[ ]	/* Else */
NPUSHB[ ]	/* 31 values pushed */
0 3 0 4 0 3 4 103 0 1 1 2 95 0 2 2 31 77 5 1 0 0 6 95 7 1 6 6 29 6 78 
EIF[ ]	/* EndIf */
EIF[ ]	/* EndIf */
EIF[ ]	/* EndIf */
NPUSHB[ ]	/* 15 values pushed */
0 0 0 25 0 25 19 33 38 33 34 17 8 8 28 
CALL[ ]	/* CallFunction */";
};
width = 600;
}
);
note = r;
unicode = 114;
},
{
glyphname = s;
layers = (
{
layerId = m01;
shapes = (
{
closed = 1;
nodes = (
(454,29,o),
(505,100,o),
(504,145,qs),
(504,199,o),
(453,259,o),
(367,287,o),
(315,293,qs),
(249,299,o),
(188,338,o),
(188,368,qs),
(188,398,o),
(242,435,o),
(291,435,qs),
(338,435,o),
(401,392,o),
(404,356,q),
(487,356,l),
(480,429,o),
(380,508,o),
(293,508,qs),
(205,508,o),
(103,428,o),
(103,367,qs),
(103,299,o),
(207,231,o),
(286,222,qs),
(352,214,o),
(418,183,o),
(418,141,qs),
(418,110,o),
(363,62,o),
(307,62,qs),
(248,62,o),
(179,114,o),
(173,155,q),
(86,155,l),
(93,77,o),
(210,-12,o),
(305,-12,qs),
(364,-12,o)
);
}
);
userData = {
assembly = "NPUSHB[ ]	/* 56 values pushed */
0 4 5 1 5 4 1 128 0 1 2 5 1 2 126 0 5 5 3 97 0 3 3 37 77 0 2 2 0 97 6 1 0 0 35 0 78 1 0 27 25 23 22 20 18 8 6 4 3 0 39 1 39 7 8 22 
CALL[ ]	/* CallFunction */";
};
width = 600;
}
);
note = s;
unicode = 115;
},
{
glyphname = germandbls;
layers = (
{
layerId = m01;
shapes = (
{
closed = 1;
nodes = (
(529,33,o),
(573,111,o),
(573,159,qs),
(573,221,o),
(511,296,o),
(450,317,qs),
(397,335,o),
(360,365,o),
(360,388,qs),
(360,405,o),
(382,429,o),
(414,451,o),
(446,480,o),
(468,524,o),
(468,558,qs),
(468,627,o),
(368,720,o),
(273,720,qs),
(203,720,o),
(110,664,o),
(65,569,o),
(65,509,qs),
(65,0,l),
(149,0,l),
(149,504,ls),
(149,569,o),
(209,644,o),
(272,644,qs),
(324,644,o),
(385,593,o),
(385,551,qs),
(385,528,o),
(363,498,o),
(330,474,o),
(297,447,o),
(275,411,o),
(275,383,qs),
(275,333,o),
(341,275,o),
(393,258,qs),
(444,240,o),
(488,194,o),
(488,153,qs),
(488,112,o),
(436,63,o),
(390,63,qs),
(343,63,o),
(291,121,o),
(288,169,q),
(202,169,l),
(206,83,o),
(303,-12,o),
(389,-12,qs),
(446,-12,o)
);
}
);
userData = {
assembly = "MPPEM[ ]	/* MeasurePixelPerEm */
PUSHB[ ]	/* 1 value pushed */
21 
LT[ ]	/* LessThan */
IF[ ]	/* If */
NPUSHB[ ]	/* 31 values pushed */
0 1 3 2 3 1 2 128 0 3 3 5 97 0 5 5 30 77 0 2 2 0 97 4 6 2 0 0 35 0 78 
ELSE[ ]	/* Else */
NPUSHB[ ]	/* 35 values pushed */
0 1 3 2 3 1 2 128 0 3 3 5 97 0 5 5 30 77 0 4 4 29 77 0 2 2 0 97 6 1 0 0 35 0 78 
EIF[ ]	/* EndIf */
NPUSHB[ ]	/* 19 values pushed */
1 0 36 34 30 29 26 24 8 6 4 3 0 53 1 53 7 8 22 
CALL[ ]	/* CallFunction */";
};
width = 600;
}
);
note = germandbls;
unicode = 223;
},
{
glyphname = t;
layers = (
{
layerId = m01;
shapes = (
{
closed = 1;
nodes = (
(488,76,l),
(377,76,ls),
(329,76,o),
(290,110,o),
(290,152,qs),
(290,424,l),
(488,424,l),
(488,496,l),
(290,496,l),
(290,623,l),
(228,623,l),
(214,546,ls),
(206,496,o),
(155,496,qs),
(80,496,l),
(80,424,l),
(206,424,l),
(206,152,ls),
(206,66,o),
(284,0,o),
(352,0,qs),
(488,0,l)
);
}
);
userData = {
assembly = "NPUSHB[ ]	/* 50 values pushed */
0 3 2 3 133 5 1 1 1 2 95 4 1 2 2 31 77 0 6 6 0 96 7 1 0 0 29 0 78 1 0 20 18 15 14 13 12 11 10 8 6 5 4 0 21 1 21 8 8 22 
CALL[ ]	/* CallFunction */";
};
width = 600;
}
);
note = t;
unicode = 116;
},
{
glyphname = u;
layers = (
{
layerId = m01;
shapes = (
{
closed = 1;
nodes = (
(408,39,o),
(428,75,q),
(433,75,l),
(442,0,l),
(512,0,l),
(512,496,l),
(428,496,l),
(428,224,ls),
(428,148,o),
(346,67,o),
(286,67,qs),
(226,67,o),
(167,142,o),
(167,208,qs),
(167,496,l),
(83,496,l),
(83,198,ls),
(83,96,o),
(175,-12,o),
(265,-12,qs),
(322,-12,o)
);
}
);
userData = {
assembly = "PUSHB[ ]	/* 6 values pushed */
17 1 2 1 1 76 
MPPEM[ ]	/* MeasurePixelPerEm */
PUSHB[ ]	/* 1 value pushed */
21 
LT[ ]	/* LessThan */
IF[ ]	/* If */
NPUSHB[ ]	/* 19 values pushed */
3 1 1 1 31 77 0 2 2 0 97 4 5 2 0 0 35 0 78 
ELSE[ ]	/* Else */
NPUSHB[ ]	/* 23 values pushed */
3 1 1 1 31 77 0 4 4 29 77 0 2 2 0 97 5 1 0 0 35 0 78 
EIF[ ]	/* EndIf */
NPUSHB[ ]	/* 17 values pushed */
1 0 16 15 14 13 10 8 5 4 0 20 1 20 6 8 22 
CALL[ ]	/* CallFunction */";
};
width = 600;
}
);
note = u;
unicode = 117;
},
{
glyphname = v;
layers = (
{
layerId = m01;
shapes = (
{
closed = 1;
nodes = (
(567,496,l),
(472,496,l),
(300,92,l),
(129,496,l),
(33,496,l),
(251,0,l),
(348,0,l)
);
}
);
userData = {
assembly = "NPUSHB[ ]	/* 30 values pushed */
3 1 2 0 1 76 1 1 0 0 31 77 3 1 2 2 29 2 78 0 0 0 6 0 6 18 17 4 8 24 
CALL[ ]	/* CallFunction */";
};
width = 600;
}
);
note = v;
unicode = 118;
},
{
glyphname = w;
layers = (
{
layerId = m01;
shapes = (
{
closed = 1;
nodes = (
(300,385,l),
(390,0,l),
(476,0,l),
(587,496,l),
(503,496,l),
(432,125,l),
(347,496,l),
(253,496,l),
(168,125,l),
(97,496,l),
(14,496,l),
(124,0,l),
(210,0,l)
);
}
);
userData = {
assembly = "NPUSHB[ ]	/* 36 values pushed */
11 6 3 3 3 0 1 76 2 1 2 0 0 31 77 5 4 2 3 3 29 3 78 0 0 0 12 0 12 17 18 18 17 6 8 26 
CALL[ ]	/* CallFunction */";
};
width = 600;
}
);
note = w;
unicode = 119;
},
{
glyphname = x;
layers = (
{
layerId = m01;
shapes = (
{
closed = 1;
nodes = (
(300,201,l),
(434,0,l),
(527,0,l),
(358,248,l),
(531,496,l),
(438,496,l),
(300,296,l),
(162,496,l),
(69,496,l),
(242,248,l),
(73,0,l),
(165,0,l)
);
}
);
userData = {
assembly = "NPUSHB[ ]	/* 35 values pushed */
10 7 4 1 4 2 0 1 76 1 1 0 0 31 77 4 3 2 2 2 29 2 78 0 0 0 11 0 11 18 18 18 5 8 25 
CALL[ ]	/* CallFunction */";
};
width = 600;
}
);
note = x;
unicode = 120;
},
{
glyphname = y;
lastChange = "2021-08-13 04:12:50 +0000";
layers = (
{
layerId = m01;
shapes = (
{
closed = 1;
nodes = (
(428,-220,l),
(465,-209,l),
(489,-191,l),
(506,-166,l),
(512,-131,l),
(512,496,l),
(428,496,l),
(428,224,ls),
(428,148,o),
(346,67,o),
(286,67,qs),
(226,67,o),
(167,142,o),
(167,208,qs),
(167,496,l),
(83,496,l),
(83,198,ls),
(83,96,o),
(175,-12,o),
(265,-12,qs),
(322,-12,o),
(408,39,o),
(428,75,q),
(426,75,l),
(428,-122,l),
(426,-140,l),
(408,-148,l),
(83,-148,l),
(83,-220,l)
);
}
);
userData = {
assembly = "NPUSHB[ ]	/* 39 values pushed */
5 1 0 1 1 76 0 0 1 3 1 0 3 128 2 1 1 1 31 77 4 1 3 3 33 3 78 0 0 0 8 0 8 18 17 17 5 8 25 
CALL[ ]	/* CallFunction */";
};
width = 600;
}
);
note = y;
unicode = 121;
},
{
glyphname = z;
layers = (
{
layerId = m01;
shapes = (
{
closed = 1;
nodes = (
(498,78,l),
(200,78,l),
(493,419,l),
(493,496,l),
(107,496,l),
(107,418,l),
(394,418,l),
(102,77,l),
(102,0,l),
(498,0,l)
);
}
);
userData = {
assembly = "NPUSHB[ ]	/* 44 values pushed */
6 1 0 1 1 1 3 2 2 76 0 0 0 1 95 0 1 1 31 77 0 2 2 3 95 4 1 3 3 29 3 78 0 0 0 9 0 9 18 17 18 5 8 25 
CALL[ ]	/* CallFunction */";
};
width = 600;
}
);
note = z;
unicode = 122;
},
{
glyphname = a.ss02;
layers = (
{
layerId = m01;
shapes = (
{
closed = 1;
nodes = (
(418,36,o),
(438,77,q),
(444,77,l),
(453,0,l),
(522,0,l),
(522,496,l),
(448,496,l),
(439,429,l),
(435,429,l),
(414,465,o),
(341,508,o),
(283,508,qs),
(220,508,o),
(121,448,o),
(65,332,o),
(65,249,qs),
(65,165,o),
(121,48,o),
(220,-12,o),
(283,-12,qs),
(340,-12,o)
);
},
{
closed = 1;
nodes = (
(150,157,o),
(150,248,qs),
(150,339,o),
(231,428,o),
(294,428,qs),
(357,428,o),
(439,339,o),
(439,248,qs),
(439,157,o),
(357,68,o),
(294,68,qs),
(231,68,o)
);
}
);
userData = {
assembly = "MPPEM[ ]	/* MeasurePixelPerEm */
PUSHB[ ]	/* 1 value pushed */
21 
LT[ ]	/* LessThan */
IF[ ]	/* If */
NPUSHB[ ]	/* 10 values pushed */
11 1 5 1 17 1 4 5 2 76 
ELSE[ ]	/* Else */
NPUSHB[ ]	/* 10 values pushed */
11 1 5 2 17 1 4 5 2 76 
EIF[ ]	/* EndIf */
MPPEM[ ]	/* MeasurePixelPerEm */
PUSHB[ ]	/* 1 value pushed */
21 
LT[ ]	/* LessThan */
IF[ ]	/* If */
NPUSHB[ ]	/* 25 values pushed */
0 5 5 1 97 2 1 1 1 37 77 7 1 4 4 0 97 3 6 2 0 0 35 0 78 
ELSE[ ]	/* Else */
NPUSHB[ ]	/* 33 values pushed */
0 2 2 31 77 0 5 5 1 97 0 1 1 37 77 0 3 3 29 77 7 1 4 4 0 97 6 1 0 0 35 0 78 
EIF[ ]	/* EndIf */
NPUSHB[ ]	/* 23 values pushed */
22 21 1 0 28 26 21 32 22 32 16 15 14 13 9 7 0 20 1 20 8 8 22 
CALL[ ]	/* CallFunction */";
};
width = 600;
}
);
note = a.ss02;
},
{
glyphname = ae.ss02;
layers = (
{
layerId = m01;
shapes = (
{
closed = 1;
nodes = (
(268,32,q),
(268,0,l),
(344,0,l),
(344,32,l),
(358,11,o),
(407,-12,o),
(435,-12,qs),
(492,-12,o),
(559,82,o),
(568,152,q),
(489,152,l),
(482,111,o),
(451,65,o),
(426,65,qs),
(392,65,o),
(349,147,o),
(347,229,q),
(575,229,l),
(577,260,o),
(577,285,qs),
(577,387,o),
(506,508,o),
(437,508,qs),
(409,508,o),
(358,483,o),
(344,461,q),
(344,496,l),
(268,496,l),
(268,467,l),
(250,489,o),
(204,508,o),
(176,508,qs),
(105,508,o),
(23,367,o),
(23,248,qs),
(23,129,o),
(105,-12,o),
(177,-12,qs),
(232,-12,o)
);
},
{
closed = 1;
nodes = (
(397,433,o),
(427,433,qs),
(457,433,o),
(496,364,o),
(497,300,q),
(348,300,l),
(352,363,o)
);
},
{
closed = 1;
nodes = (
(106,154,o),
(106,248,qs),
(106,342,o),
(149,430,o),
(187,430,qs),
(225,430,o),
(268,342,o),
(268,248,qs),
(268,154,o),
(225,66,o),
(187,66,qs),
(149,66,o)
);
}
);
userData = {
assembly = "MPPEM[ ]	/* MeasurePixelPerEm */
PUSHB[ ]	/* 1 value pushed */
21 
LT[ ]	/* LessThan */
IF[ ]	/* If */
NPUSHB[ ]	/* 12 values pushed */
12 9 2 10 1 37 34 2 0 5 2 76 
ELSE[ ]	/* Else */
NPUSHB[ ]	/* 12 values pushed */
12 9 2 10 2 37 34 2 8 5 2 76 
EIF[ ]	/* EndIf */
MPPEM[ ]	/* MeasurePixelPerEm */
PUSHB[ ]	/* 1 value pushed */
15 
LT[ ]	/* LessThan */
IF[ ]	/* If */
NPUSHB[ ]	/* 44 values pushed */
0 6 4 5 5 6 114 0 9 0 4 6 9 4 103 12 1 10 10 1 97 3 2 2 1 1 37 77 14 11 2 5 5 0 98 8 7 13 3 0 0 35 0 78 
ELSE[ ]	/* Else */
MPPEM[ ]	/* MeasurePixelPerEm */
PUSHB[ ]	/* 1 value pushed */
21 
LT[ ]	/* LessThan */
IF[ ]	/* If */
NPUSHB[ ]	/* 45 values pushed */
0 6 4 5 4 6 5 128 0 9 0 4 6 9 4 103 12 1 10 10 1 97 3 2 2 1 1 37 77 14 11 2 5 5 0 98 8 7 13 3 0 0 35 0 78 
ELSE[ ]	/* Else */
NPUSHB[ ]	/* 53 values pushed */
0 6 4 5 4 6 5 128 0 9 0 4 6 9 4 103 0 2 2 31 77 12 1 10 10 1 97 3 1 1 1 37 77 0 8 8 29 77 14 11 2 5 5 0 98 7 13 2 0 0 35 0 78 
EIF[ ]	/* EndIf */
EIF[ ]	/* EndIf */
NPUSHB[ ]	/* 37 values pushed */
47 46 1 0 53 51 46 57 47 57 44 42 40 39 36 35 32 30 28 27 25 23 21 20 16 14 11 10 7 5 0 38 1 38 15 8 22 
CALL[ ]	/* CallFunction */";
};
width = 600;
}
);
note = ae.ss02;
},
{
glyphname = g.ss03;
layers = (
{
layerId = m01;
shapes = (
{
closed = 1;
nodes = (
(477,-174,o),
(525,-72,o),
(525,-7,qs),
(525,496,l),
(457,496,l),
(447,420,l),
(441,420,l),
(421,458,o),
(341,508,o),
(282,508,qs),
(221,508,o),
(123,448,o),
(65,332,o),
(65,248,qs),
(65,164,o),
(123,48,o),
(224,-12,o),
(287,-12,qs),
(349,-12,o),
(422,38,o),
(441,74,q),
(441,-6,ls),
(441,-154,o),
(298,-154,qs),
(242,-154,o),
(172,-101,o),
(163,-54,q),
(75,-54,l),
(79,-100,o),
(132,-181,o),
(229,-232,o),
(298,-232,qs),
(376,-232,o)
);
},
{
closed = 1;
nodes = (
(151,157,o),
(151,248,qs),
(151,339,o),
(233,428,o),
(297,428,qs),
(360,428,o),
(443,339,o),
(443,248,qs),
(443,157,o),
(360,68,o),
(297,68,qs),
(233,68,o)
);
}
);
userData = {
assembly = "PUSHB[ ]	/* 7 values pushed */
25 11 2 6 7 1 76 
MPPEM[ ]	/* MeasurePixelPerEm */
PUSHB[ ]	/* 1 value pushed */
21 
LT[ ]	/* LessThan */
IF[ ]	/* If */
NPUSHB[ ]	/* 42 values pushed */
0 1 3 2 3 1 2 128 0 7 7 4 97 5 1 4 4 37 77 9 1 6 6 3 97 0 3 3 35 77 0 2 2 0 97 8 1 0 0 39 0 78 
ELSE[ ]	/* Else */
NPUSHB[ ]	/* 46 values pushed */
0 1 3 2 3 1 2 128 0 5 5 31 77 0 7 7 4 97 0 4 4 37 77 9 1 6 6 3 97 0 3 3 35 77 0 2 2 0 97 8 1 0 0 39 0 78 
EIF[ ]	/* EndIf */
NPUSHB[ ]	/* 27 values pushed */
34 33 1 0 40 38 33 44 34 44 28 27 23 21 15 13 9 7 5 4 0 32 1 32 10 8 22 
CALL[ ]	/* CallFunction */";
};
width = 600;
}
);
note = g.ss03;
},
{
glyphname = f.ss05;
layers = (
{
layerId = m01;
shapes = (
{
closed = 1;
nodes = (
(307,424,l),
(491,424,l),
(491,496,l),
(307,496,l),
(307,575,ls),
(307,613,o),
(340,644,o),
(377,644,qs),
(491,644,l),
(491,720,l),
(372,720,ls),
(297,720,o),
(223,652,o),
(223,575,qs),
(223,496,l),
(100,496,l),
(100,424,l),
(223,424,l),
(223,0,l),
(307,0,l)
);
}
);
userData = {
assembly = "NPUSHB[ ]	/* 44 values pushed */
0 3 3 2 95 0 2 2 30 77 5 1 0 0 1 95 4 1 1 1 31 77 7 1 6 6 29 6 78 0 0 0 19 0 19 17 19 33 35 17 17 8 8 28 
CALL[ ]	/* CallFunction */";
};
width = 600;
}
);
note = f.ss05;
},
{
glyphname = ordfeminine;
layers = (
{
layerId = m01;
shapes = (
{
closed = 1;
nodes = (
(375,330,o),
(392,358,q),
(398,358,l),
(404,300,l),
(470,300,l),
(470,544,ls),
(470,618,o),
(390,706,o),
(303,706,qs),
(236,706,o),
(141,638,o),
(133,575,q),
(210,575,l),
(218,609,o),
(267,641,o),
(303,641,qs),
(393,641,o),
(393,544,qs),
(393,536,l),
(287,536,ls),
(211,536,o),
(124,471,o),
(124,412,qs),
(124,363,o),
(193,290,o),
(264,290,qs),
(317,290,o)
);
},
{
closed = 1;
nodes = (
(204,388,o),
(204,416,qs),
(204,445,o),
(246,479,o),
(294,479,qs),
(393,479,l),
(393,447,o),
(367,390,o),
(315,355,o),
(279,355,qs),
(244,355,o)
);
}
);
userData = {
assembly = "PUSHB[ ]	/* 6 values pushed */
23 1 6 7 1 76 
MPPEM[ ]	/* MeasurePixelPerEm */
PUSHB[ ]	/* 1 value pushed */
25 
LT[ ]	/* LessThan */
IF[ ]	/* If */
NPUSHB[ ]	/* 44 values pushed */
0 3 2 1 2 3 1 128 0 1 0 7 6 1 7 103 0 2 2 4 97 0 4 4 44 77 0 5 5 45 77 9 1 6 6 0 97 8 1 0 0 45 0 78 
ELSE[ ]	/* Else */
MPPEM[ ]	/* MeasurePixelPerEm */
PUSHB[ ]	/* 1 value pushed */
50 
LT[ ]	/* LessThan */
IF[ ]	/* If */
NPUSHB[ ]	/* 47 values pushed */
0 3 2 1 2 3 1 128 0 5 6 0 6 5 0 128 0 1 0 7 6 1 7 103 0 2 2 4 97 0 4 4 44 77 9 1 6 6 0 97 8 1 0 0 45 0 78 
ELSE[ ]	/* Else */
NPUSHB[ ]	/* 44 values pushed */
0 3 2 1 2 3 1 128 0 5 6 0 6 5 0 128 0 1 0 7 6 1 7 103 9 1 6 8 1 0 6 0 101 0 2 2 4 97 0 4 4 44 2 78 
EIF[ ]	/* EndIf */
EIF[ ]	/* EndIf */
NPUSHB[ ]	/* 27 values pushed */
28 27 1 0 33 31 27 37 28 37 22 21 18 16 14 13 11 9 7 5 0 26 1 26 10 9 22 
CALL[ ]	/* CallFunction */";
};
width = 600;
}
);
note = ordfeminine;
unicode = 170;
},
{
glyphname = ordmasculine;
layers = (
{
layerId = m01;
shapes = (
{
closed = 1;
nodes = (
(444,342,o),
(495,435,o),
(495,498,qs),
(495,561,o),
(444,655,o),
(357,706,o),
(300,706,qs),
(244,706,o),
(156,655,o),
(105,561,o),
(105,498,qs),
(105,435,o),
(155,342,o),
(243,290,o),
(300,290,qs),
(356,290,o)
);
},
{
closed = 1;
nodes = (
(182,429,o),
(182,498,qs),
(182,568,o),
(252,634,o),
(300,634,qs),
(348,634,o),
(418,568,o),
(418,498,qs),
(418,429,o),
(348,362,o),
(300,362,qs),
(252,362,o)
);
}
);
userData = {
assembly = "MPPEM[ ]	/* MeasurePixelPerEm */
PUSHB[ ]	/* 1 value pushed */
50 
LT[ ]	/* LessThan */
IF[ ]	/* If */
NPUSHB[ ]	/* 23 values pushed */
0 3 3 1 97 0 1 1 44 77 5 1 2 2 0 97 4 1 0 0 45 0 78 
ELSE[ ]	/* Else */
NPUSHB[ ]	/* 20 values pushed */
5 1 2 4 1 0 2 0 101 0 3 3 1 97 0 1 1 44 3 78 
EIF[ ]	/* EndIf */
NPUSHB[ ]	/* 19 values pushed */
17 16 1 0 23 21 16 27 17 27 9 7 0 15 1 15 6 9 22 
CALL[ ]	/* CallFunction */";
};
width = 600;
}
);
note = ordmasculine;
unicode = 186;
},
{
glyphname = pi;
layers = (
{
layerId = m01;
shapes = (
{
closed = 1;
nodes = (
(209,424,l),
(391,424,l),
(391,0,l),
(475,0,l),
(475,424,l),
(571,424,l),
(571,496,l),
(29,496,l),
(29,424,l),
(125,424,l),
(125,0,l),
(209,0,l)
);
}
);
userData = {
assembly = "NPUSHB[ ]	/* 34 values pushed */
4 2 2 0 0 1 95 0 1 1 20 77 6 5 2 3 3 21 3 78 0 0 0 11 0 11 17 17 17 17 17 7 7 27 
CALL[ ]	/* CallFunction */";
};
width = 600;
}
);
note = pi;
unicode = 960;
},
{
glyphname = zero;
layers = (
{
layerId = m01;
shapes = (
{
closed = 1;
nodes = (
(500,76,o),
(567,238,o),
(567,350,qs),
(567,462,o),
(500,624,o),
(380,712,o),
(300,712,qs),
(221,712,o),
(100,624,o),
(33,462,o),
(33,350,qs),
(33,238,o),
(100,76,o),
(221,-12,o),
(300,-12,qs),
(380,-12,o)
);
},
{
closed = 1;
nodes = (
(165,565,o),
(247,634,o),
(300,634,qs),
(337,634,o),
(368,617,q),
(174,136,l),
(148,173,o),
(119,282,o),
(119,350,qs),
(119,438,o)
);
},
{
closed = 1;
nodes = (
(231,82,q),
(426,564,l),
(452,527,o),
(481,418,o),
(481,350,qs),
(481,262,o),
(435,134,o),
(353,65,o),
(300,65,qs),
(263,65,o)
);
}
);
userData = {
assembly = "NPUSHB[ ]	/* 51 values pushed */
34 33 20 19 4 3 2 1 76 0 2 2 1 97 0 1 1 34 77 5 1 3 3 0 97 4 1 0 0 35 0 78 27 26 1 0 26 35 27 35 23 21 9 7 0 15 1 15 6 8 22 
CALL[ ]	/* CallFunction */";
};
width = 600;
}
);
note = zero;
unicode = 48;
},
{
glyphname = one;
layers = (
{
layerId = m01;
shapes = (
{
closed = 1;
nodes = (
(526,76,l),
(335,76,l),
(335,700,l),
(279,700,l),
(80,632,l),
(80,568,l),
(251,601,l),
(251,76,l),
(70,76,l),
(70,0,l),
(526,0,l)
);
}
);
userData = {
assembly = "NPUSHB[ ]	/* 38 values pushed */
5 4 3 3 0 1 1 76 0 1 1 28 77 2 1 0 0 3 96 4 1 3 3 29 3 78 0 0 0 10 0 10 17 20 17 5 8 25 
CALL[ ]	/* CallFunction */";
};
width = 600;
}
);
note = one;
unicode = 49;
},
{
glyphname = two;
layers = (
{
layerId = m01;
shapes = (
{
closed = 1;
nodes = (
(536,75,l),
(204,75,l),
(261,120,o),
(373,218,o),
(463,324,o),
(517,439,o),
(517,502,qs),
(517,598,o),
(403,712,o),
(300,712,qs),
(236,712,o),
(135,660,o),
(76,561,o),
(75,492,q),
(158,492,l),
(158,530,o),
(190,596,o),
(254,636,o),
(300,636,qs),
(360,636,o),
(431,563,o),
(431,500,qs),
(431,430,o),
(343,296,o),
(182,152,o),
(74,66,q),
(74,0,l),
(536,0,l)
);
}
);
userData = {
assembly = "NPUSHB[ ]	/* 49 values pushed */
1 1 4 3 1 76 0 1 0 3 0 1 3 128 0 0 0 2 97 0 2 2 34 77 0 3 3 4 95 5 1 4 4 29 4 78 0 0 0 27 0 27 23 35 19 39 6 8 26 
CALL[ ]	/* CallFunction */";
};
width = 600;
}
);
note = two;
unicode = 50;
},
{
glyphname = three;
layers = (
{
layerId = m01;
shapes = (
{
closed = 1;
nodes = (
(490,46,o),
(547,144,o),
(547,205,qs),
(547,277,o),
(469,363,o),
(410,381,q),
(410,387,l),
(454,403,o),
(518,482,o),
(518,534,qs),
(518,583,o),
(470,664,o),
(377,712,o),
(308,712,qs),
(244,712,o),
(147,662,o),
(91,575,o),
(89,518,q),
(173,518,l),
(178,570,o),
(250,635,o),
(308,635,qs),
(368,635,o),
(433,575,o),
(433,528,qs),
(433,472,o),
(352,414,o),
(284,414,qs),
(231,414,l),
(231,338,l),
(292,338,ls),
(339,338,o),
(416,309,o),
(462,250,o),
(462,205,qs),
(462,140,o),
(382,65,o),
(309,65,qs),
(234,65,o),
(150,148,o),
(148,208,q),
(62,208,l),
(65,137,o),
(131,39,o),
(240,-12,o),
(309,-12,qs),
(383,-12,o)
);
}
);
userData = {
assembly = "NPUSHB[ ]	/* 75 values pushed */
39 1 3 4 1 76 0 6 5 4 5 6 4 128 0 1 3 2 3 1 2 128 0 4 0 3 1 4 3 105 0 5 5 7 97 0 7 7 34 77 0 2 2 0 97 8 1 0 0 35 0 78 1 0 33 31 28 27 25 23 19 17 16 14 9 7 5 4 0 46 1 46 9 8 22 
CALL[ ]	/* CallFunction */";
};
width = 600;
}
);
note = three;
unicode = 51;
},
{
glyphname = four;
layers = (
{
layerId = m01;
shapes = (
{
closed = 1;
nodes = (
(470,162,l),
(570,162,l),
(570,238,l),
(470,238,l),
(470,700,l),
(370,700,l),
(51,227,l),
(51,162,l),
(386,162,l),
(386,0,l),
(470,0,l)
);
},
{
closed = 1;
nodes = (
(390,238,l),
(145,238,l),
(390,602,l)
);
}
);
userData = {
assembly = "NPUSHB[ ]	/* 47 values pushed */
13 1 2 1 3 1 0 2 2 76 5 1 2 3 1 0 4 2 0 104 0 1 1 28 77 6 1 4 4 29 4 78 0 0 12 11 0 10 0 10 17 17 18 17 7 8 26 
CALL[ ]	/* CallFunction */";
};
width = 600;
}
);
note = four;
unicode = 52;
},
{
glyphname = five;
layers = (
{
layerId = m01;
shapes = (
{
closed = 1;
nodes = (
(486,56,o),
(543,169,o),
(543,237,qs),
(543,310,o),
(485,419,o),
(382,478,o),
(313,478,qs),
(261,478,o),
(182,440,o),
(159,415,q),
(154,415,l),
(191,623,l),
(499,623,l),
(499,700,l),
(125,700,l),
(65,313,l),
(145,313,l),
(169,352,o),
(248,403,o),
(304,403,qs),
(374,403,o),
(462,314,o),
(462,236,qs),
(462,162,o),
(376,65,o),
(301,65,qs),
(237,65,o),
(153,136,o),
(144,193,q),
(58,193,l),
(64,134,o),
(124,42,o),
(228,-12,o),
(300,-12,qs),
(377,-12,o)
);
}
);
userData = {
assembly = "PUSHB[ ]	/* 6 values pushed */
23 1 3 7 1 76 
MPPEM[ ]	/* MeasurePixelPerEm */
PUSHB[ ]	/* 1 value pushed */
27 
LT[ ]	/* LessThan */
IF[ ]	/* If */
NPUSHB[ ]	/* 47 values pushed */
0 4 3 1 3 4 1 128 0 1 2 3 1 2 126 0 6 6 5 95 0 5 5 28 77 0 3 3 7 97 0 7 7 31 77 0 2 2 0 97 8 1 0 0 35 0 78 
ELSE[ ]	/* Else */
NPUSHB[ ]	/* 45 values pushed */
0 4 3 1 3 4 1 128 0 1 2 3 1 2 126 0 7 0 3 4 7 3 105 0 6 6 5 95 0 5 5 28 77 0 2 2 0 97 8 1 0 0 35 0 78 
EIF[ ]	/* EndIf */
NPUSHB[ ]	/* 23 values pushed */
1 0 28 26 22 21 20 19 18 17 15 13 9 7 5 4 0 34 1 34 9 8 22 
CALL[ ]	/* CallFunction */";
};
width = 600;
}
);
note = five;
unicode = 53;
},
{
glyphname = six;
layers = (
{
layerId = m01;
shapes = (
{
closed = 1;
nodes = (
(489,52,o),
(546,159,o),
(546,223,qs),
(546,288,o),
(487,390,o),
(387,448,o),
(324,448,qs),
(256,448,o),
(160,384,o),
(137,341,q),
(132,341,l),
(136,442,o),
(189,573,o),
(272,636,o),
(322,636,qs),
(379,636,o),
(455,573,o),
(465,520,q),
(544,520,l),
(539,574,o),
(484,661,o),
(389,712,o),
(322,712,qs),
(237,712,o),
(116,613,o),
(52,438,o),
(52,323,qs),
(52,228,o),
(107,77,o),
(222,-12,o),
(314,-12,qs),
(384,-12,o)
);
},
{
closed = 1;
nodes = (
(193,104,o),
(154,174,o),
(154,218,qs),
(154,262,o),
(193,332,o),
(262,372,o),
(308,372,qs),
(377,372,o),
(461,285,o),
(461,218,qs),
(461,152,o),
(377,64,o),
(308,64,qs),
(262,64,o)
);
}
);
userData = {
assembly = "NPUSHB[ ]	/* 70 values pushed */
20 1 5 6 1 76 0 2 3 4 3 2 4 128 0 4 0 6 5 4 6 105 0 3 3 1 97 0 1 1 34 77 8 1 5 5 0 97 7 1 0 0 35 0 78 33 32 1 0 39 37 32 45 33 45 25 23 17 15 13 12 9 7 0 31 1 31 9 8 22 
CALL[ ]	/* CallFunction */";
};
width = 600;
}
);
note = six;
unicode = 54;
},
{
glyphname = seven;
layers = (
{
layerId = m01;
shapes = (
{
closed = 1;
nodes = (
(532,633,l),
(532,700,l),
(63,700,l),
(63,624,l),
(445,624,l),
(172,0,l),
(261,0,l)
);
}
);
userData = {
assembly = "NPUSHB[ ]	/* 34 values pushed */
5 1 0 1 1 76 0 0 0 1 95 0 1 1 28 77 3 1 2 2 29 2 78 0 0 0 6 0 6 17 17 4 8 24 
CALL[ ]	/* CallFunction */";
};
width = 600;
}
);
note = seven;
unicode = 55;
},
{
glyphname = eight;
layers = (
{
layerId = m01;
shapes = (
{
closed = 1;
nodes = (
(475,41,o),
(535,133,o),
(535,192,qs),
(535,258,o),
(465,350,o),
(419,368,q),
(419,373,l),
(463,394,o),
(516,473,o),
(516,526,qs),
(516,577,o),
(461,662,o),
(364,712,o),
(300,712,qs),
(235,712,o),
(137,662,o),
(84,577,o),
(84,526,qs),
(84,473,o),
(137,394,o),
(181,373,q),
(181,368,l),
(135,350,o),
(65,258,o),
(65,192,qs),
(65,133,o),
(125,41,o),
(230,-12,o),
(300,-12,qs),
(370,-12,o)
);
},
{
closed = 1;
nodes = (
(167,469,o),
(167,521,qs),
(167,572,o),
(238,637,o),
(300,637,qs),
(362,637,o),
(433,572,o),
(433,521,qs),
(433,469,o),
(362,404,o),
(300,404,qs),
(238,404,o)
);
},
{
closed = 1;
nodes = (
(150,133,o),
(150,199,qs),
(150,264,o),
(233,333,o),
(300,333,qs),
(367,333,o),
(450,264,o),
(450,199,qs),
(450,133,o),
(367,64,o),
(300,64,qs),
(233,64,o)
);
}
);
userData = {
assembly = "NPUSHB[ ]	/* 66 values pushed */
22 7 2 5 2 1 76 7 1 2 0 5 4 2 5 105 0 3 3 1 97 0 1 1 34 77 8 1 4 4 0 97 6 1 0 0 35 0 78 43 42 31 30 1 0 49 47 42 53 43 53 37 35 30 41 31 41 16 14 0 29 1 29 9 8 22 
CALL[ ]	/* CallFunction */";
};
width = 600;
}
);
note = eight;
unicode = 56;
},
{
glyphname = nine;
layers = (
{
layerId = m01;
shapes = (
{
closed = 1;
nodes = (
(491,87,o),
(553,262,o),
(553,377,qs),
(553,532,o),
(423,712,o),
(291,712,qs),
(221,712,o),
(116,648,o),
(59,541,o),
(59,477,qs),
(59,412,o),
(118,310,o),
(218,252,o),
(281,252,qs),
(357,252,o),
(441,312,o),
(468,359,q),
(474,359,l),
(467,207,o),
(367,64,o),
(288,64,qs),
(228,64,o),
(151,127,o),
(142,180,q),
(61,180,l),
(66,126,o),
(125,39,o),
(224,-12,o),
(288,-12,qs),
(373,-12,o)
);
},
{
closed = 1;
nodes = (
(144,415,o),
(144,482,qs),
(144,548,o),
(227,636,o),
(297,636,qs),
(367,636,o),
(451,548,o),
(451,482,qs),
(451,416,o),
(367,328,o),
(297,328,qs),
(227,328,o)
);
}
);
userData = {
assembly = "NPUSHB[ ]	/* 70 values pushed */
11 1 5 6 1 76 0 1 3 2 3 1 2 128 8 1 5 0 3 1 5 3 105 0 6 6 4 97 0 4 4 34 77 0 2 2 0 97 7 1 0 0 35 0 78 31 30 1 0 37 35 30 41 31 41 24 22 16 14 9 7 5 4 0 29 1 29 9 8 22 
CALL[ ]	/* CallFunction */";
};
width = 600;
}
);
note = nine;
unicode = 57;
},
{
glyphname = three.ss04;
layers = (
{
layerId = m01;
shapes = (
{
closed = 1;
nodes = (
(482,47,o),
(541,148,o),
(541,213,qs),
(541,279,o),
(486,378,o),
(387,432,o),
(322,432,qs),
(318,432,l),
(318,438,l),
(510,629,l),
(510,700,l),
(93,700,l),
(93,626,l),
(400,626,l),
(207,428,l),
(207,362,l),
(294,362,ls),
(369,362,o),
(456,282,o),
(456,213,qs),
(456,145,o),
(374,65,o),
(301,65,qs),
(227,65,o),
(143,148,o),
(139,209,q),
(55,209,l),
(59,138,o),
(124,40,o),
(232,-12,o),
(301,-12,qs),
(374,-12,o)
);
}
);
userData = {
assembly = "NPUSHB[ ]	/* 69 values pushed */
21 1 4 5 16 1 3 6 2 76 0 1 3 2 3 1 2 128 0 6 0 3 1 6 3 103 0 4 4 5 95 0 5 5 28 77 0 2 2 0 97 7 1 0 0 35 0 78 1 0 25 24 20 19 18 17 15 13 9 7 5 4 0 31 1 31 8 8 22 
CALL[ ]	/* CallFunction */";
};
width = 600;
}
);
note = three.ss04;
},
{
glyphname = six.ss04;
layers = (
{
layerId = m01;
shapes = (
{
closed = 1;
nodes = (
(485,50,o),
(546,156,o),
(546,220,qs),
(546,286,o),
(488,389,o),
(388,448,o),
(326,448,qs),
(294,448,o),
(226,426,o),
(207,406,q),
(201,410,l),
(407,700,l),
(304,700,l),
(155,479,ls),
(119,426,o),
(65,313,o),
(65,238,qs),
(65,160,o),
(127,48,o),
(237,-12,o),
(308,-12,qs),
(378,-12,o)
);
},
{
closed = 1;
nodes = (
(154,152,o),
(154,218,qs),
(154,284,o),
(239,372,o),
(308,372,qs),
(354,372,o),
(423,332,o),
(461,262,o),
(461,218,qs),
(461,174,o),
(423,105,o),
(354,64,o),
(308,64,qs),
(239,64,o)
);
}
);
userData = {
assembly = "NPUSHB[ ]	/* 53 values pushed */
11 1 4 2 1 76 0 2 0 4 3 2 4 106 0 1 1 28 77 6 1 3 3 0 97 5 1 0 0 35 0 78 23 22 1 0 31 29 22 35 23 35 15 13 9 8 0 21 1 21 7 8 22 
CALL[ ]	/* CallFunction */";
};
width = 600;
}
);
note = six.ss04;
},
{
glyphname = nine.ss04;
layers = (
{
layerId = m01;
shapes = (
{
closed = 1;
nodes = (
(445,218,ls),
(481,272,o),
(536,392,o),
(536,468,qs),
(536,543,o),
(473,653,o),
(363,712,o),
(292,712,qs),
(221,712,o),
(114,650,o),
(54,544,o),
(54,480,qs),
(54,414,o),
(113,311,o),
(213,252,o),
(274,252,qs),
(306,252,o),
(374,274,o),
(393,294,q),
(399,290,l),
(193,0,l),
(296,0,l)
);
},
{
closed = 1;
nodes = (
(177,368,o),
(139,438,o),
(139,482,qs),
(139,526,o),
(177,595,o),
(246,636,o),
(292,636,qs),
(361,636,o),
(446,548,o),
(446,482,qs),
(446,416,o),
(361,328,o),
(292,328,qs),
(246,328,o)
);
}
);
userData = {
assembly = "NPUSHB[ ]	/* 51 values pushed */
2 1 0 3 1 76 6 1 3 0 0 2 3 0 105 0 4 4 1 97 0 1 1 34 77 5 1 2 2 29 2 78 23 22 0 0 29 27 22 35 23 35 0 21 0 21 38 36 7 8 24 
CALL[ ]	/* CallFunction */";
};
width = 600;
}
);
note = nine.ss04;
},
{
glyphname = uni00B9;
layers = (
{
layerId = m01;
shapes = (
{
closed = 1;
nodes = (
(439,341,l),
(329,341,l),
(329,700,l),
(288,700,l),
(163,658,l),
(163,603,l),
(261,620,l),
(261,341,l),
(158,341,l),
(158,280,l),
(439,280,l)
);
}
);
userData = {
assembly = "NPUSHB[ ]	/* 38 values pushed */
5 4 3 3 0 1 1 76 0 1 1 44 77 2 1 0 0 3 95 4 1 3 3 45 3 78 0 0 0 10 0 10 17 20 17 5 9 25 
CALL[ ]	/* CallFunction */";
};
width = 600;
}
);
note = uni00B9;
unicode = 185;
},
{
glyphname = uni00B2;
layers = (
{
layerId = m01;
shapes = (
{
closed = 1;
nodes = (
(448,338,l),
(262,338,l),
(303,370,o),
(384,446,o),
(437,532,o),
(437,580,qs),
(437,638,o),
(367,707,o),
(303,707,qs),
(244,707,o),
(164,638,o),
(163,571,q),
(229,571,l),
(229,601,o),
(267,646,o),
(303,646,qs),
(333,646,o),
(367,609,o),
(367,578,qs),
(367,540,o),
(315,464,o),
(223,382,o),
(162,334,q),
(162,280,l),
(448,280,l)
);
}
);
userData = {
assembly = "NPUSHB[ ]	/* 49 values pushed */
1 1 4 3 1 76 0 1 0 3 0 1 3 128 0 0 0 2 97 0 2 2 44 77 0 3 3 4 95 5 1 4 4 45 4 78 0 0 0 24 0 24 22 34 18 39 6 9 26 
CALL[ ]	/* CallFunction */";
};
width = 600;
}
);
note = uni00B2;
unicode = 178;
},
{
glyphname = uni00B3;
layers = (
{
layerId = m01;
shapes = (
{
closed = 1;
nodes = (
(450,349,o),
(450,402,qs),
(450,445,o),
(406,498,o),
(371,508,q),
(371,512,l),
(396,521,o),
(433,566,o),
(433,597,qs),
(433,644,o),
(367,707,o),
(302,707,qs),
(243,707,o),
(167,641,o),
(164,585,q),
(231,585,l),
(233,611,o),
(271,645,o),
(302,645,qs),
(331,645,o),
(365,615,o),
(365,590,qs),
(365,532,o),
(287,532,qs),
(255,532,l),
(255,473,l),
(292,473,ls),
(330,473,o),
(383,440,o),
(383,404,qs),
(383,372,o),
(340,335,o),
(303,335,qs),
(265,335,o),
(221,377,o),
(219,409,q),
(152,409,l),
(154,344,o),
(240,273,o),
(302,273,qs),
(372,273,o)
);
}
);
userData = {
assembly = "NPUSHB[ ]	/* 75 values pushed */
34 1 3 4 1 76 0 6 5 4 5 6 4 128 0 1 3 2 3 1 2 128 0 4 0 3 1 4 3 105 0 5 5 7 97 0 7 7 44 77 0 2 2 0 97 8 1 0 0 47 0 78 1 0 29 27 25 24 22 20 17 15 14 12 8 6 4 3 0 40 1 40 9 9 22 
CALL[ ]	/* CallFunction */";
};
width = 600;
}
);
note = uni00B3;
unicode = 179;
},
{
glyphname = uni2074;
layers = (
{
layerId = m01;
shapes = (
{
closed = 1;
nodes = (
(413,368,l),
(470,368,l),
(470,430,l),
(413,430,l),
(413,700,l),
(332,700,l),
(146,423,l),
(146,368,l),
(345,368,l),
(345,280,l),
(413,280,l)
);
},
{
closed = 1;
nodes = (
(349,430,l),
(222,430,l),
(349,624,l)
);
}
);
userData = {
assembly = "NPUSHB[ ]	/* 47 values pushed */
13 1 2 1 3 1 0 2 2 76 5 1 2 3 1 0 4 2 0 103 0 1 1 44 77 6 1 4 4 45 4 78 0 0 12 11 0 10 0 10 17 17 18 17 7 9 26 
CALL[ ]	/* CallFunction */";
};
width = 600;
}
);
note = uni2074;
unicode = 8308;
},
{
glyphname = fraction;
layers = (
{
layerId = m01;
shapes = (
{
closed = 1;
nodes = (
(494,380,l),
(106,380,l),
(106,324,l),
(494,324,l)
);
}
);
userData = {
assembly = "NPUSHB[ ]	/* 27 values pushed */
0 0 1 1 0 87 0 0 0 1 95 2 1 1 0 1 79 0 0 0 3 0 3 17 3 8 23 
CALL[ ]	/* CallFunction */";
};
width = 600;
}
);
note = fraction;
unicode = 8260;
},
{
glyphname = onehalf;
layers = (
{
layerId = m01;
shapes = (
{
closed = 1;
nodes = (
(411,475,l),
(335,475,l),
(335,699,l),
(298,699,l),
(203,670,l),
(203,614,l),
(268,622,l),
(268,475,l),
(200,475,l),
(200,417,l),
(411,417,l)
);
},
{
closed = 1;
nodes = (
(494,380,l),
(106,380,l),
(106,324,l),
(494,324,l)
);
},
{
closed = 1;
nodes = (
(409,54,l),
(287,54,l),
(311,71,o),
(364,115,o),
(401,169,o),
(401,200,qs),
(401,239,o),
(348,286,o),
(300,286,qs),
(259,286,o),
(199,241,o),
(195,189,q),
(259,189,l),
(259,204,o),
(279,227,o),
(300,227,qs),
(316,227,o),
(333,209,o),
(333,195,qs),
(333,163,o),
(254,94,o),
(194,53,q),
(194,0,l),
(409,0,l)
);
}
);
userData = {
assembly = "PUSHB[ ]	/* 2 values pushed */
6 100 
WCVTP[ ]	/* WriteCVTInPixels */
NPUSHB[ ]	/* 12 values pushed */
5 4 3 3 0 1 16 1 10 9 2 76 
MPPEM[ ]	/* MeasurePixelPerEm */
PUSHB[ ]	/* 1 value pushed */
9 
LT[ ]	/* LessThan */
IF[ ]	/* If */
NPUSHB[ ]	/* 56 values pushed */
0 1 0 1 133 0 7 6 9 5 7 114 2 1 0 11 1 3 4 0 3 104 0 4 12 1 5 8 4 5 103 0 8 0 6 7 8 6 105 0 9 10 10 9 87 0 9 9 10 95 13 1 10 9 10 79 
ELSE[ ]	/* Else */
NPUSHB[ ]	/* 57 values pushed */
0 1 0 1 133 0 7 6 9 6 7 9 128 2 1 0 11 1 3 4 0 3 104 0 4 12 1 5 8 4 5 103 0 8 0 6 7 8 6 105 0 9 10 10 9 87 0 9 9 10 95 13 1 10 9 10 79 
EIF[ ]	/* EndIf */
NPUSHB[ ]	/* 34 values pushed */
15 15 11 11 0 0 15 38 15 38 37 36 30 28 26 25 23 21 11 14 11 14 13 12 0 10 0 10 17 20 17 14 8 25 
CALL[ ]	/* CallFunction */
PUSHB[ ]	/* 2 values pushed */
6 0 
WCVTP[ ]	/* WriteCVTInPixels */";
};
width = 600;
}
);
note = onehalf;
unicode = 189;
},
{
glyphname = onequarter;
layers = (
{
layerId = m01;
shapes = (
{
closed = 1;
nodes = (
(411,475,l),
(335,475,l),
(335,699,l),
(298,699,l),
(203,670,l),
(203,614,l),
(268,622,l),
(268,475,l),
(200,475,l),
(200,417,l),
(411,417,l)
);
},
{
closed = 1;
nodes = (
(494,380,l),
(106,380,l),
(106,324,l),
(494,324,l)
);
},
{
closed = 1;
nodes = (
(372,50,l),
(402,50,l),
(402,107,l),
(372,107,l),
(372,281,l),
(293,281,l),
(166,102,l),
(166,50,l),
(305,50,l),
(305,-1,l),
(372,-1,l)
);
},
{
closed = 1;
nodes = (
(310,107,l),
(238,107,l),
(310,211,l)
);
}
);
userData = {
assembly = "PUSHB[ ]	/* 2 values pushed */
6 100 
WCVTP[ ]	/* WriteCVTInPixels */
NPUSHB[ ]	/* 16 values pushed */
5 4 3 3 0 1 28 1 8 7 18 1 6 8 3 76 
MPPEM[ ]	/* MeasurePixelPerEm */
PUSHB[ ]	/* 1 value pushed */
25 
LT[ ]	/* LessThan */
IF[ ]	/* If */
NPUSHB[ ]	/* 58 values pushed */
0 1 0 1 133 0 7 5 8 5 7 8 128 14 1 10 6 6 10 113 2 1 0 12 1 3 4 0 3 104 0 4 13 1 5 7 4 5 103 11 1 8 6 6 8 87 11 1 8 8 6 96 9 1 6 8 6 80 
ELSE[ ]	/* Else */
NPUSHB[ ]	/* 57 values pushed */
0 1 0 1 133 0 7 5 8 5 7 8 128 14 1 10 6 10 134 2 1 0 12 1 3 4 0 3 104 0 4 13 1 5 7 4 5 103 11 1 8 6 6 8 87 11 1 8 8 6 96 9 1 6 8 6 80 
EIF[ ]	/* EndIf */
NPUSHB[ ]	/* 36 values pushed */
15 15 11 11 0 0 27 26 15 25 15 25 24 23 22 21 20 19 17 16 11 14 11 14 13 12 0 10 0 10 17 20 17 15 8 25 
CALL[ ]	/* CallFunction */
PUSHB[ ]	/* 2 values pushed */
6 0 
WCVTP[ ]	/* WriteCVTInPixels */";
};
width = 600;
}
);
note = onequarter;
unicode = 188;
},
{
glyphname = threequarters;
layers = (
{
layerId = m01;
shapes = (
{
closed = 1;
nodes = (
(410,464,o),
(410,499,qs),
(410,530,o),
(378,564,o),
(356,570,q),
(356,572,l),
(373,578,o),
(398,606,o),
(398,626,qs),
(398,660,o),
(349,704,o),
(298,704,qs),
(253,704,o),
(196,656,o),
(194,615,q),
(258,615,l),
(258,627,o),
(280,645,o),
(298,645,qs),
(334,645,o),
(334,618,qs),
(334,601,o),
(307,590,o),
(289,590,qs),
(264,590,l),
(264,537,l),
(293,537,ls),
(315,537,o),
(346,521,o),
(346,503,qs),
(346,488,o),
(321,472,o),
(300,472,qs),
(281,472,o),
(253,490,o),
(251,508,q),
(187,508,l),
(190,463,o),
(253,413,o),
(299,413,qs),
(353,413,o)
);
},
{
closed = 1;
nodes = (
(494,380,l),
(106,380,l),
(106,324,l),
(494,324,l)
);
},
{
closed = 1;
nodes = (
(372,50,l),
(402,50,l),
(402,107,l),
(372,107,l),
(372,281,l),
(293,281,l),
(166,102,l),
(166,50,l),
(305,50,l),
(305,0,l),
(372,0,l)
);
},
{
closed = 1;
nodes = (
(310,107,l),
(238,107,l),
(310,211,l)
);
}
);
userData = {
assembly = "PUSHB[ ]	/* 2 values pushed */
6 100 
WCVTP[ ]	/* WriteCVTInPixels */
NPUSHB[ ]	/* 14 values pushed */
34 1 3 4 58 1 12 11 48 1 10 12 3 76 
MPPEM[ ]	/* MeasurePixelPerEm */
PUSHB[ ]	/* 1 value pushed */
9 
LT[ ]	/* LessThan */
IF[ ]	/* If */
NPUSHB[ ]	/* 82 values pushed */
0 6 5 4 5 6 114 0 1 3 2 8 1 114 0 11 9 12 9 11 12 128 18 1 14 10 10 14 113 0 7 0 5 6 7 5 105 0 4 0 3 1 4 3 105 0 2 16 1 0 8 2 0 105 0 8 17 1 9 11 8 9 104 15 1 12 10 10 12 87 15 1 12 12 10 96 13 1 10 12 10 80 
ELSE[ ]	/* Else */
MPPEM[ ]	/* MeasurePixelPerEm */
PUSHB[ ]	/* 1 value pushed */
25 
LT[ ]	/* LessThan */
IF[ ]	/* If */
NPUSHB[ ]	/* 83 values pushed */
0 6 5 4 5 6 114 0 1 3 2 3 1 2 128 0 11 9 12 9 11 12 128 18 1 14 10 10 14 113 0 7 0 5 6 7 5 105 0 4 0 3 1 4 3 105 0 2 16 1 0 8 2 0 105 0 8 17 1 9 11 8 9 104 15 1 12 10 10 12 87 15 1 12 12 10 96 13 1 10 12 10 80 
ELSE[ ]	/* Else */
MPPEM[ ]	/* MeasurePixelPerEm */
PUSHB[ ]	/* 1 value pushed */
42 
LT[ ]	/* LessThan */
IF[ ]	/* If */
NPUSHB[ ]	/* 82 values pushed */
0 6 5 4 5 6 114 0 1 3 2 3 1 2 128 0 11 9 12 9 11 12 128 18 1 14 10 14 134 0 7 0 5 6 7 5 105 0 4 0 3 1 4 3 105 0 2 16 1 0 8 2 0 105 0 8 17 1 9 11 8 9 104 15 1 12 10 10 12 87 15 1 12 12 10 96 13 1 10 12 10 80 
ELSE[ ]	/* Else */
NPUSHB[ ]	/* 83 values pushed */
0 6 5 4 5 6 4 128 0 1 3 2 3 1 2 128 0 11 9 12 9 11 12 128 18 1 14 10 14 134 0 7 0 5 6 7 5 105 0 4 0 3 1 4 3 105 0 2 16 1 0 8 2 0 105 0 8 17 1 9 11 8 9 104 15 1 12 10 10 12 87 15 1 12 12 10 96 13 1 10 12 10 80 
EIF[ ]	/* EndIf */
EIF[ ]	/* EndIf */
EIF[ ]	/* EndIf */
NPUSHB[ ]	/* 47 values pushed */
45 45 41 41 1 0 57 56 45 55 45 55 54 53 52 51 50 49 47 46 41 44 41 44 43 42 29 27 25 24 22 20 17 15 14 12 8 6 4 3 0 40 1 40 19 8 22 
CALL[ ]	/* CallFunction */
PUSHB[ ]	/* 2 values pushed */
6 0 
WCVTP[ ]	/* WriteCVTInPixels */";
};
width = 600;
}
);
note = threequarters;
unicode = 190;
},
{
glyphname = period;
layers = (
{
layerId = m01;
shapes = (
{
closed = 1;
nodes = (
(375,40,o),
(375,71,qs),
(375,101,o),
(331,143,o),
(300,143,qs),
(269,143,o),
(225,101,o),
(225,71,qs),
(225,40,o),
(269,-2,o),
(300,-2,qs),
(331,-2,o)
);
}
);
userData = {
assembly = "NPUSHB[ ]	/* 23 values pushed */
0 1 1 0 97 2 1 0 0 29 0 78 1 0 7 5 0 11 1 11 3 8 22 
CALL[ ]	/* CallFunction */";
};
width = 600;
}
);
note = period;
unicode = 46;
},
{
glyphname = comma;
layers = (
{
layerId = m01;
shapes = (
{
closed = 1;
nodes = (
(363,147,l),
(252,147,l),
(164,-122,l),
(244,-122,l)
);
}
);
userData = {
assembly = "NPUSHB[ ]	/* 20 values pushed */
0 0 1 0 133 2 1 1 1 118 0 0 0 3 0 3 17 3 8 23 
CALL[ ]	/* CallFunction */";
};
width = 600;
}
);
note = comma;
unicode = 44;
},
{
glyphname = ellipsis;
layers = (
{
layerId = m01;
shapes = (
{
closed = 1;
nodes = (
(170,40,o),
(170,71,qs),
(170,101,o),
(128,143,o),
(98,143,qs),
(67,143,o),
(25,101,o),
(25,71,qs),
(25,40,o),
(67,-2,o),
(98,-2,qs),
(128,-2,o)
);
},
{
closed = 1;
nodes = (
(373,40,o),
(373,71,qs),
(373,101,o),
(330,143,o),
(300,143,qs),
(270,143,o),
(227,101,o),
(227,71,qs),
(227,40,o),
(270,-2,o),
(300,-2,qs),
(330,-2,o)
);
},
{
closed = 1;
nodes = (
(575,40,o),
(575,71,qs),
(575,101,o),
(533,143,o),
(502,143,qs),
(472,143,o),
(430,101,o),
(430,71,qs),
(430,40,o),
(472,-2,o),
(502,-2,qs),
(533,-2,o)
);
}
);
userData = {
assembly = "NPUSHB[ ]	/* 45 values pushed */
5 3 2 1 1 0 97 8 4 7 2 6 5 0 0 29 0 78 25 24 13 12 1 0 31 29 24 35 25 35 19 17 12 23 13 23 7 5 0 11 1 11 9 8 22 
CALL[ ]	/* CallFunction */";
};
width = 600;
}
);
note = ellipsis;
unicode = 8230;
},
{
glyphname = exclam;
layers = (
{
layerId = m01;
shapes = (
{
closed = 1;
nodes = (
(351,700,l),
(249,700,l),
(260,249,l),
(339,249,l)
);
},
{
closed = 1;
nodes = (
(375,40,o),
(375,71,qs),
(375,101,o),
(332,143,o),
(300,143,qs),
(269,143,o),
(225,101,o),
(225,71,qs),
(225,40,o),
(269,-2,o),
(300,-2,qs),
(332,-2,o)
);
}
);
userData = {
assembly = "NPUSHB[ ]	/* 41 values pushed */
4 1 1 1 0 95 0 0 0 28 77 0 3 3 2 97 5 1 2 2 29 2 78 5 4 0 0 11 9 4 15 5 15 0 3 0 3 17 6 8 23 
CALL[ ]	/* CallFunction */";
};
width = 600;
}
);
note = exclam;
unicode = 33;
},
{
glyphname = exclamdown;
layers = (
{
layerId = m01;
shapes = (
{
closed = 1;
nodes = (
(375,405,o),
(375,435,qs),
(375,465,o),
(331,508,o),
(300,508,qs),
(269,508,o),
(225,465,o),
(225,435,qs),
(225,405,o),
(269,362,o),
(300,362,qs),
(331,362,o)
);
},
{
closed = 1;
nodes = (
(340,257,l),
(261,257,l),
(249,-220,l),
(351,-220,l)
);
}
);
userData = {
assembly = "NPUSHB[ ]	/* 42 values pushed */
4 1 0 0 1 97 0 1 1 37 77 0 2 2 3 95 5 1 3 3 33 3 78 12 12 1 0 12 15 12 15 14 13 7 5 0 11 1 11 6 8 22 
CALL[ ]	/* CallFunction */";
};
width = 600;
}
);
note = exclamdown;
unicode = 161;
},
{
glyphname = question;
layers = (
{
layerId = m01;
shapes = (
{
closed = 1;
nodes = (
(295,299,l),
(349,303,o),
(447,347,o),
(508,435,o),
(508,507,qs),
(508,602,o),
(389,712,o),
(290,712,qs),
(225,712,o),
(128,661,o),
(73,571,o),
(71,512,q),
(151,512,l),
(155,569,o),
(229,636,o),
(290,636,qs),
(353,636,o),
(426,567,o),
(426,506,qs),
(426,427,o),
(330,359,o),
(246,359,qs),
(215,359,l),
(220,211,l),
(292,211,l)
);
},
{
closed = 1;
nodes = (
(329,40,o),
(329,71,qs),
(329,101,o),
(286,143,o),
(254,143,qs),
(223,143,o),
(179,101,o),
(179,71,qs),
(179,40,o),
(223,-2,o),
(254,-2,qs),
(286,-2,o)
);
}
);
userData = {
assembly = "NPUSHB[ ]	/* 66 values pushed */
23 1 4 0 1 76 0 2 1 0 1 2 0 128 0 0 7 1 4 6 0 4 103 0 1 1 3 97 0 3 3 34 77 0 6 6 5 97 8 1 5 5 29 5 78 26 25 0 0 32 30 25 36 26 36 0 24 0 24 35 18 36 33 9 8 26 
CALL[ ]	/* CallFunction */";
};
width = 600;
}
);
note = question;
unicode = 63;
},
{
glyphname = questiondown;
layers = (
{
layerId = m01;
shapes = (
{
closed = 1;
nodes = (
(400,405,o),
(400,435,qs),
(400,465,o),
(356,508,o),
(325,508,qs),
(294,508,o),
(250,465,o),
(250,435,qs),
(250,405,o),
(294,362,o),
(325,362,qs),
(356,362,o)
);
},
{
closed = 1;
nodes = (
(451,-181,o),
(506,-91,o),
(508,-32,q),
(428,-32,l),
(424,-88,o),
(350,-156,o),
(289,-156,qs),
(226,-156,o),
(153,-87,o),
(153,-26,qs),
(153,53,o),
(249,121,o),
(333,121,qs),
(364,121,l),
(359,294,l),
(287,294,l),
(284,181,l),
(230,177,o),
(132,133,o),
(71,45,o),
(71,-27,qs),
(71,-122,o),
(190,-232,o),
(289,-232,qs),
(354,-232,o)
);
}
);
userData = {
assembly = "NPUSHB[ ]	/* 70 values pushed */
19 1 4 3 1 76 0 6 4 5 4 6 5 128 0 3 0 4 6 3 4 105 7 1 0 0 1 97 0 1 1 37 77 0 5 5 2 97 8 1 2 2 39 2 78 13 12 1 0 33 32 30 28 24 22 21 20 12 36 13 36 7 5 0 11 1 11 9 8 22 
CALL[ ]	/* CallFunction */";
};
width = 600;
}
);
note = questiondown;
unicode = 191;
},
{
glyphname = bullet;
layers = (
{
layerId = m01;
shapes = (
{
closed = 1;
nodes = (
(390,260,o),
(424,316,o),
(424,350,qs),
(424,384,o),
(390,440,o),
(334,474,o),
(300,474,qs),
(266,474,o),
(210,440,o),
(176,384,o),
(176,350,qs),
(176,316,o),
(210,260,o),
(266,226,o),
(300,226,qs),
(334,226,o)
);
}
);
userData = {
assembly = "MPPEM[ ]	/* MeasurePixelPerEm */
PUSHB[ ]	/* 1 value pushed */
23 
LT[ ]	/* LessThan */
IF[ ]	/* If */
NPUSHB[ ]	/* 12 values pushed */
2 1 0 0 1 97 0 1 1 31 0 78 
ELSE[ ]	/* Else */
NPUSHB[ ]	/* 17 values pushed */
0 1 0 0 1 89 0 1 1 0 97 2 1 0 1 0 81 
EIF[ ]	/* EndIf */
NPUSHB[ ]	/* 11 values pushed */
1 0 9 7 0 15 1 15 3 8 22 
CALL[ ]	/* CallFunction */";
};
width = 600;
}
);
note = bullet;
unicode = 8226;
},
{
glyphname = asterisk;
layers = (
{
layerId = m01;
shapes = (
{
closed = 1;
nodes = (
(324,311,l),
(496,194,l),
(536,266,l),
(348,350,l),
(536,435,l),
(496,506,l),
(324,389,l),
(344,599,l),
(256,599,l),
(277,389,l),
(104,506,l),
(64,435,l),
(252,350,l),
(64,266,l),
(104,194,l),
(277,311,l),
(256,101,l),
(344,101,l)
);
}
);
userData = {
assembly = "NPUSHB[ ]	/* 46 values pushed */
16 15 14 13 12 11 10 7 6 5 4 3 2 1 14 1 0 1 76 0 0 1 1 0 87 0 0 0 1 95 2 1 1 0 1 79 0 0 0 17 0 17 24 3 8 23 
CALL[ ]	/* CallFunction */";
};
width = 600;
}
);
note = asterisk;
unicode = 42;
},
{
glyphname = numbersign;
layers = (
{
layerId = m01;
shapes = (
{
closed = 1;
nodes = (
(199,197,l),
(353,197,l),
(322,0,l),
(402,0,l),
(432,197,l),
(544,197,l),
(544,271,l),
(444,271,l),
(469,429,l),
(583,429,l),
(583,503,l),
(480,503,l),
(511,700,l),
(431,700,l),
(401,503,l),
(247,503,l),
(278,700,l),
(198,700,l),
(168,503,l),
(57,503,l),
(57,429,l),
(156,429,l),
(131,271,l),
(17,271,l),
(17,197,l),
(120,197,l),
(89,0,l),
(169,0,l)
);
},
{
closed = 1;
nodes = (
(389,429,l),
(364,271,l),
(211,271,l),
(236,429,l)
);
}
);
userData = {
assembly = "NPUSHB[ ]	/* 70 values pushed */
14 9 2 1 12 10 2 0 11 1 0 103 6 1 4 4 28 77 15 8 2 2 2 3 95 7 5 2 3 3 31 77 16 13 2 11 11 29 11 78 0 0 31 30 29 28 0 27 0 27 26 25 24 23 22 21 20 19 17 17 17 17 17 17 17 17 17 17 8 31 
CALL[ ]	/* CallFunction */";
};
width = 600;
}
);
note = numbersign;
unicode = 35;
},
{
glyphname = slash;
layers = (
{
layerId = m01;
shapes = (
{
closed = 1;
nodes = (
(517,760,l),
(429,760,l),
(83,-90,l),
(170,-90,l)
);
}
);
userData = {
assembly = "NPUSHB[ ]	/* 20 values pushed */
0 0 1 0 133 2 1 1 1 118 0 0 0 3 0 3 17 3 8 23 
CALL[ ]	/* CallFunction */";
};
width = 600;
}
);
note = slash;
unicode = 47;
},
{
glyphname = backslash;
layers = (
{
layerId = m01;
shapes = (
{
closed = 1;
nodes = (
(171,760,l),
(83,760,l),
(430,-90,l),
(517,-90,l)
);
}
);
userData = {
assembly = "NPUSHB[ ]	/* 20 values pushed */
0 0 1 0 133 2 1 1 1 118 0 0 0 3 0 3 17 3 8 23 
CALL[ ]	/* CallFunction */";
};
width = 600;
}
);
note = backslash;
unicode = 92;
},
{
glyphname = comma.ss01;
layers = (
{
layerId = m01;
shapes = (
{
closed = 1;
nodes = (
(376,-52,o),
(376,50,qs),
(376,98,o),
(331,143,o),
(300,143,qs),
(269,143,o),
(225,101,o),
(225,71,qs),
(225,44,o),
(263,-1,o),
(297,-1,qs),
(307,-1,l),
(307,-49,o),
(254,-95,o),
(214,-95,q),
(214,-148,l),
(292,-148,o)
);
}
);
userData = {
assembly = "NPUSHB[ ]	/* 31 values pushed */
0 0 4 1 3 0 3 101 0 2 2 1 97 0 1 1 29 1 78 0 0 0 16 0 16 36 34 17 5 8 25 
CALL[ ]	/* CallFunction */";
};
width = 600;
}
);
note = comma.ss01;
},
{
glyphname = parenleft;
layers = (
{
layerId = m01;
shapes = (
{
closed = 1;
nodes = (
(437,-176,l),
(377,-111,o),
(287,36,o),
(237,208,o),
(237,313,qs),
(237,418,o),
(287,590,o),
(377,737,o),
(437,802,q),
(437,811,l),
(348,811,l),
(296,753,o),
(207,610,o),
(153,429,o),
(153,313,qs),
(153,197,o),
(207,16,o),
(296,-127,o),
(348,-185,q),
(437,-185,l)
);
}
);
userData = {
assembly = "NPUSHB[ ]	/* 27 values pushed */
18 10 2 1 0 1 76 0 0 1 0 133 2 1 1 1 118 0 0 0 19 0 19 24 3 8 23 
CALL[ ]	/* CallFunction */";
};
width = 600;
}
);
note = parenleft;
unicode = 40;
},
{
glyphname = parenright;
layers = (
{
layerId = m01;
shapes = (
{
closed = 1;
nodes = (
(304,-127,o),
(393,16,o),
(447,197,o),
(447,313,qs),
(447,429,o),
(393,610,o),
(304,753,o),
(252,811,q),
(163,811,l),
(163,802,l),
(223,737,o),
(313,590,o),
(363,418,o),
(363,313,qs),
(363,208,o),
(313,36,o),
(223,-111,o),
(163,-176,q),
(163,-185,l),
(252,-185,l)
);
}
);
userData = {
assembly = "NPUSHB[ ]	/* 27 values pushed */
9 1 2 1 0 1 76 0 0 1 0 133 2 1 1 1 118 0 0 0 19 0 19 26 3 8 23 
CALL[ ]	/* CallFunction */";
};
width = 600;
}
);
note = parenright;
unicode = 41;
},
{
glyphname = braceleft;
lastChange = "2021-08-13 03:48:10 +0000";
layers = (
{
layerId = m01;
shapes = (
{
closed = 1;
nodes = (
(358,-112,o),
(257,-66,o),
(257,-16,qs),
(257,11,o),
(277,54,o),
(304,84,qs),
(333,120,o),
(357,167,o),
(357,189,qs),
(357,246,o),
(284,311,o),
(220,320,q),
(220,325,l),
(284,329,o),
(357,386,o),
(357,439,qs),
(357,467,o),
(335,514,o),
(308,548,qs),
(279,582,o),
(257,625,o),
(257,644,qs),
(257,692,o),
(358,735,o),
(488,732,q),
(488,810,l),
(332,814,o),
(191,732,o),
(191,652,qs),
(191,600,o),
(224,537,o),
(240,516,qs),
(258,496,o),
(291,461,o),
(291,434,qs),
(291,390,o),
(213,353,o),
(114,350,q),
(114,299,l),
(213,296,o),
(291,258,o),
(291,212,qs),
(291,185,o),
(258,142,o),
(241,118,qs),
(224,95,o),
(191,27,o),
(191,-23,qs),
(191,-105,o),
(332,-189,o),
(488,-185,q),
(488,-109,l)
);
}
);
userData = {
assembly = "NPUSHB[ ]	/* 58 values pushed */
36 1 1 2 1 76 0 3 0 4 2 3 4 103 0 2 0 1 5 2 1 105 0 5 0 0 5 87 0 5 5 0 95 6 1 0 5 0 79 1 0 48 46 27 25 24 22 14 12 11 9 0 49 1 49 7 8 22 
CALL[ ]	/* CallFunction */";
};
width = 600;
}
);
note = braceleft;
unicode = 123;
},
{
glyphname = braceright;
lastChange = "2021-08-13 03:50:42 +0000";
layers = (
{
layerId = m01;
shapes = (
{
closed = 1;
nodes = (
(114,-185,l),
(270,-189,o),
(411,-105,o),
(411,-23,qs),
(411,27,o),
(378,95,o),
(361,118,qs),
(344,142,o),
(311,185,o),
(311,212,qs),
(311,258,o),
(389,296,o),
(488,299,q),
(488,350,l),
(389,353,o),
(311,390,o),
(311,434,qs),
(311,461,o),
(344,496,o),
(362,516,qs),
(378,537,o),
(411,600,o),
(411,652,qs),
(411,732,o),
(270,814,o),
(114,810,q),
(114,732,l),
(244,735,o),
(345,692,o),
(345,644,qs),
(345,625,o),
(323,582,o),
(294,548,qs),
(267,514,o),
(245,467,o),
(245,439,qs),
(245,386,o),
(318,329,o),
(382,325,q),
(382,320,l),
(318,311,o),
(245,246,o),
(245,189,qs),
(245,167,o),
(269,120,o),
(298,84,qs),
(325,54,o),
(345,11,o),
(345,-16,qs),
(345,-66,o),
(244,-112,o),
(114,-109,q)
);
}
);
userData = {
assembly = "NPUSHB[ ]	/* 57 values pushed */
12 1 4 3 1 76 0 2 0 1 3 2 1 103 0 3 0 4 0 3 4 105 0 0 5 5 0 87 0 0 0 5 95 6 1 5 0 5 79 0 0 0 49 0 48 40 38 37 35 27 25 24 22 33 7 8 23 
CALL[ ]	/* CallFunction */";
};
width = 600;
}
);
note = braceright;
unicode = 125;
},
{
glyphname = bracketleft;
layers = (
{
layerId = m01;
shapes = (
{
closed = 1;
nodes = (
(425,-110,l),
(274,-110,ls),
(250,-110,o),
(250,-85,qs),
(250,712,ls),
(250,737,o),
(274,737,qs),
(425,737,l),
(425,811,l),
(266,811,ls),
(220,811,o),
(171,761,o),
(171,715,qs),
(171,-89,ls),
(171,-135,o),
(220,-185,o),
(266,-185,qs),
(425,-185,l)
);
}
);
userData = {
assembly = "NPUSHB[ ]	/* 40 values pushed */
0 1 0 2 3 1 2 103 0 3 0 0 3 87 0 3 3 0 95 4 1 0 3 0 79 1 0 16 14 11 9 8 6 0 17 1 17 5 8 22 
CALL[ ]	/* CallFunction */";
};
width = 600;
}
);
note = bracketleft;
unicode = 91;
},
{
glyphname = bracketright;
layers = (
{
layerId = m01;
shapes = (
{
closed = 1;
nodes = (
(380,-185,o),
(429,-135,o),
(429,-89,qs),
(429,715,ls),
(429,761,o),
(380,811,o),
(334,811,qs),
(175,811,l),
(175,737,l),
(326,737,ls),
(350,737,o),
(350,712,qs),
(350,-85,ls),
(350,-110,o),
(326,-110,qs),
(175,-110,l),
(175,-185,l),
(334,-185,ls)
);
}
);
userData = {
assembly = "NPUSHB[ ]	/* 37 values pushed */
0 2 0 1 0 2 1 103 0 0 3 3 0 87 0 0 0 3 95 4 1 3 0 3 79 0 0 0 17 0 16 33 35 33 5 8 25 
CALL[ ]	/* CallFunction */";
};
width = 600;
}
);
note = bracketright;
unicode = 93;
},
{
glyphname = hyphen;
layers = (
{
layerId = m01;
shapes = (
{
closed = 1;
nodes = (
(465,386,l),
(135,386,l),
(135,314,l),
(465,314,l)
);
}
);
userData = {
assembly = "NPUSHB[ ]	/* 27 values pushed */
0 0 1 1 0 87 0 0 0 1 95 2 1 1 0 1 79 0 0 0 3 0 3 17 3 8 23 
CALL[ ]	/* CallFunction */";
};
width = 600;
}
);
note = hyphen;
unicode = 45;
},
{
glyphname = endash;
layers = (
{
layerId = m01;
shapes = (
{
closed = 1;
nodes = (
(505,386,l),
(95,386,l),
(95,314,l),
(505,314,l)
);
}
);
userData = {
assembly = "NPUSHB[ ]	/* 27 values pushed */
0 0 1 1 0 87 0 0 0 1 95 2 1 1 0 1 79 0 0 0 3 0 3 17 3 8 23 
CALL[ ]	/* CallFunction */";
};
width = 600;
}
);
note = endash;
unicode = 8211;
},
{
glyphname = emdash;
layers = (
{
layerId = m01;
shapes = (
{
closed = 1;
nodes = (
(600,386,l),
(0,386,l),
(0,314,l),
(600,314,l)
);
}
);
userData = {
assembly = "NPUSHB[ ]	/* 27 values pushed */
0 0 1 1 0 87 0 0 0 1 95 2 1 1 0 1 79 0 0 0 3 0 3 17 3 8 23 
CALL[ ]	/* CallFunction */";
};
width = 600;
}
);
note = emdash;
unicode = 8212;
},
{
glyphname = underscore;
layers = (
{
layerId = m01;
shapes = (
{
closed = 1;
nodes = (
(525,0,l),
(75,0,l),
(75,-77,l),
(525,-77,l)
);
}
);
userData = {
assembly = "PUSHB[ ]	/* 2 values pushed */
6 100 
WCVTP[ ]	/* WriteCVTInPixels */
NPUSHB[ ]	/* 27 values pushed */
0 0 1 1 0 87 0 0 0 1 95 2 1 1 0 1 79 0 0 0 3 0 3 17 3 8 23 
CALL[ ]	/* CallFunction */
PUSHB[ ]	/* 2 values pushed */
6 0 
WCVTP[ ]	/* WriteCVTInPixels */";
};
width = 600;
}
);
note = underscore;
unicode = 95;
},
{
glyphname = quoteleft;
layers = (
{
layerId = m01;
shapes = (
{
closed = 1;
nodes = (
(377,700,l),
(301,700,l),
(202,420,l),
(310,420,l)
);
}
);
userData = {
assembly = "NPUSHB[ ]	/* 22 values pushed */
2 1 1 1 0 95 0 0 0 28 1 78 0 0 0 3 0 3 17 3 8 23 
CALL[ ]	/* CallFunction */";
};
width = 600;
}
);
note = quoteleft;
unicode = 8216;
},
{
glyphname = quoteright;
layers = (
{
layerId = m01;
shapes = (
{
closed = 1;
nodes = (
(398,700,l),
(290,700,l),
(223,420,l),
(299,420,l)
);
}
);
userData = {
assembly = "NPUSHB[ ]	/* 22 values pushed */
2 1 1 1 0 95 0 0 0 28 1 78 0 0 0 3 0 3 17 3 8 23 
CALL[ ]	/* CallFunction */";
};
width = 600;
}
);
note = quoteright;
unicode = 8217;
},
{
glyphname = guilsinglleft;
layers = (
{
layerId = m01;
shapes = (
{
closed = 1;
nodes = (
(292,293,l),
(292,297,l),
(404,492,l),
(316,492,l),
(199,295,l),
(316,98,l),
(404,98,l)
);
}
);
userData = {
assembly = "NPUSHB[ ]	/* 29 values pushed */
4 1 2 1 0 1 76 2 1 1 1 0 95 0 0 0 31 1 78 0 0 0 6 0 6 18 3 8 23 
CALL[ ]	/* CallFunction */";
};
width = 600;
}
);
note = guilsinglleft;
unicode = 8249;
},
{
glyphname = guilsinglright;
layers = (
{
layerId = m01;
shapes = (
{
closed = 1;
nodes = (
(401,295,l),
(284,492,l),
(196,492,l),
(308,297,l),
(308,293,l),
(196,98,l),
(284,98,l)
);
}
);
userData = {
assembly = "NPUSHB[ ]	/* 29 values pushed */
5 1 2 1 0 1 76 2 1 1 1 0 95 0 0 0 31 1 78 0 0 0 6 0 6 19 3 8 23 
CALL[ ]	/* CallFunction */";
};
width = 600;
}
);
note = guilsinglright;
unicode = 8250;
},
{
glyphname = quotesingle;
layers = (
{
layerId = m01;
shapes = (
{
closed = 1;
nodes = (
(346,700,l),
(254,700,l),
(254,391,l),
(346,391,l)
);
}
);
userData = {
assembly = "NPUSHB[ ]	/* 22 values pushed */
2 1 1 1 0 95 0 0 0 28 1 78 0 0 0 3 0 3 17 3 8 23 
CALL[ ]	/* CallFunction */";
};
width = 600;
}
);
note = quotesingle;
unicode = 39;
},
{
glyphname = quoteleft.ss01;
layers = (
{
layerId = m01;
shapes = (
{
closed = 1;
nodes = (
(362,456,o),
(362,487,qs),
(362,513,o),
(324,558,o),
(290,558,qs),
(280,558,l),
(280,608,o),
(338,659,o),
(392,659,q),
(392,712,l),
(304,712,o),
(211,614,o),
(211,512,qs),
(211,462,o),
(256,414,o),
(287,414,qs),
(318,414,o)
);
}
);
userData = {
assembly = "NPUSHB[ ]	/* 34 values pushed */
0 3 4 1 0 3 0 101 0 2 2 1 97 0 1 1 34 2 78 1 0 12 10 8 7 6 5 0 16 1 16 5 8 22 
CALL[ ]	/* CallFunction */";
};
width = 600;
}
);
note = quoteleft.ss01;
},
{
glyphname = quoteright.ss01;
layers = (
{
layerId = m01;
shapes = (
{
closed = 1;
nodes = (
(389,512,o),
(389,614,qs),
(389,664,o),
(344,712,o),
(313,712,qs),
(282,712,o),
(238,670,o),
(238,639,qs),
(238,613,o),
(276,568,o),
(310,568,qs),
(320,568,l),
(320,518,o),
(262,467,o),
(209,467,q),
(209,414,l),
(296,414,o)
);
}
);
userData = {
assembly = "NPUSHB[ ]	/* 31 values pushed */
0 0 4 1 3 0 3 101 0 1 1 2 97 0 2 2 34 1 78 0 0 0 16 0 16 36 34 17 5 8 25 
CALL[ ]	/* CallFunction */";
};
width = 600;
}
);
note = quoteright.ss01;
},
{
glyphname = cent;
layers = (
{
layerId = m01;
shapes = (
{
closed = 1;
nodes = (
(344,92,l),
(417,100,o),
(512,188,o),
(529,259,q),
(443,259,l),
(433,225,o),
(384,178,o),
(344,171,q),
(344,528,l),
(382,521,o),
(433,475,o),
(443,441,q),
(529,441,l),
(515,511,o),
(421,600,o),
(344,608,q),
(344,700,l),
(275,700,l),
(275,607,l),
(219,599,o),
(129,533,o),
(78,424,o),
(78,350,qs),
(78,276,o),
(129,166,o),
(218,101,o),
(275,93,q),
(275,0,l),
(344,0,l)
);
},
{
closed = 1;
nodes = (
(229,515,o),
(275,526,q),
(275,173,l),
(229,185,o),
(163,273,o),
(163,350,qs),
(163,427,o)
);
}
);
userData = {
assembly = "NPUSHB[ ]	/* 55 values pushed */
33 19 12 9 4 1 0 32 27 20 1 4 3 2 2 76 0 1 0 2 0 1 2 128 0 2 3 0 2 3 126 0 0 0 28 77 4 1 3 3 29 3 78 0 0 0 28 0 28 23 20 26 5 8 25 
CALL[ ]	/* CallFunction */";
};
width = 600;
}
);
note = cent;
unicode = 162;
},
{
glyphname = currency;
layers = (
{
layerId = m01;
shapes = (
{
closed = 1;
nodes = (
(242,122,o),
(300,122,qs),
(356,122,o),
(399,153,q),
(461,92,l),
(505,136,l),
(443,199,l),
(471,242,o),
(471,297,qs),
(471,352,o),
(443,396,q),
(505,458,l),
(461,502,l),
(400,441,l),
(356,472,o),
(300,472,qs),
(243,472,o),
(200,442,q),
(139,502,l),
(95,458,l),
(156,396,l),
(129,353,o),
(129,297,qs),
(129,240,o),
(156,197,q),
(95,136,l),
(139,92,l),
(199,152,l)
);
},
{
closed = 1;
nodes = (
(195,242,o),
(195,297,qs),
(195,352,o),
(260,408,o),
(300,408,qs),
(325,408,o),
(373,383,o),
(405,334,o),
(405,297,qs),
(405,260,o),
(373,211,o),
(325,186,o),
(300,186,qs),
(260,186,o)
);
}
);
userData = {
assembly = "NPUSHB[ ]	/* 32 values pushed */
15 13 9 7 4 3 0 20 16 6 2 4 2 3 27 23 21 1 4 1 2 3 76 14 8 2 0 74 22 1 1 73 
MPPEM[ ]	/* MeasurePixelPerEm */
PUSHB[ ]	/* 1 value pushed */
21 
LT[ ]	/* LessThan */
IF[ ]	/* If */
NPUSHB[ ]	/* 19 values pushed */
4 1 2 0 1 2 1 101 0 3 3 0 97 0 0 0 31 3 78 
ELSE[ ]	/* Else */
NPUSHB[ ]	/* 26 values pushed */
0 0 0 3 2 0 3 105 4 1 2 1 1 2 89 4 1 2 2 1 97 0 1 2 1 81 
EIF[ ]	/* EndIf */
NPUSHB[ ]	/* 13 values pushed */
29 28 37 35 28 41 29 41 44 42 5 8 24 
CALL[ ]	/* CallFunction */";
};
width = 600;
}
);
note = currency;
unicode = 164;
},
{
glyphname = dollar;
layers = (
{
layerId = m01;
shapes = (
{
closed = 1;
nodes = (
(333,-11,l),
(398,-6,o),
(494,48,o),
(547,135,o),
(547,190,qs),
(547,275,o),
(440,368,o),
(343,393,qs),
(338,394,o),
(333,396,q),
(333,633,l),
(389,623,o),
(444,555,o),
(445,519,q),
(532,519,l),
(531,597,o),
(424,702,o),
(333,711,q),
(333,791,l),
(263,791,l),
(263,710,l),
(170,701,o),
(69,602,o),
(69,532,qs),
(69,460,o),
(158,361,o),
(263,333,q),
(263,68,l),
(200,79,o),
(135,160,o),
(134,213,q),
(46,213,l),
(47,121,o),
(164,2,o),
(263,-10,q),
(263,-87,l),
(333,-87,l)
);
},
{
closed = 1;
nodes = (
(216,627,o),
(263,634,q),
(263,418,l),
(203,441,o),
(156,495,o),
(156,533,qs),
(156,574,o)
);
},
{
closed = 1;
nodes = (
(395,72,o),
(333,65,q),
(333,314,l),
(403,291,o),
(460,233,o),
(460,184,qs),
(460,139,o)
);
}
);
userData = {
assembly = "NPUSHB[ ]	/* 55 values pushed */
41 25 18 15 4 2 1 47 40 26 9 4 0 2 48 35 8 1 4 3 0 3 76 0 1 2 1 133 0 2 0 2 133 0 0 3 0 133 4 1 3 3 118 0 0 0 36 0 36 20 27 20 5 8 25 
CALL[ ]	/* CallFunction */";
};
width = 600;
}
);
note = dollar;
unicode = 36;
},
{
glyphname = Euro;
layers = (
{
layerId = m01;
shapes = (
{
closed = 1;
nodes = (
(100,122,o),
(227,-12,o),
(329,-12,qs),
(425,-12,o),
(539,92,o),
(559,180,q),
(472,180,l),
(459,131,o),
(389,67,o),
(329,67,qs),
(268,67,o),
(184,157,o),
(167,239,q),
(360,239,l),
(360,304,l),
(158,304,l),
(157,326,o),
(156,350,qs),
(157,374,o),
(158,396,q),
(360,396,l),
(360,461,l),
(167,461,l),
(183,543,o),
(266,633,o),
(330,633,qs),
(387,633,o),
(461,569,o),
(471,516,q),
(559,516,l),
(547,604,o),
(427,712,o),
(330,712,qs),
(230,712,o),
(101,578,o),
(80,461,q),
(2,461,l),
(2,396,l),
(72,396,l),
(70,373,o),
(70,350,qs),
(71,326,o),
(72,304,q),
(2,304,l),
(2,239,l),
(80,239,l)
);
}
);
userData = {
assembly = "NPUSHB[ ]	/* 84 values pushed */
0 4 5 2 5 4 2 128 0 11 9 10 9 11 10 128 6 1 2 7 1 1 0 2 1 103 8 1 0 14 13 2 9 11 0 9 103 0 5 5 3 97 0 3 3 34 77 0 10 10 12 97 0 12 12 35 12 78 0 0 0 45 0 45 43 41 39 38 36 34 32 31 20 17 18 34 18 34 17 20 17 15 8 31 
CALL[ ]	/* CallFunction */";
};
width = 600;
}
);
note = Euro;
unicode = 8364;
},
{
glyphname = florin;
layers = (
{
layerId = m01;
shapes = (
{
closed = 1;
nodes = (
(161,-220,o),
(236,-152,o),
(250,-75,qs),
(339,424,l),
(532,424,l),
(532,496,l),
(352,496,l),
(366,575,ls),
(372,613,o),
(410,644,o),
(447,644,qs),
(569,644,l),
(569,720,l),
(454,720,ls),
(375,720,o),
(295,652,o),
(282,575,qs),
(267,496,l),
(142,496,l),
(142,424,l),
(255,424,l),
(166,-75,ls),
(159,-113,o),
(122,-143,o),
(84,-143,qs),
(25,-143,l),
(25,-220,l),
(77,-220,ls)
);
}
);
userData = {
assembly = "NPUSHB[ ]	/* 50 values pushed */
0 4 4 3 95 0 3 3 30 77 6 1 1 1 2 95 5 1 2 2 31 77 0 0 0 7 97 8 1 7 7 33 7 78 0 0 0 27 0 26 17 19 33 35 17 19 33 9 8 29 
CALL[ ]	/* CallFunction */";
};
width = 600;
}
);
note = florin;
unicode = 402;
},
{
glyphname = uni20BD;
layers = (
{
layerId = m01;
shapes = (
{
closed = 1;
nodes = (
(210,124,l),
(408,124,l),
(408,190,l),
(210,190,l),
(210,276,l),
(337,276,ls),
(417,276,o),
(519,334,o),
(567,430,o),
(567,488,qs),
(567,546,o),
(519,642,o),
(417,700,o),
(337,700,qs),
(126,700,l),
(126,190,l),
(35,190,l),
(35,124,l),
(126,124,l),
(126,0,l),
(210,0,l)
);
},
{
closed = 1;
nodes = (
(335,624,ls),
(409,624,o),
(481,548,o),
(481,488,qs),
(481,428,o),
(409,353,o),
(335,353,qs),
(210,353,l),
(210,624,l)
);
}
);
userData = {
assembly = "NPUSHB[ ]	/* 54 values pushed */
0 7 0 3 1 7 3 103 4 1 1 5 1 0 6 1 0 103 0 8 8 2 95 0 2 2 28 77 9 1 6 6 29 6 78 0 0 29 27 23 21 0 20 0 20 17 17 38 33 17 17 10 8 28 
CALL[ ]	/* CallFunction */";
};
width = 600;
}
);
note = uni20BD;
unicode = 8381;
},
{
glyphname = sterling;
layers = (
{
layerId = m01;
shapes = (
{
closed = 1;
nodes = (
(537,75,l),
(185,75,l),
(185,79,l),
(215,115,o),
(247,190,o),
(247,239,qs),
(247,254,o),
(242,284,o),
(238,298,q),
(408,298,l),
(408,365,l),
(216,365,l),
(204,398,o),
(183,467,o),
(183,503,qs),
(183,550,o),
(222,610,o),
(284,638,o),
(319,638,qs),
(382,638,o),
(451,563,o),
(454,507,q),
(536,507,l),
(534,565,o),
(485,658,o),
(390,712,o),
(319,712,qs),
(254,712,o),
(156,661,o),
(100,569,o),
(100,507,qs),
(100,464,o),
(121,396,o),
(133,365,q),
(44,365,l),
(44,298,l),
(157,298,l),
(161,283,o),
(166,250,o),
(166,233,qs),
(166,177,o),
(120,95,o),
(83,54,q),
(83,0,l),
(537,0,l)
);
}
);
userData = {
assembly = "NPUSHB[ ]	/* 63 values pushed */
1 1 8 7 1 76 0 3 4 1 4 3 1 128 5 1 1 6 1 0 7 1 0 103 0 4 4 2 97 0 2 2 34 77 0 7 7 8 95 9 1 8 8 29 8 78 0 0 0 44 0 44 38 17 22 34 19 38 17 23 10 8 30 
CALL[ ]	/* CallFunction */";
};
width = 600;
}
);
note = sterling;
unicode = 163;
},
{
glyphname = yen;
layers = (
{
layerId = m01;
shapes = (
{
closed = 1;
nodes = (
(258,0,l),
(342,0,l),
(342,160,l),
(523,160,l),
(523,228,l),
(342,228,l),
(342,275,l),
(362,312,l),
(523,312,l),
(523,381,l),
(399,381,l),
(569,700,l),
(474,700,l),
(300,360,l),
(126,700,l),
(31,700,l),
(201,381,l),
(77,381,l),
(77,312,l),
(238,312,l),
(258,275,l),
(258,228,l),
(77,228,l),
(77,160,l),
(258,160,l)
);
}
);
userData = {
assembly = "NPUSHB[ ]	/* 64 values pushed */
10 1 1 2 17 3 2 0 1 2 76 5 1 2 6 1 1 0 2 1 104 7 1 0 11 10 2 8 9 0 8 103 4 1 3 3 28 77 0 9 9 29 9 78 0 0 0 24 0 24 23 22 17 18 17 17 18 17 17 18 17 12 8 31 
CALL[ ]	/* CallFunction */";
};
width = 600;
}
);
note = yen;
unicode = 165;
},
{
glyphname = plus;
layers = (
{
layerId = m01;
shapes = (
{
closed = 1;
nodes = (
(338,312,l),
(525,312,l),
(525,388,l),
(338,388,l),
(338,575,l),
(262,575,l),
(262,388,l),
(75,388,l),
(75,312,l),
(262,312,l),
(262,125,l),
(338,125,l)
);
}
);
userData = {
assembly = "NPUSHB[ ]	/* 41 values pushed */
0 2 1 5 2 87 3 1 1 4 1 0 5 1 0 103 0 2 2 5 95 6 1 5 2 5 79 0 0 0 11 0 11 17 17 17 17 17 7 8 27 
CALL[ ]	/* CallFunction */";
};
width = 600;
}
);
note = plus;
unicode = 43;
},
{
glyphname = minus;
layers = (
{
layerId = m01;
shapes = (
{
closed = 1;
nodes = (
(525,388,l),
(75,388,l),
(75,312,l),
(525,312,l)
);
}
);
userData = {
assembly = "NPUSHB[ ]	/* 27 values pushed */
0 0 1 1 0 87 0 0 0 1 95 2 1 1 0 1 79 0 0 0 3 0 3 17 3 8 23 
CALL[ ]	/* CallFunction */";
};
width = 600;
}
);
note = minus;
unicode = 8722;
},
{
glyphname = multiply;
layers = (
{
layerId = m01;
shapes = (
{
closed = 1;
nodes = (
(460,136,l),
(514,190,l),
(354,350,l),
(514,510,l),
(460,564,l),
(300,404,l),
(140,564,l),
(86,510,l),
(246,350,l),
(86,190,l),
(140,136,l),
(300,296,l)
);
}
);
userData = {
assembly = "PUSHB[ ]	/* 4 values pushed */
4 0 1 50 
CALL[ ]	/* CallFunction */";
};
width = 600;
}
);
note = multiply;
unicode = 215;
},
{
glyphname = equal;
layers = (
{
layerId = m01;
shapes = (
{
closed = 1;
nodes = (
(525,511,l),
(75,511,l),
(75,435,l),
(525,435,l)
);
},
{
closed = 1;
nodes = (
(525,265,l),
(75,265,l),
(75,189,l),
(525,189,l)
);
}
);
userData = {
assembly = "MPPEM[ ]	/* MeasurePixelPerEm */
PUSHB[ ]	/* 1 value pushed */
33 
LT[ ]	/* LessThan */
IF[ ]	/* If */
NPUSHB[ ]	/* 20 values pushed */
0 2 5 1 3 2 3 99 4 1 1 1 0 95 0 0 0 31 1 78 
ELSE[ ]	/* Else */
NPUSHB[ ]	/* 26 values pushed */
0 0 4 1 1 2 0 1 103 0 2 3 3 2 87 0 2 2 3 95 5 1 3 2 3 79 
EIF[ ]	/* EndIf */
NPUSHB[ ]	/* 18 values pushed */
4 4 0 0 4 7 4 7 6 5 0 3 0 3 17 6 8 23 
CALL[ ]	/* CallFunction */";
};
width = 600;
}
);
note = equal;
unicode = 61;
},
{
glyphname = notequal;
layers = (
{
layerId = m01;
shapes = (
{
closed = 1;
nodes = (
(266,189,l),
(525,189,l),
(525,265,l),
(301,265,l),
(380,435,l),
(525,435,l),
(525,511,l),
(416,511,l),
(482,654,l),
(400,654,l),
(334,511,l),
(75,511,l),
(75,435,l),
(298,435,l),
(219,265,l),
(75,265,l),
(75,189,l),
(184,189,l),
(118,47,l),
(200,47,l)
);
}
);
userData = {
assembly = "MPPEM[ ]	/* MeasurePixelPerEm */
PUSHB[ ]	/* 1 value pushed */
9 
LT[ ]	/* LessThan */
IF[ ]	/* If */
NPUSHB[ ]	/* 42 values pushed */
0 4 3 3 4 112 10 1 9 0 0 9 113 5 1 3 6 1 2 1 3 2 104 7 1 1 0 0 1 87 7 1 1 1 0 95 8 1 0 1 0 79 
ELSE[ ]	/* Else */
NPUSHB[ ]	/* 40 values pushed */
0 4 3 4 133 10 1 9 0 9 134 5 1 3 6 1 2 1 3 2 104 7 1 1 0 0 1 87 7 1 1 1 0 95 8 1 0 1 0 79 
EIF[ ]	/* EndIf */
NPUSHB[ ]	/* 18 values pushed */
0 0 0 19 0 19 17 17 17 17 17 17 17 17 17 11 6 31 
CALL[ ]	/* CallFunction */";
};
width = 600;
}
);
note = notequal;
unicode = 8800;
},
{
glyphname = greater;
layers = (
{
layerId = m01;
shapes = (
{
closed = 1;
nodes = (
(494,350,l),
(228,618,l),
(115,618,l),
(379,353,l),
(379,347,l),
(115,80,l),
(228,80,l)
);
}
);
userData = {
assembly = "NPUSHB[ ]	/* 34 values pushed */
5 1 2 1 0 1 76 0 0 1 1 0 87 0 0 0 1 95 2 1 1 0 1 79 0 0 0 6 0 6 19 3 8 23 
CALL[ ]	/* CallFunction */";
};
width = 600;
}
);
note = greater;
unicode = 62;
},
{
glyphname = less;
layers = (
{
layerId = m01;
shapes = (
{
closed = 1;
nodes = (
(222,347,l),
(222,353,l),
(486,618,l),
(372,618,l),
(106,350,l),
(372,80,l),
(486,80,l)
);
}
);
userData = {
assembly = "NPUSHB[ ]	/* 34 values pushed */
4 1 2 1 0 1 76 0 0 1 1 0 87 0 0 0 1 95 2 1 1 0 1 79 0 0 0 6 0 6 18 3 8 23 
CALL[ ]	/* CallFunction */";
};
width = 600;
}
);
note = less;
unicode = 60;
},
{
glyphname = greaterequal;
layers = (
{
layerId = m01;
shapes = (
{
closed = 1;
nodes = (
(496,332,l),
(234,522,l),
(104,522,l),
(362,335,l),
(362,329,l),
(104,141,l),
(234,141,l)
);
},
{
closed = 1;
nodes = (
(525,76,l),
(75,76,l),
(75,0,l),
(525,0,l)
);
}
);
userData = {
assembly = "NPUSHB[ ]	/* 53 values pushed */
5 1 2 1 0 1 76 0 0 1 0 133 4 1 1 2 1 133 0 2 3 3 2 87 0 2 2 3 95 5 1 3 2 3 79 7 7 0 0 7 10 7 10 9 8 0 6 0 6 19 6 6 23 
CALL[ ]	/* CallFunction */";
};
width = 600;
}
);
note = greaterequal;
unicode = 8805;
},
{
glyphname = lessequal;
layers = (
{
layerId = m01;
shapes = (
{
closed = 1;
nodes = (
(238,329,l),
(238,335,l),
(496,522,l),
(366,522,l),
(104,332,l),
(366,141,l),
(496,141,l)
);
},
{
closed = 1;
nodes = (
(525,76,l),
(75,76,l),
(75,0,l),
(525,0,l)
);
}
);
userData = {
assembly = "NPUSHB[ ]	/* 53 values pushed */
4 1 2 1 0 1 76 0 0 1 0 133 4 1 1 2 1 133 0 2 3 3 2 87 0 2 2 3 95 5 1 3 2 3 79 7 7 0 0 7 10 7 10 9 8 0 6 0 6 18 6 6 23 
CALL[ ]	/* CallFunction */";
};
width = 600;
}
);
note = lessequal;
unicode = 8804;
},
{
glyphname = plusminus;
layers = (
{
layerId = m01;
shapes = (
{
closed = 1;
nodes = (
(338,312,l),
(525,312,l),
(525,388,l),
(338,388,l),
(338,522,l),
(262,522,l),
(262,388,l),
(75,388,l),
(75,312,l),
(262,312,l),
(262,178,l),
(338,178,l)
);
},
{
closed = 1;
nodes = (
(525,76,l),
(75,76,l),
(75,0,l),
(525,0,l)
);
}
);
userData = {
assembly = "NPUSHB[ ]	/* 53 values pushed */
3 1 1 4 1 0 5 1 0 103 0 2 8 1 5 6 2 5 103 0 6 6 7 95 9 1 7 7 29 7 78 12 12 0 0 12 15 12 15 14 13 0 11 0 11 17 17 17 17 17 10 8 27 
CALL[ ]	/* CallFunction */";
};
width = 600;
}
);
note = plusminus;
unicode = 177;
},
{
glyphname = asciitilde;
layers = (
{
layerId = m01;
shapes = (
{
closed = 1;
nodes = (
(515,319,o),
(521,390,q),
(450,390,l),
(447,361,o),
(415,325,o),
(390,325,qs),
(370,325,o),
(331,345,o),
(290,371,o),
(242,390,o),
(213,390,qs),
(156,390,o),
(85,321,o),
(79,250,q),
(150,250,l),
(153,280,o),
(185,315,o),
(210,315,qs),
(230,315,o),
(269,296,o),
(310,270,o),
(358,250,o),
(387,250,qs),
(444,250,o)
);
}
);
userData = {
assembly = "PUSHB[ ]	/* 2 values pushed */
6 100 
WCVTP[ ]	/* WriteCVTInPixels */
NPUSHB[ ]	/* 46 values pushed */
0 4 1 0 4 89 5 1 3 0 1 0 3 1 105 0 4 4 0 97 2 6 2 0 4 0 81 1 0 21 20 18 16 13 11 9 8 6 4 0 23 1 23 7 8 22 
CALL[ ]	/* CallFunction */
PUSHB[ ]	/* 2 values pushed */
6 0 
WCVTP[ ]	/* WriteCVTInPixels */";
};
width = 600;
}
);
note = asciitilde;
unicode = 126;
},
{
glyphname = logicalnot;
layers = (
{
layerId = m01;
shapes = (
{
closed = 1;
nodes = (
(525,388,l),
(75,388,l),
(75,312,l),
(449,312,l),
(449,125,l),
(525,125,l)
);
}
);
userData = {
assembly = "NPUSHB[ ]	/* 33 values pushed */
3 1 2 0 2 134 0 1 0 0 1 87 0 1 1 0 95 0 0 1 0 79 0 0 0 5 0 5 17 17 4 8 24 
CALL[ ]	/* CallFunction */";
};
width = 600;
}
);
note = logicalnot;
unicode = 172;
},
{
glyphname = asciicircum;
layers = (
{
layerId = m01;
shapes = (
{
closed = 1;
nodes = (
(298,622,l),
(302,622,l),
(458,374,l),
(546,374,l),
(339,700,l),
(261,700,l),
(54,374,l),
(142,374,l)
);
}
);
userData = {
assembly = "PUSHB[ ]	/* 2 values pushed */
6 100 
WCVTP[ ]	/* WriteCVTInPixels */
NPUSHB[ ]	/* 28 values pushed */
5 1 1 0 1 76 0 0 1 0 133 3 2 2 1 1 118 0 0 0 7 0 7 17 17 4 8 24 
CALL[ ]	/* CallFunction */
PUSHB[ ]	/* 2 values pushed */
6 0 
WCVTP[ ]	/* WriteCVTInPixels */";
};
width = 600;
}
);
note = asciicircum;
unicode = 94;
},
{
glyphname = infinity;
layers = (
{
layerId = m01;
shapes = (
{
closed = 1;
nodes = (
(278,192,o),
(300,228,q),
(326,195,o),
(392,145,o),
(440,145,qs),
(502,145,o),
(588,221,o),
(588,288,qs),
(588,355,o),
(505,430,o),
(444,430,qs),
(395,430,o),
(320,381,o),
(297,343,q),
(272,378,o),
(206,430,o),
(156,430,qs),
(97,430,o),
(12,355,o),
(12,288,qs),
(12,220,o),
(95,145,o),
(156,145,qs),
(205,145,o)
);
},
{
closed = 1;
nodes = (
(124,367,o),
(155,367,qs),
(188,367,o),
(238,316,o),
(262,282,q),
(245,250,o),
(194,209,o),
(159,209,qs),
(125,209,o),
(79,251,o),
(79,288,qs),
(79,325,o)
);
},
{
closed = 1;
nodes = (
(521,325,o),
(521,288,qs),
(521,251,o),
(478,209,o),
(445,209,qs),
(408,209,o),
(358,256,o),
(335,288,q),
(353,323,o),
(408,366,o),
(441,367,qs),
(477,367,o)
);
}
);
userData = {
assembly = "NPUSHB[ ]	/* 67 values pushed */
39 30 21 9 4 4 5 1 76 2 1 1 9 6 2 5 4 1 5 105 7 1 4 0 0 4 89 7 1 4 4 0 97 3 8 2 0 4 0 81 37 36 1 0 43 41 36 47 37 47 34 32 28 26 19 17 13 11 7 5 0 23 1 23 10 6 22 
CALL[ ]	/* CallFunction */";
};
width = 600;
}
);
note = infinity;
unicode = 8734;
},
{
glyphname = integral;
layers = (
{
layerId = m01;
shapes = (
{
closed = 1;
nodes = (
(195,-220,o),
(271,-152,o),
(284,-75,qs),
(400,575,ls),
(406,613,o),
(444,644,o),
(482,644,qs),
(548,644,l),
(548,720,l),
(488,720,ls),
(409,720,o),
(330,652,o),
(316,575,qs),
(200,-75,ls),
(194,-113,o),
(156,-143,o),
(119,-143,qs),
(52,-143,l),
(52,-220,l),
(112,-220,ls)
);
}
);
userData = {
assembly = "NPUSHB[ ]	/* 37 values pushed */
0 1 0 2 0 1 2 105 0 0 3 3 0 89 0 0 0 3 97 4 1 3 0 3 81 0 0 0 19 0 18 33 37 33 5 6 25 
CALL[ ]	/* CallFunction */";
};
width = 600;
}
);
note = integral;
unicode = 8747;
},
{
glyphname = uni2126;
layers = (
{
layerId = m01;
shapes = (
{
closed = 1;
nodes = (
(267,135,l),
(222,164,o),
(153,237,o),
(115,341,o),
(115,417,qs),
(115,482,o),
(161,579,o),
(245,633,o),
(300,633,qs),
(355,633,o),
(438,579,o),
(485,482,o),
(485,417,qs),
(485,341,o),
(446,237,o),
(378,164,o),
(332,135,q),
(332,0,l),
(555,0,l),
(555,69,l),
(408,69,l),
(408,99,l),
(477,142,o),
(571,305,o),
(571,417,qs),
(571,505,o),
(499,638,o),
(376,712,o),
(300,712,qs),
(223,712,o),
(100,638,o),
(29,505,o),
(29,417,qs),
(29,342,o),
(72,219,o),
(146,128,o),
(191,99,q),
(191,69,l),
(45,69,l),
(45,0,l),
(267,0,l)
);
}
);
userData = {
assembly = "NPUSHB[ ]	/* 51 values pushed */
39 23 18 3 4 0 4 1 76 0 1 0 4 0 1 4 105 2 1 0 3 3 0 87 2 1 0 0 3 95 6 5 2 3 0 3 79 0 0 0 40 0 40 40 17 23 40 17 7 6 27 
CALL[ ]	/* CallFunction */";
};
width = 600;
}
);
note = uni2126;
unicode = 8486;
},
{
glyphname = uni2206;
layers = (
{
layerId = m01;
shapes = (
{
closed = 1;
nodes = (
(556,72,l),
(349,700,l),
(252,700,l),
(44,72,l),
(44,0,l),
(556,0,l)
);
},
{
closed = 1;
nodes = (
(302,589,l),
(466,76,l),
(134,76,l),
(298,589,l)
);
}
);
userData = {
assembly = "NPUSHB[ ]	/* 45 values pushed */
8 1 2 0 4 1 2 1 2 2 76 0 0 2 0 133 0 2 1 1 2 87 0 2 2 1 95 3 1 1 2 1 79 0 0 7 6 0 5 0 5 18 4 6 23 
CALL[ ]	/* CallFunction */";
};
width = 600;
}
);
note = uni2206;
unicode = 8710;
},
{
glyphname = product;
layers = (
{
layerId = m01;
shapes = (
{
closed = 1;
nodes = (
(190,624,l),
(410,624,l),
(410,0,l),
(494,0,l),
(494,624,l),
(568,624,l),
(568,700,l),
(32,700,l),
(32,624,l),
(106,624,l),
(106,0,l),
(190,0,l)
);
}
);
userData = {
assembly = "NPUSHB[ ]	/* 39 values pushed */
6 5 2 3 0 3 134 0 1 0 0 1 87 0 1 1 0 95 4 2 2 0 1 0 79 0 0 0 11 0 11 17 17 17 17 17 7 6 27 
CALL[ ]	/* CallFunction */";
};
width = 600;
}
);
note = product;
unicode = 8719;
},
{
glyphname = summation;
layers = (
{
layerId = m01;
shapes = (
{
closed = 1;
nodes = (
(526,-28,l),
(159,-28,l),
(394,277,l),
(394,322,l),
(172,628,l),
(509,628,l),
(509,700,l),
(76,700,l),
(76,618,l),
(314,300,l),
(67,-15,l),
(67,-99,l),
(526,-99,l)
);
}
);
userData = {
assembly = "NPUSHB[ ]	/* 47 values pushed */
9 8 3 2 1 5 2 1 1 76 0 0 0 1 2 0 1 103 0 2 3 3 2 87 0 2 2 3 95 4 1 3 2 3 79 0 0 0 12 0 12 19 17 20 5 6 25 
CALL[ ]	/* CallFunction */";
};
width = 600;
}
);
note = summation;
unicode = 8721;
},
{
glyphname = radical;
layers = (
{
layerId = m01;
shapes = (
{
closed = 1;
nodes = (
(501,628,l),
(586,628,l),
(586,700,l),
(440,700,l),
(227,98,l),
(129,356,l),
(33,356,l),
(179,0,l),
(274,0,l)
);
}
);
userData = {
assembly = "NPUSHB[ ]	/* 47 values pushed */
3 1 3 0 1 76 0 0 2 3 2 0 3 128 4 1 3 3 132 0 1 2 2 1 87 0 1 1 2 95 0 2 1 2 79 0 0 0 8 0 8 17 18 17 5 6 25 
CALL[ ]	/* CallFunction */";
};
width = 600;
}
);
note = radical;
unicode = 8730;
},
{
glyphname = uni00B5;
layers = (
{
layerId = m01;
shapes = (
{
closed = 1;
nodes = (
(167,31,l),
(202,-12,o),
(274,-12,qs),
(326,-12,o),
(408,39,o),
(428,75,q),
(433,75,l),
(442,0,l),
(512,0,l),
(512,496,l),
(428,496,l),
(428,224,ls),
(428,148,o),
(346,67,o),
(286,67,qs),
(226,67,o),
(167,142,o),
(167,208,qs),
(167,496,l),
(83,496,l),
(83,-220,l),
(167,-220,l)
);
}
);
userData = {
assembly = "NPUSHB[ ]	/* 10 values pushed */
14 1 1 0 20 1 3 1 2 76 
MPPEM[ ]	/* MeasurePixelPerEm */
PUSHB[ ]	/* 1 value pushed */
21 
LT[ ]	/* LessThan */
IF[ ]	/* If */
NPUSHB[ ]	/* 24 values pushed */
2 1 0 0 31 77 0 1 1 3 97 4 1 3 3 29 77 6 1 5 5 33 5 78 
ELSE[ ]	/* Else */
NPUSHB[ ]	/* 28 values pushed */
2 1 0 0 31 77 0 3 3 29 77 0 1 1 4 97 0 4 4 35 77 6 1 5 5 33 5 78 
EIF[ ]	/* EndIf */
NPUSHB[ ]	/* 14 values pushed */
0 0 0 21 0 21 36 17 19 35 17 7 8 27 
CALL[ ]	/* CallFunction */";
};
width = 600;
}
);
note = uni00B5;
unicode = 181;
},
{
glyphname = partialdiff;
layers = (
{
layerId = m01;
shapes = (
{
closed = 1;
nodes = (
(441,47,o),
(514,148,o),
(552,276,o),
(552,344,qs),
(552,492,o),
(426,681,o),
(323,720,q),
(285,652,l),
(368,617,o),
(457,503,o),
(472,431,q),
(467,431,l),
(446,464,o),
(369,507,o),
(318,507,qs),
(257,507,o),
(160,459,o),
(92,378,o),
(56,277,o),
(56,223,qs),
(56,154,o),
(108,48,o),
(203,-12,o),
(269,-12,qs),
(336,-12,o)
);
},
{
closed = 1;
nodes = (
(142,153,o),
(142,228,qs),
(142,281,o),
(183,372,o),
(263,429,o),
(320,429,qs),
(372,429,o),
(442,381,o),
(468,335,q),
(466,254,o),
(413,133,o),
(327,66,o),
(274,66,qs),
(218,66,o)
);
}
);
userData = {
assembly = "NPUSHB[ ]	/* 61 values pushed */
12 1 3 1 29 1 2 3 2 76 17 16 2 1 74 0 1 0 3 2 1 3 105 5 1 2 0 0 2 89 5 1 2 2 0 97 4 1 0 2 0 81 26 25 1 0 33 31 25 38 26 38 10 8 0 24 1 24 6 6 22 
CALL[ ]	/* CallFunction */";
};
width = 600;
}
);
note = partialdiff;
unicode = 8706;
},
{
glyphname = percent;
layers = (
{
layerId = m01;
shapes = (
{
closed = 1;
nodes = (
(313,486,o),
(313,557,qs),
(313,628,o),
(230,712,o),
(166,712,qs),
(102,712,o),
(19,628,o),
(19,557,qs),
(19,486,o),
(102,402,o),
(166,402,qs),
(230,402,o)
);
},
{
closed = 1;
nodes = (
(85,511,o),
(85,557,qs),
(85,603,o),
(134,652,o),
(166,652,qs),
(198,652,o),
(247,603,o),
(247,557,qs),
(247,511,o),
(198,462,o),
(166,462,qs),
(134,462,o)
);
},
{
closed = 1;
nodes = (
(530,635,l),
(22,112,l),
(70,65,l),
(578,588,l)
);
},
{
closed = 1;
nodes = (
(581,72,o),
(581,143,qs),
(581,214,o),
(498,298,o),
(434,298,qs),
(370,298,o),
(287,214,o),
(287,143,qs),
(287,72,o),
(370,-12,o),
(434,-12,qs),
(498,-12,o)
);
},
{
closed = 1;
nodes = (
(353,97,o),
(353,143,qs),
(353,189,o),
(402,238,o),
(434,238,qs),
(466,238,o),
(515,189,o),
(515,143,qs),
(515,97,o),
(466,48,o),
(434,48,qs),
(402,48,o)
);
}
);
userData = {
assembly = "NPUSHB[ ]	/* 87 values pushed */
27 26 2 2 3 25 1 6 7 2 76 9 1 2 8 1 0 5 2 0 105 0 5 0 7 6 5 7 105 0 3 3 1 97 0 1 1 34 77 11 1 6 6 4 97 10 1 4 4 35 4 78 41 40 29 28 13 12 1 0 47 45 40 51 41 51 35 33 28 39 29 39 19 17 12 23 13 23 7 5 0 11 1 11 12 8 22 
CALL[ ]	/* CallFunction */";
};
width = 600;
}
);
note = percent;
unicode = 37;
},
{
glyphname = perthousand;
layers = (
{
layerId = m01;
shapes = (
{
closed = 1;
nodes = (
(313,486,o),
(313,557,qs),
(313,628,o),
(230,712,o),
(166,712,qs),
(102,712,o),
(19,628,o),
(19,557,qs),
(19,486,o),
(102,402,o),
(166,402,qs),
(230,402,o)
);
},
{
closed = 1;
nodes = (
(85,511,o),
(85,557,qs),
(85,603,o),
(134,652,o),
(166,652,qs),
(198,652,o),
(247,603,o),
(247,557,qs),
(247,511,o),
(198,462,o),
(166,462,qs),
(134,462,o)
);
},
{
closed = 1;
nodes = (
(514,529,l),
(12,283,l),
(40,226,l),
(542,472,l)
);
},
{
closed = 1;
nodes = (
(350,13,o),
(367,36,q),
(385,13,o),
(434,-12,o),
(464,-12,qs),
(521,-12,o),
(594,72,o),
(594,143,qs),
(594,214,o),
(521,298,o),
(464,298,qs),
(434,298,o),
(385,273,o),
(367,250,q),
(350,273,o),
(301,298,o),
(271,298,qs),
(214,298,o),
(141,214,o),
(141,143,qs),
(141,72,o),
(214,-12,o),
(271,-12,qs),
(301,-12,o)
);
},
{
closed = 1;
nodes = (
(208,97,o),
(208,143,qs),
(208,189,o),
(243,238,o),
(271,238,qs),
(298,238,o),
(334,189,o),
(334,143,qs),
(334,97,o),
(298,48,o),
(271,48,qs),
(243,48,o)
);
},
{
closed = 1;
nodes = (
(401,97,o),
(401,143,qs),
(401,189,o),
(437,238,o),
(464,238,qs),
(491,238,o),
(528,189,o),
(528,143,qs),
(528,97,o),
(491,48,o),
(464,48,qs),
(437,48,o)
);
}
);
userData = {
assembly = "NPUSHB[ ]	/* 109 values pushed */
27 26 2 2 3 37 25 2 9 5 49 1 4 8 3 76 13 1 2 12 1 0 5 2 0 105 6 1 5 11 1 9 8 5 9 105 0 3 3 1 97 0 1 1 34 77 16 10 15 3 8 8 4 97 7 14 2 4 4 35 4 78 65 64 53 52 29 28 13 12 1 0 71 69 64 75 65 75 59 57 52 63 53 63 47 45 41 39 35 33 28 51 29 51 19 17 12 23 13 23 7 5 0 11 1 11 17 8 22 
CALL[ ]	/* CallFunction */";
};
width = 600;
}
);
note = perthousand;
unicode = 8240;
},
{
glyphname = lozenge;
layers = (
{
layerId = m01;
shapes = (
{
closed = 1;
nodes = (
(561,350,l),
(349,700,l),
(252,700,l),
(39,350,l),
(252,0,l),
(349,0,l)
);
},
{
closed = 1;
nodes = (
(298,624,l),
(302,624,l),
(469,350,l),
(302,76,l),
(298,76,l),
(132,350,l)
);
}
);
userData = {
assembly = "NPUSHB[ ]	/* 30 values pushed */
11 9 8 4 1 5 1 0 1 76 0 0 1 0 133 2 1 1 1 118 0 0 0 5 0 5 18 3 6 23 
CALL[ ]	/* CallFunction */";
};
width = 600;
}
);
note = lozenge;
unicode = 9674;
},
{
glyphname = at;
layers = (
{
layerId = m01;
shapes = (
{
closed = 1;
nodes = (
(513,-26,l),
(373,-26,ls),
(289,-26,o),
(177,65,o),
(123,215,o),
(123,303,qs),
(123,424,o),
(184,568,o),
(280,632,o),
(333,632,qs),
(401,632,o),
(484,561,o),
(484,499,qs),
(484,453,l),
(469,478,o),
(414,508,o),
(372,508,qs),
(296,508,o),
(199,402,o),
(199,304,qs),
(199,206,o),
(297,98,o),
(372,98,qs),
(414,98,o),
(469,136,o),
(484,164,q),
(488,164,l),
(496,107,l),
(556,107,l),
(556,499,ls),
(556,596,o),
(436,700,o),
(333,700,qs),
(278,700,o),
(176,654,o),
(94,557,o),
(47,407,o),
(47,303,qs),
(47,189,o),
(119,9,o),
(264,-94,o),
(373,-94,qs),
(513,-94,l)
);
},
{
closed = 1;
nodes = (
(272,230,o),
(272,303,qs),
(272,376,o),
(332,445,o),
(378,445,qs),
(424,445,o),
(484,376,o),
(484,303,qs),
(484,230,o),
(424,161,o),
(378,161,qs),
(332,161,o)
);
}
);
userData = {
assembly = "NPUSHB[ ]	/* 10 values pushed */
28 1 8 4 15 1 7 8 2 76 
MPPEM[ ]	/* MeasurePixelPerEm */
PUSHB[ ]	/* 1 value pushed */
27 
LT[ ]	/* LessThan */
IF[ ]	/* If */
NPUSHB[ ]	/* 39 values pushed */
10 1 7 3 1 2 6 7 2 105 0 6 9 1 0 6 0 99 0 5 5 1 97 0 1 1 28 77 0 8 8 4 97 0 4 4 37 8 78 
ELSE[ ]	/* Else */
NPUSHB[ ]	/* 46 values pushed */
0 2 7 3 7 2 3 128 10 1 7 0 3 6 7 3 105 0 6 9 1 0 6 0 99 0 5 5 1 97 0 1 1 28 77 0 8 8 4 97 0 4 4 37 8 78 
EIF[ ]	/* EndIf */
NPUSHB[ ]	/* 29 values pushed */
44 43 1 0 50 48 43 54 44 54 41 39 33 31 26 24 20 18 14 13 10 8 0 42 1 42 11 8 22 
CALL[ ]	/* CallFunction */";
};
width = 600;
}
);
note = at;
unicode = 64;
},
{
glyphname = ampersand;
layers = (
{
layerId = m01;
shapes = (
{
closed = 1;
nodes = (
(398,35,o),
(428,75,q),
(490,0,l),
(589,0,l),
(471,147,l),
(572,362,l),
(483,362,l),
(416,215,l),
(257,413,ls),
(224,454,o),
(192,518,o),
(192,549,qs),
(192,588,o),
(243,638,o),
(288,638,qs),
(325,638,o),
(381,593,o),
(381,553,q),
(464,553,l),
(464,622,o),
(369,712,o),
(289,712,qs),
(206,712,o),
(109,619,o),
(109,548,qs),
(109,512,o),
(134,442,o),
(161,403,q),
(100,368,o),
(35,265,o),
(35,202,qs),
(35,137,o),
(89,41,o),
(186,-12,o),
(250,-12,qs),
(311,-12,o)
);
},
{
closed = 1;
nodes = (
(207,344,q),
(376,139,l),
(352,102,o),
(292,64,o),
(250,64,qs),
(192,64,o),
(119,144,o),
(119,204,qs),
(119,295,o)
);
}
);
userData = {
assembly = "NPUSHB[ ]	/* 14 values pushed */
7 1 4 2 43 42 33 30 27 5 6 4 2 76 
MPPEM[ ]	/* MeasurePixelPerEm */
PUSHB[ ]	/* 1 value pushed */
21 
LT[ ]	/* LessThan */
IF[ ]	/* If */
NPUSHB[ ]	/* 43 values pushed */
0 2 3 4 3 2 4 128 0 3 3 1 97 0 1 1 34 77 0 4 4 0 97 5 7 2 0 0 35 77 0 6 6 0 97 5 7 2 0 0 35 0 78 
ELSE[ ]	/* Else */
NPUSHB[ ]	/* 40 values pushed */
0 2 3 4 3 2 4 128 0 3 3 1 97 0 1 1 34 77 0 4 4 5 95 0 5 5 29 77 0 6 6 0 97 7 1 0 0 35 0 78 
EIF[ ]	/* EndIf */
NPUSHB[ ]	/* 21 values pushed */
1 0 40 38 32 31 29 28 21 19 17 16 14 12 0 35 1 35 8 8 22 
CALL[ ]	/* CallFunction */";
};
width = 600;
}
);
note = ampersand;
unicode = 38;
},
{
glyphname = paragraph;
layers = (
{
layerId = m01;
shapes = (
{
closed = 1;
nodes = (
(372,638,l),
(452,638,l),
(452,-100,l),
(521,-100,l),
(521,700,l),
(296,700,ls),
(216,700,o),
(111,647,o),
(60,557,o),
(60,499,qs),
(60,442,o),
(111,352,o),
(215,299,o),
(296,299,qs),
(304,299,l),
(304,-100,l),
(372,-100,l)
);
}
);
userData = {
assembly = "NPUSHB[ ]	/* 38 values pushed */
0 0 3 2 3 0 2 128 5 4 2 2 2 132 0 3 3 1 95 0 1 1 28 3 78 0 0 0 16 0 16 17 17 38 33 6 8 26 
CALL[ ]	/* CallFunction */";
};
width = 600;
}
);
note = paragraph;
unicode = 182;
},
{
glyphname = section;
layers = (
{
layerId = m01;
shapes = (
{
closed = 1;
nodes = (
(465,-186,o),
(516,-106,o),
(516,-56,qs),
(516,15,o),
(477,62,q),
(506,87,o),
(538,153,o),
(538,193,qs),
(538,248,o),
(491,322,o),
(404,373,o),
(343,393,qs),
(278,415,o),
(202,454,o),
(169,502,o),
(169,537,qs),
(169,583,o),
(243,636,o),
(298,636,qs),
(344,636,o),
(404,600,o),
(434,546,o),
(434,518,q),
(522,518,l),
(522,575,o),
(467,663,o),
(368,712,o),
(302,712,qs),
(232,712,o),
(134,666,o),
(82,586,o),
(82,536,qs),
(82,466,o),
(121,418,q),
(93,394,o),
(61,327,o),
(61,288,qs),
(61,232,o),
(108,158,o),
(195,107,o),
(256,87,qs),
(321,65,o),
(397,26,o),
(430,-22,o),
(430,-56,qs),
(430,-103,o),
(355,-156,o),
(300,-156,qs),
(255,-156,o),
(195,-120,o),
(164,-66,o),
(164,-38,q),
(77,-38,l),
(77,-95,o),
(132,-183,o),
(231,-232,o),
(297,-232,qs),
(367,-232,o)
);
},
{
closed = 1;
nodes = (
(184,208,o),
(148,257,o),
(148,293,qs),
(148,337,o),
(181,369,q),
(216,348,o),
(266,333,qs),
(334,312,o),
(415,272,o),
(451,221,o),
(451,183,qs),
(451,142,o),
(418,111,q),
(382,132,o),
(333,147,qs),
(265,168,o)
);
}
);
userData = {
assembly = "NPUSHB[ ]	/* 65 values pushed */
68 60 52 23 4 1 4 1 76 0 4 5 1 5 4 1 128 0 1 2 5 1 2 126 0 5 5 3 97 0 3 3 34 77 0 2 2 0 97 6 1 0 0 39 0 78 1 0 39 37 34 33 30 28 10 8 5 4 0 57 1 57 7 8 22 
CALL[ ]	/* CallFunction */";
};
width = 600;
}
);
note = section;
unicode = 167;
},
{
glyphname = copyright;
layers = (
{
layerId = m01;
shapes = (
{
closed = 1;
nodes = (
(514,136,o),
(590,268,o),
(590,350,qs),
(590,433,o),
(514,564,o),
(383,640,o),
(300,640,qs),
(218,640,o),
(86,564,o),
(10,433,o),
(10,350,qs),
(10,268,o),
(86,136,o),
(218,60,o),
(300,60,qs),
(383,60,o)
);
},
{
closed = 1;
nodes = (
(121,169,o),
(57,280,o),
(57,350,qs),
(57,421,o),
(121,531,o),
(231,595,o),
(300,595,qs),
(370,595,o),
(479,531,o),
(543,421,o),
(543,350,qs),
(543,280,o),
(479,169,o),
(370,105,o),
(300,105,qs),
(231,105,o)
);
},
{
closed = 1;
nodes = (
(433,230,o),
(445,284,q),
(397,284,l),
(389,253,o),
(340,215,o),
(299,215,qs),
(256,215,o),
(190,281,o),
(190,350,qs),
(190,419,o),
(256,484,o),
(299,484,qs),
(337,484,o),
(384,448,o),
(395,416,q),
(445,416,l),
(435,468,o),
(362,530,o),
(299,530,qs),
(256,530,o),
(184,488,o),
(140,408,o),
(140,350,qs),
(140,264,o),
(232,170,o),
(299,170,qs),
(358,170,o)
);
}
);
userData = {
assembly = "PUSHB[ ]	/* 2 values pushed */
6 100 
WCVTP[ ]	/* WriteCVTInPixels */
NPUSHB[ ]	/* 94 values pushed */
0 6 7 9 7 6 9 128 0 9 8 7 9 8 126 0 1 0 3 5 1 3 105 0 5 0 7 6 5 7 105 0 8 12 1 4 2 8 4 105 11 1 2 0 0 2 89 11 1 2 2 0 97 10 1 0 2 0 81 33 32 17 16 1 0 56 55 53 51 47 45 43 42 40 38 32 58 33 58 25 23 16 31 17 31 9 7 0 15 1 15 13 8 22 
CALL[ ]	/* CallFunction */
PUSHB[ ]	/* 2 values pushed */
6 0 
WCVTP[ ]	/* WriteCVTInPixels */";
};
width = 600;
}
);
note = copyright;
unicode = 169;
},
{
glyphname = registered;
layers = (
{
layerId = m01;
shapes = (
{
closed = 1;
nodes = (
(514,136,o),
(590,268,o),
(590,350,qs),
(590,433,o),
(514,564,o),
(383,640,o),
(300,640,qs),
(218,640,o),
(86,564,o),
(10,433,o),
(10,350,qs),
(10,268,o),
(86,136,o),
(218,60,o),
(300,60,qs),
(383,60,o)
);
},
{
closed = 1;
nodes = (
(121,169,o),
(57,280,o),
(57,350,qs),
(57,421,o),
(121,531,o),
(231,595,o),
(300,595,qs),
(370,595,o),
(479,531,o),
(543,421,o),
(543,350,qs),
(543,280,o),
(479,169,o),
(370,105,o),
(300,105,qs),
(231,105,o)
);
},
{
closed = 1;
nodes = (
(245,322,l),
(301,322,l),
(374,175,l),
(430,175,l),
(351,329,l),
(386,339,o),
(420,390,o),
(420,424,qs),
(420,468,o),
(362,525,o),
(302,525,qs),
(195,525,l),
(195,175,l),
(245,175,l)
);
},
{
closed = 1;
nodes = (
(301,479,ls),
(339,479,o),
(372,449,o),
(372,424,qs),
(372,400,o),
(338,368,o),
(301,368,qs),
(245,368,l),
(245,479,l)
);
}
);
userData = {
assembly = "PUSHB[ ]	/* 2 values pushed */
6 100 
WCVTP[ ]	/* WriteCVTInPixels */
NPUSHB[ ]	/* 94 values pushed */
40 1 6 8 1 76 12 7 2 5 6 2 6 5 2 128 0 1 0 3 4 1 3 105 0 4 0 9 8 4 9 105 0 8 0 6 5 8 6 103 11 1 2 0 0 2 89 11 1 2 2 0 97 10 1 0 2 0 81 32 32 17 16 1 0 54 52 48 46 32 45 32 45 44 43 42 41 35 33 25 23 16 31 17 31 9 7 0 15 1 15 13 8 22 
CALL[ ]	/* CallFunction */
PUSHB[ ]	/* 2 values pushed */
6 0 
WCVTP[ ]	/* WriteCVTInPixels */";
};
width = 600;
}
);
note = registered;
unicode = 174;
},
{
glyphname = trademark;
layers = (
{
layerId = m01;
shapes = (
{
closed = 1;
nodes = (
(379,577,l),
(424,462,l),
(476,462,l),
(521,576,l),
(521,350,l),
(583,350,l),
(583,700,l),
(515,700,l),
(450,544,l),
(386,700,l),
(317,700,l),
(317,350,l),
(379,350,l)
);
},
{
closed = 1;
nodes = (
(183,641,l),
(277,641,l),
(277,700,l),
(23,700,l),
(23,641,l),
(117,641,l),
(117,350,l),
(183,350,l)
);
}
);
userData = {
assembly = "NPUSHB[ ]	/* 70 values pushed */
11 8 3 3 3 5 1 76 0 3 5 2 5 3 2 128 10 8 9 4 4 2 2 132 6 1 2 0 5 5 0 87 6 1 2 0 0 5 95 7 1 5 0 5 79 13 13 0 0 13 20 13 20 19 18 17 16 15 14 0 12 0 12 18 17 18 17 11 6 26 
CALL[ ]	/* CallFunction */";
};
width = 600;
}
);
note = trademark;
unicode = 8482;
},
{
glyphname = degree;
layers = (
{
layerId = m01;
shapes = (
{
closed = 1;
nodes = (
(407,454,o),
(447,520,o),
(447,565,qs),
(447,609,o),
(407,675,o),
(340,712,o),
(300,712,qs),
(260,712,o),
(193,675,o),
(154,609,o),
(154,565,qs),
(154,520,o),
(193,454,o),
(260,419,o),
(300,419,qs),
(340,419,o)
);
},
{
closed = 1;
nodes = (
(218,526,o),
(218,566,qs),
(218,605,o),
(267,651,o),
(300,651,qs),
(333,651,o),
(382,605,o),
(382,566,qs),
(382,526,o),
(333,480,o),
(300,480,qs),
(267,480,o)
);
}
);
userData = {
assembly = "PUSHB[ ]	/* 2 values pushed */
6 100 
WCVTP[ ]	/* WriteCVTInPixels */
NPUSHB[ ]	/* 46 values pushed */
0 1 0 3 2 1 3 105 5 1 2 0 0 2 89 5 1 2 2 0 97 4 1 0 2 0 81 17 16 1 0 23 21 16 27 17 27 9 7 0 15 1 15 6 8 22 
CALL[ ]	/* CallFunction */
PUSHB[ ]	/* 2 values pushed */
6 0 
WCVTP[ ]	/* WriteCVTInPixels */";
};
width = 600;
}
);
note = degree;
unicode = 176;
},
{
glyphname = bar;
layers = (
{
layerId = m01;
shapes = (
{
closed = 1;
nodes = (
(342,720,l),
(258,720,l),
(258,-270,l),
(342,-270,l)
);
}
);
userData = {
assembly = "NPUSHB[ ]	/* 22 values pushed */
2 1 1 0 1 134 0 0 0 30 0 78 0 0 0 3 0 3 17 3 8 23 
CALL[ ]	/* CallFunction */";
};
width = 600;
}
);
note = bar;
unicode = 124;
},
{
glyphname = brokenbar;
layers = (
{
layerId = m01;
shapes = (
{
closed = 1;
nodes = (
(342,720,l),
(258,720,l),
(258,308,l),
(342,308,l)
);
},
{
closed = 1;
nodes = (
(342,142,l),
(258,142,l),
(258,-270,l),
(342,-270,l)
);
}
);
userData = {
assembly = "NPUSHB[ ]	/* 38 values pushed */
0 2 5 1 3 2 3 99 4 1 1 1 0 95 0 0 0 30 1 78 4 4 0 0 4 7 4 7 6 5 0 3 0 3 17 6 8 23 
CALL[ ]	/* CallFunction */";
};
width = 600;
}
);
note = brokenbar;
unicode = 166;
},
{
glyphname = dagger;
layers = (
{
layerId = m01;
shapes = (
{
closed = 1;
nodes = (
(341,511,l),
(484,511,l),
(484,579,l),
(341,579,l),
(341,700,l),
(259,700,l),
(259,579,l),
(116,579,l),
(116,511,l),
(259,511,l),
(259,158,l),
(341,158,l)
);
}
);
userData = {
assembly = "NPUSHB[ ]	/* 36 values pushed */
3 1 1 4 1 0 5 1 0 103 6 1 5 5 2 95 0 2 2 28 5 78 0 0 0 11 0 11 17 17 17 17 17 7 8 27 
CALL[ ]	/* CallFunction */";
};
width = 600;
}
);
note = dagger;
unicode = 8224;
},
{
glyphname = uni2113;
layers = (
{
layerId = m01;
shapes = (
{
closed = 1;
nodes = (
(463,76,l),
(357,76,ls),
(289,77,o),
(212,145,o),
(212,216,qs),
(212,230,o),
(213,244,q),
(360,296,o),
(531,474,o),
(531,588,qs),
(531,648,o),
(464,712,o),
(402,712,qs),
(350,712,o),
(260,644,o),
(188,527,o),
(141,378,o),
(132,296,q),
(100,287,o),
(66,280,q),
(66,205,l),
(98,211,o),
(128,219,q),
(128,218,o),
(128,215,qs),
(128,110,o),
(248,0,o),
(355,0,qs),
(463,0,l)
);
},
{
closed = 1;
nodes = (
(451,609,o),
(451,581,qs),
(451,509,o),
(333,372,o),
(220,325,q),
(233,416,o),
(292,557,o),
(366,638,o),
(401,638,qs),
(424,638,o)
);
}
);
userData = {
assembly = "NPUSHB[ ]	/* 54 values pushed */
33 8 7 3 4 2 3 1 76 0 1 5 1 3 2 1 3 105 0 2 0 0 2 87 0 2 2 0 95 4 1 0 2 0 79 30 29 1 0 29 38 30 38 27 25 16 14 0 28 1 28 6 6 22 
CALL[ ]	/* CallFunction */";
};
width = 600;
}
);
note = uni2113;
unicode = 8467;
},
{
glyphname = daggerdbl;
layers = (
{
layerId = m01;
shapes = (
{
closed = 1;
nodes = (
(341,279,l),
(484,279,l),
(484,348,l),
(341,348,l),
(341,511,l),
(484,511,l),
(484,579,l),
(341,579,l),
(341,700,l),
(259,700,l),
(259,579,l),
(116,579,l),
(116,511,l),
(259,511,l),
(259,348,l),
(116,348,l),
(116,279,l),
(259,279,l),
(259,158,l),
(341,158,l)
);
}
);
userData = {
assembly = "NPUSHB[ ]	/* 50 values pushed */
5 1 3 6 1 2 1 3 2 103 7 1 1 8 1 0 9 1 0 103 10 1 9 9 4 95 0 4 4 28 9 78 0 0 0 19 0 19 17 17 17 17 17 17 17 17 17 11 8 31 
CALL[ ]	/* CallFunction */";
};
width = 600;
}
);
note = daggerdbl;
unicode = 8225;
},
{
glyphname = estimated;
layers = (
{
layerId = m01;
shapes = (
{
closed = 1;
nodes = (
(528,145,o),
(562,224,q),
(512,224,l),
(484,163,o),
(371,94,o),
(300,94,qs),
(236,94,o),
(149,145,o),
(124,182,q),
(124,332,l),
(575,332,l),
(575,369,ls),
(575,438,o),
(512,561,o),
(390,637,o),
(301,637,qs),
(219,637,o),
(94,559,o),
(25,427,o),
(25,345,qs),
(25,251,o),
(97,121,o),
(221,53,o),
(300,53,qs),
(393,53,o)
);
},
{
closed = 1;
nodes = (
(155,552,o),
(245,595,o),
(301,595,qs),
(355,595,o),
(446,552,o),
(480,508,q),
(480,381,l),
(124,381,l),
(124,508,l)
);
}
);
userData = {
assembly = "NPUSHB[ ]	/* 73 values pushed */
33 27 2 5 6 15 1 3 4 2 76 0 4 2 3 2 4 3 128 0 1 0 6 5 1 6 105 0 5 0 2 4 5 2 103 0 3 0 0 3 89 0 3 3 0 97 7 1 0 3 0 81 1 0 31 29 26 25 22 21 19 17 14 13 9 7 0 24 1 24 8 6 22 
CALL[ ]	/* CallFunction */";
};
width = 600;
}
);
note = estimated;
unicode = 8494;
},
{
glyphname = uni030C.alt;
layers = (
{
layerId = m01;
shapes = (
{
closed = 1;
nodes = (
(421,720,l),
(320,720,l),
(272,496,l),
(344,496,l)
);
}
);
userData = {
assembly = "NPUSHB[ ]	/* 22 values pushed */
2 1 1 1 0 95 0 0 0 30 1 78 0 0 0 3 0 3 17 3 8 23 
CALL[ ]	/* CallFunction */";
};
width = 0;
}
);
note = uni030C.alt;
},
{
glyphname = uni0312;
layers = (
{
layerId = m01;
shapes = (
{
closed = 1;
nodes = (
(376,756,l),
(301,756,l),
(211,564,l),
(319,564,l)
);
}
);
userData = {
assembly = "PUSHB[ ]	/* 2 values pushed */
6 100 
WCVTP[ ]	/* WriteCVTInPixels */
NPUSHB[ ]	/* 27 values pushed */
0 0 1 1 0 87 0 0 0 1 95 2 1 1 0 1 79 0 0 0 3 0 3 17 3 8 23 
CALL[ ]	/* CallFunction */
PUSHB[ ]	/* 2 values pushed */
6 0 
WCVTP[ ]	/* WriteCVTInPixels */";
};
width = 0;
}
);
note = uni0312;
unicode = 786;
},
{
glyphname = uni0326;
layers = (
{
layerId = m01;
shapes = (
{
closed = 1;
nodes = (
(361,-68,l),
(253,-68,l),
(194,-264,l),
(272,-264,l)
);
}
);
userData = {
assembly = "PUSHB[ ]	/* 2 values pushed */
6 100 
WCVTP[ ]	/* WriteCVTInPixels */
NPUSHB[ ]	/* 27 values pushed */
0 0 1 1 0 87 0 0 0 1 95 2 1 1 0 1 79 0 0 0 3 0 3 17 3 8 23 
CALL[ ]	/* CallFunction */
PUSHB[ ]	/* 2 values pushed */
6 0 
WCVTP[ ]	/* WriteCVTInPixels */";
};
width = 0;
}
);
note = uni0326;
unicode = 806;
},
{
glyphname = acute;
layers = (
{
layerId = m01;
shapes = (
{
closed = 1;
nodes = (
(405,727,l),
(195,615,l),
(195,536,l),
(405,641,l)
);
}
);
userData = {
assembly = "PUSHB[ ]	/* 4 values pushed */
2 0 1 50 
CALL[ ]	/* CallFunction */";
};
width = 600;
}
);
note = acute;
unicode = 180;
},
{
glyphname = breve;
layers = (
{
layerId = m01;
shapes = (
{
closed = 1;
nodes = (
(441,628,o),
(441,684,qs),
(441,697,l),
(380,697,l),
(380,658,o),
(337,617,o),
(300,617,qs),
(263,617,o),
(219,658,o),
(219,697,q),
(159,697,l),
(159,684,ls),
(159,629,o),
(233,553,o),
(300,553,qs),
(366,553,o)
);
}
);
userData = {
assembly = "PUSHB[ ]	/* 2 values pushed */
6 100 
WCVTP[ ]	/* WriteCVTInPixels */
NPUSHB[ ]	/* 38 values pushed */
3 1 1 2 1 133 0 2 0 0 2 89 0 2 2 0 97 4 1 0 2 0 81 1 0 12 11 9 7 5 4 0 15 1 15 5 8 22 
CALL[ ]	/* CallFunction */
PUSHB[ ]	/* 2 values pushed */
6 0 
WCVTP[ ]	/* WriteCVTInPixels */";
};
width = 600;
}
);
note = breve;
unicode = 728;
},
{
glyphname = caron;
layers = (
{
layerId = m01;
shapes = (
{
closed = 1;
nodes = (
(437,705,l),
(302,625,l),
(298,625,l),
(163,705,l),
(163,631,l),
(300,551,l),
(437,631,l)
);
}
);
userData = {
assembly = "PUSHB[ ]	/* 4 values pushed */
2 0 1 50 
CALL[ ]	/* CallFunction */";
};
width = 600;
}
);
note = caron;
unicode = 711;
},
{
glyphname = cedilla;
layers = (
{
layerId = m01;
shapes = (
{
closed = 1;
nodes = (
(396,-259,o),
(464,-207,o),
(464,-159,qs),
(464,-110,o),
(398,-63,o),
(345,-63,qs),
(336,-63,l),
(336,7,l),
(279,7,l),
(279,-114,l),
(336,-114,ls),
(364,-114,o),
(396,-136,o),
(396,-158,qs),
(396,-182,o),
(364,-206,o),
(336,-206,qs),
(236,-206,l),
(236,-259,l),
(344,-259,ls)
);
}
);
userData = {
assembly = "PUSHB[ ]	/* 2 values pushed */
6 100 
WCVTP[ ]	/* WriteCVTInPixels */
MPPEM[ ]	/* MeasurePixelPerEm */
PUSHB[ ]	/* 1 value pushed */
19 
LT[ ]	/* LessThan */
IF[ ]	/* If */
NPUSHB[ ]	/* 31 values pushed */
0 2 3 3 2 112 0 3 0 1 0 3 1 106 0 0 4 4 0 87 0 0 0 4 95 5 1 4 0 4 79 
ELSE[ ]	/* Else */
NPUSHB[ ]	/* 30 values pushed */
0 2 3 2 133 0 3 0 1 0 3 1 106 0 0 4 4 0 87 0 0 0 4 95 5 1 4 0 4 79 
EIF[ ]	/* EndIf */
NPUSHB[ ]	/* 13 values pushed */
0 0 0 19 0 18 33 17 36 33 6 8 26 
CALL[ ]	/* CallFunction */
PUSHB[ ]	/* 2 values pushed */
6 0 
WCVTP[ ]	/* WriteCVTInPixels */";
};
width = 600;
}
);
note = cedilla;
unicode = 184;
},
{
glyphname = circumflex;
layers = (
{
layerId = m01;
shapes = (
{
closed = 1;
nodes = (
(302,631,l),
(437,551,l),
(437,625,l),
(300,705,l),
(163,625,l),
(163,551,l),
(298,631,l)
);
}
);
userData = {
assembly = "PUSHB[ ]	/* 4 values pushed */
2 0 1 50 
CALL[ ]	/* CallFunction */";
};
width = 600;
}
);
note = circumflex;
unicode = 710;
},
{
glyphname = dieresis;
layers = (
{
layerId = m01;
shapes = (
{
closed = 1;
nodes = (
(448,599,o),
(448,622,qs),
(448,646,o),
(416,680,o),
(392,680,qs),
(368,680,o),
(335,646,o),
(335,622,qs),
(335,599,o),
(368,565,o),
(392,565,qs),
(416,565,o)
);
},
{
closed = 1;
nodes = (
(266,599,o),
(266,622,qs),
(266,646,o),
(233,680,o),
(209,680,qs),
(185,680,o),
(152,646,o),
(152,622,qs),
(152,599,o),
(185,565,o),
(209,565,qs),
(233,565,o)
);
}
);
userData = {
assembly = "PUSHB[ ]	/* 2 values pushed */
6 100 
WCVTP[ ]	/* WriteCVTInPixels */
NPUSHB[ ]	/* 40 values pushed */
3 1 1 0 0 1 89 3 1 1 1 0 97 5 2 4 3 0 1 0 81 13 12 1 0 19 17 12 23 13 23 7 5 0 11 1 11 6 8 22 
CALL[ ]	/* CallFunction */
PUSHB[ ]	/* 2 values pushed */
6 0 
WCVTP[ ]	/* WriteCVTInPixels */";
};
width = 600;
}
);
note = dieresis;
unicode = 168;
},
{
glyphname = dotaccent;
layers = (
{
layerId = m01;
shapes = (
{
closed = 1;
nodes = (
(370,624,o),
(370,652,qs),
(370,681,o),
(330,720,o),
(300,720,qs),
(271,720,o),
(230,681,o),
(230,652,qs),
(230,624,o),
(271,584,o),
(300,584,qs),
(330,584,o)
);
}
);
userData = {
assembly = "PUSHB[ ]	/* 2 values pushed */
6 100 
WCVTP[ ]	/* WriteCVTInPixels */
NPUSHB[ ]	/* 28 values pushed */
0 1 0 0 1 89 0 1 1 0 97 2 1 0 1 0 81 1 0 7 5 0 11 1 11 3 8 22 
CALL[ ]	/* CallFunction */
PUSHB[ ]	/* 2 values pushed */
6 0 
WCVTP[ ]	/* WriteCVTInPixels */";
};
width = 600;
}
);
note = dotaccent;
unicode = 729;
},
{
glyphname = grave;
layers = (
{
layerId = m01;
shapes = (
{
closed = 1;
nodes = (
(195,727,l),
(195,641,l),
(405,536,l),
(405,615,l)
);
}
);
userData = {
assembly = "PUSHB[ ]	/* 4 values pushed */
2 0 1 50 
CALL[ ]	/* CallFunction */";
};
width = 600;
}
);
note = grave;
unicode = 96;
},
{
glyphname = hungarumlaut;
layers = (
{
layerId = m01;
shapes = (
{
closed = 1;
nodes = (
(449,705,l),
(371,705,l),
(306,554,l),
(367,554,l)
);
},
{
closed = 1;
nodes = (
(294,705,l),
(217,705,l),
(151,554,l),
(212,554,l)
);
}
);
userData = {
assembly = "PUSHB[ ]	/* 2 values pushed */
6 100 
WCVTP[ ]	/* WriteCVTInPixels */
NPUSHB[ ]	/* 31 values pushed */
2 1 0 1 0 133 5 3 4 3 1 1 118 4 4 0 0 4 7 4 7 6 5 0 3 0 3 17 6 8 23 
CALL[ ]	/* CallFunction */
PUSHB[ ]	/* 2 values pushed */
6 0 
WCVTP[ ]	/* WriteCVTInPixels */";
};
width = 600;
}
);
note = hungarumlaut;
unicode = 733;
},
{
glyphname = macron;
layers = (
{
layerId = m01;
shapes = (
{
closed = 1;
nodes = (
(463,662,l),
(137,662,l),
(137,596,l),
(463,596,l)
);
}
);
userData = {
assembly = "PUSHB[ ]	/* 2 values pushed */
6 100 
WCVTP[ ]	/* WriteCVTInPixels */
NPUSHB[ ]	/* 27 values pushed */
0 0 1 1 0 87 0 0 0 1 95 2 1 1 0 1 79 0 0 0 3 0 3 17 3 8 23 
CALL[ ]	/* CallFunction */
PUSHB[ ]	/* 2 values pushed */
6 0 
WCVTP[ ]	/* WriteCVTInPixels */";
};
width = 600;
}
);
note = macron;
unicode = 175;
},
{
glyphname = ogonek;
layers = (
{
layerId = m01;
shapes = (
{
closed = 1;
nodes = (
(389,-196,q),
(389,-134,l),
(371,-143,o),
(347,-149,o),
(334,-149,qs),
(311,-149,o),
(281,-126,o),
(281,-102,qs),
(281,-77,o),
(312,-42,o),
(338,-27,qs),
(385,0,l),
(359,48,l),
(310,22,ls),
(268,-1,o),
(213,-60,o),
(213,-106,qs),
(213,-159,o),
(279,-209,o),
(320,-209,qs),
(357,-209,o)
);
}
);
userData = {
assembly = "PUSHB[ ]	/* 2 values pushed */
6 100 
WCVTP[ ]	/* WriteCVTInPixels */
NPUSHB[ ]	/* 40 values pushed */
19 1 0 1 1 76 18 8 7 3 1 74 0 1 0 0 1 89 0 1 1 0 97 2 1 0 1 0 81 1 0 16 14 0 20 1 20 3 8 22 
CALL[ ]	/* CallFunction */
PUSHB[ ]	/* 2 values pushed */
6 0 
WCVTP[ ]	/* WriteCVTInPixels */";
};
width = 600;
}
);
note = ogonek;
unicode = 731;
},
{
glyphname = ring;
layers = (
{
layerId = m01;
shapes = (
{
closed = 1;
nodes = (
(405,612,o),
(405,660,qs),
(405,707,o),
(343,763,o),
(300,763,qs),
(257,763,o),
(195,707,o),
(195,660,qs),
(195,612,o),
(257,557,o),
(300,557,qs),
(343,557,o)
);
},
{
closed = 1;
nodes = (
(243,632,o),
(243,660,qs),
(243,687,o),
(276,718,o),
(300,718,qs),
(324,718,o),
(357,687,o),
(357,660,qs),
(357,632,o),
(324,601,o),
(300,601,qs),
(276,601,o)
);
}
);
userData = {
assembly = "PUSHB[ ]	/* 2 values pushed */
6 100 
WCVTP[ ]	/* WriteCVTInPixels */
NPUSHB[ ]	/* 46 values pushed */
0 1 0 3 2 1 3 105 5 1 2 0 0 2 89 5 1 2 2 0 97 4 1 0 2 0 81 13 12 1 0 19 17 12 23 13 23 7 5 0 11 1 11 6 8 22 
CALL[ ]	/* CallFunction */
PUSHB[ ]	/* 2 values pushed */
6 0 
WCVTP[ ]	/* WriteCVTInPixels */";
};
width = 600;
}
);
note = ring;
unicode = 730;
},
{
glyphname = tilde;
layers = (
{
layerId = m01;
shapes = (
{
closed = 1;
nodes = (
(455,632,o),
(456,679,q),
(401,679,l),
(395,639,o),
(357,639,qs),
(336,639,o),
(304,660,o),
(266,681,o),
(238,681,qs),
(198,681,o),
(147,629,o),
(144,581,q),
(200,581,l),
(206,621,o),
(242,621,qs),
(262,621,o),
(294,600,o),
(333,579,o),
(361,579,qs),
(402,579,o)
);
}
